{"glyphs":{":":{"x_min":0,"x_max":240,"ha":240,"o":"m 240 343 b 241 351 236 356 233 363 b 230 369 224 373 220 378 b 209 389 200 392 185 392 b 184 392 183 392 182 392 b 180 392 178 392 176 392 b 174 392 171 392 168 392 b 167 392 165 392 163 392 b 158 393 153 391 148 388 b 127 376 109 361 99 339 b 98 335 96 331 94 326 b 90 316 89 305 92 295 b 96 280 103 265 117 255 b 122 251 128 248 135 246 b 136 246 139 245 143 245 b 152 245 167 247 172 249 b 183 253 194 258 205 263 b 209 265 213 268 216 271 b 222 280 227 288 235 303 b 237 309 238 315 238 321 b 243 328 239 336 240 343 z m 132 295 l 130 294 z m 137 317 b 138 319 133 320 136 323 b 137 324 141 322 140 314 z m 148 306 b 152 307 154 305 151 301 z m 177 313 b 179 313 182 311 179 304 z m 149 105 b 145 127 118 148 96 148 b 94 147 93 147 91 147 b 66 147 53 144 33 127 b 25 120 20 110 13 102 b 11 99 10 95 8 92 b 4 83 3 72 0 62 b 0 59 4 57 2 53 b 1 50 5 49 5 46 b 8 28 20 16 34 6 b 39 2 45 1 51 1 b 53 1 56 1 58 1 b 67 1 72 1 81 4 b 86 5 91 5 96 8 b 103 13 111 17 119 20 b 124 22 127 26 130 31 b 131 34 134 37 136 40 b 144 52 150 64 150 83 b 152 89 151 97 149 105 z m 47 75 b 43 76 42 78 44 85 b 47 84 48 80 47 75 z m 48 75 b 52 73 53 71 51 71 z m 85 97 b 83 97 79 100 83 104 z m 73 80 b 71 80 67 83 68 85 b 65 88 63 91 62 92 b 64 93 69 91 71 87 b 72 86 75 85 73 80 z m 77 43 b 76 44 73 45 82 43 z m 89 72 b 87 70 85 68 82 66 z m 95 59 b 93 60 91 61 92 66 b 94 64 96 63 95 59 z"},"$":{"x_min":0,"x_max":445,"ha":445,"o":"m 439 565 b 438 569 439 573 437 575 b 436 576 408 611 407 612 b 406 614 404 616 401 617 b 398 618 395 620 392 622 b 386 625 386 625 390 631 b 394 637 396 645 402 657 b 401 667 404 677 408 687 b 409 691 410 696 408 700 b 406 706 399 710 387 718 l 380 716 b 375 714 368 714 365 706 b 362 701 358 696 355 690 b 352 680 351 670 346 661 b 343 654 343 646 339 639 b 335 631 329 626 319 626 b 311 626 304 626 296 625 b 287 619 278 619 267 619 b 262 619 258 618 254 615 b 248 611 242 607 235 604 b 229 603 223 600 219 596 b 211 589 203 582 195 575 b 185 565 175 555 165 544 b 161 541 159 536 156 532 b 155 531 146 496 145 493 b 144 485 143 478 139 471 b 137 468 137 465 138 462 b 141 448 141 448 138 433 b 137 430 137 426 138 423 b 141 416 141 409 142 401 b 143 395 144 390 145 385 b 148 375 153 366 155 356 b 157 347 161 338 166 331 b 175 319 181 307 186 293 b 188 288 189 284 186 279 b 183 275 182 269 179 264 b 177 260 179 256 177 252 b 173 239 166 226 160 213 b 156 204 150 196 148 186 b 146 177 142 169 137 161 b 134 154 130 148 126 141 b 124 136 121 131 121 125 b 121 116 111 94 101 92 b 102 99 100 105 97 111 b 96 114 96 117 98 120 b 100 124 100 128 102 132 b 105 140 106 148 111 154 b 116 159 118 165 120 171 b 121 176 124 181 127 186 b 133 192 138 215 138 222 b 143 226 140 230 137 233 b 134 236 133 242 129 242 b 123 243 118 248 111 248 b 110 248 109 248 104 248 b 102 250 100 250 98 250 b 96 250 95 250 94 249 b 90 247 87 247 83 247 b 78 247 73 246 68 245 b 56 244 49 237 45 228 b 41 217 35 208 31 197 b 29 192 26 187 25 181 b 24 177 24 173 21 169 b 19 168 18 164 17 161 b 16 157 15 152 15 148 b 15 143 11 139 10 134 b 9 131 8 127 8 123 b 8 112 8 101 8 91 b 8 86 11 82 11 77 b 17 73 16 66 17 60 b 19 50 23 41 31 36 b 36 34 38 29 42 27 b 47 25 50 22 52 17 b 53 15 55 12 58 12 b 63 13 66 10 71 9 b 77 9 78 7 73 -2 b 74 -10 68 -15 63 -20 b 61 -23 60 -26 58 -29 b 54 -40 53 -52 53 -63 b 56 -81 70 -83 85 -86 b 87 -84 89 -82 91 -82 b 97 -83 99 -78 100 -75 b 102 -70 105 -65 104 -59 b 103 -52 105 -46 114 -35 b 118 -29 122 -22 121 -15 b 120 -11 123 -9 123 -6 b 123 -2 126 0 130 0 b 133 0 136 0 140 0 b 149 0 156 0 164 2 b 167 2 171 5 175 5 b 177 5 179 4 181 2 b 186 2 191 2 196 5 b 207 11 220 15 233 19 b 238 21 244 22 248 26 b 255 32 263 36 271 40 b 274 42 277 44 279 47 b 282 53 286 57 292 60 b 297 63 299 67 301 72 b 303 79 304 87 315 95 b 323 105 325 118 327 130 b 329 141 332 152 336 163 b 337 167 337 169 336 173 b 334 179 331 186 332 193 b 332 202 332 211 332 221 b 332 227 328 232 327 241 b 328 247 323 251 322 256 b 319 266 315 276 310 285 b 308 289 305 293 303 297 b 300 304 297 312 295 319 b 290 331 282 341 274 351 b 271 355 271 359 273 362 b 276 368 278 374 282 379 b 286 384 289 390 291 397 b 293 402 295 406 298 411 b 303 419 307 428 308 438 b 310 445 310 452 316 458 b 319 461 322 465 324 468 b 326 472 326 477 327 481 b 328 484 329 486 330 488 b 333 495 335 501 337 507 b 340 521 344 535 361 541 b 365 532 363 525 358 517 b 356 513 352 508 352 504 b 351 496 348 491 345 484 b 343 481 342 478 341 474 b 338 466 340 458 339 450 b 337 440 344 437 349 433 b 351 432 352 431 354 431 b 354 431 355 431 356 431 b 356 431 357 431 358 431 b 369 428 379 424 390 424 b 400 424 414 432 418 442 b 421 449 424 455 429 460 b 433 465 436 470 435 477 b 435 483 434 489 436 493 b 439 501 440 509 440 522 b 443 537 444 553 439 565 z m 52 80 b 53 82 54 84 54 79 z m 56 112 l 55 111 z m 57 135 b 55 136 53 138 54 141 b 62 137 62 137 62 136 z m 57 144 b 59 142 61 140 63 138 b 58 140 56 141 54 142 z m 241 343 b 239 342 235 346 241 353 b 242 353 245 350 246 348 z m 254 305 b 255 306 256 308 257 308 b 258 308 259 307 260 306 z m 253 305 b 258 304 257 302 253 305 z m 270 228 b 267 229 265 230 263 231 b 269 227 269 226 262 232 b 255 235 255 237 261 237 b 266 237 270 232 270 228 z m 260 206 b 255 209 253 208 253 209 b 253 213 249 215 249 220 b 252 217 257 216 261 209 b 262 208 264 209 265 209 b 266 209 267 208 267 207 b 267 204 271 203 264 203 z m 264 203 b 269 198 269 197 268 197 z m 243 280 b 243 283 245 285 251 283 b 249 281 247 280 244 278 z m 262 271 b 260 269 259 266 255 271 b 255 273 256 274 257 274 b 258 274 260 273 262 271 z m 251 305 b 245 305 244 307 250 310 b 245 308 252 306 251 305 z m 243 402 b 250 398 250 397 243 402 z m 250 399 b 247 401 245 402 243 403 z m 226 266 b 226 268 229 271 230 264 z m 231 321 b 231 324 234 329 233 319 z m 237 290 b 239 291 243 288 243 286 b 240 288 238 289 237 290 z m 229 364 b 230 361 233 360 236 354 l 229 350 b 229 353 227 356 223 358 b 219 360 219 361 223 365 b 224 366 225 367 227 367 b 227 367 228 367 229 364 z m 208 348 b 215 343 214 342 213 341 b 212 344 207 341 212 350 b 215 350 217 348 217 344 b 213 346 210 347 208 348 z m 209 315 b 208 314 204 322 206 324 b 210 323 213 320 209 315 z m 214 372 b 212 376 204 375 197 387 b 197 389 192 391 196 393 b 199 395 200 392 202 390 b 205 388 208 386 217 374 z m 197 367 b 199 365 203 358 200 355 b 196 356 193 359 197 367 z m 214 382 l 212 383 z m 214 397 b 213 399 210 400 209 403 b 209 407 206 408 203 410 b 199 414 199 414 209 417 b 212 412 214 405 214 397 z m 206 497 b 204 499 200 501 201 509 z m 203 482 b 204 479 206 475 205 472 b 204 470 203 470 202 470 b 201 470 199 470 198 471 b 195 472 195 476 193 479 b 191 482 193 485 197 485 b 198 484 199 485 200 485 b 201 485 202 484 203 482 z m 188 461 b 185 464 183 465 188 461 z m 181 503 b 181 501 179 497 178 504 z m 181 467 b 177 470 175 471 174 472 l 180 477 z m 178 377 b 175 378 176 382 178 384 b 182 384 181 381 178 377 z m 181 467 b 188 460 188 458 183 461 b 179 462 181 465 181 467 z m 186 433 b 187 432 188 434 190 434 b 190 434 191 433 195 426 b 196 425 199 424 196 420 b 196 421 195 422 194 422 b 193 422 191 419 189 422 b 191 425 192 427 184 430 z m 193 399 l 186 398 z m 226 157 b 224 151 222 144 221 137 b 221 132 219 127 216 123 b 211 115 207 107 200 102 b 195 98 169 77 165 72 b 165 72 164 71 163 71 b 161 71 160 72 158 77 b 165 79 159 87 164 90 b 164 103 171 113 175 125 b 178 136 183 146 188 156 b 192 163 193 172 199 186 b 207 195 212 205 214 217 b 215 221 219 224 224 229 b 223 219 231 212 234 199 b 231 184 231 170 226 157 z m 236 289 b 242 285 240 284 236 289 z m 248 256 b 250 254 251 252 246 246 b 246 249 243 249 241 250 b 242 252 243 255 245 257 z m 255 90 l 254 89 z m 256 151 b 253 151 251 153 256 151 z m 258 115 b 256 118 260 117 262 118 b 264 119 265 120 266 120 b 267 120 267 119 267 116 b 267 110 266 109 262 110 z m 271 132 b 269 134 267 137 271 141 b 272 139 273 137 273 132 z m 271 165 b 276 160 273 158 271 158 b 268 160 269 162 270 165 b 266 165 264 166 271 165 z m 292 173 b 291 175 288 176 291 179 b 298 176 298 177 297 168 z m 295 204 b 300 205 298 199 299 195 b 296 196 297 201 295 204 z m 277 281 b 278 278 284 281 284 275 b 284 273 290 273 289 269 b 283 270 278 274 276 281 z m 283 502 b 280 496 277 490 275 485 b 272 479 270 473 269 467 b 269 465 267 462 265 460 b 260 452 257 444 255 435 b 254 429 249 426 245 422 b 241 426 240 431 241 437 b 241 437 240 473 248 487 b 248 498 253 508 259 517 b 267 527 276 535 286 543 b 288 545 291 546 294 547 l 296 551 l 299 550 z m 310 581 l 308 581 l 314 577 b 317 572 317 571 315 571 z m 326 590 b 324 593 321 594 321 597 b 325 598 331 594 326 590 z"},"?":{"x_min":0,"x_max":354,"ha":354,"o":"m 441 566 b 441 577 438 587 435 596 b 432 608 431 608 423 616 b 417 622 412 627 406 632 b 404 635 401 637 397 638 b 391 640 385 643 381 648 b 377 653 372 655 366 655 b 364 654 363 654 361 654 b 358 654 356 654 353 655 b 352 655 352 654 351 654 b 349 654 348 655 347 656 b 344 659 340 659 336 659 b 335 659 334 659 332 659 b 330 659 327 659 325 659 b 321 659 317 659 313 659 b 310 660 308 660 305 660 b 294 660 281 655 267 654 b 265 651 260 653 257 650 b 252 645 245 643 237 643 b 233 642 229 641 226 638 b 221 634 216 629 211 626 b 199 619 189 611 180 601 b 174 595 167 588 160 582 b 158 580 157 577 155 575 b 148 566 144 555 137 547 b 131 541 128 533 124 526 b 120 519 123 511 119 502 b 125 494 127 484 137 479 b 146 474 156 474 166 470 b 172 474 180 470 186 475 b 189 477 193 479 196 479 b 201 480 202 482 203 485 b 207 492 209 498 211 505 b 214 514 219 523 224 532 b 227 540 230 549 236 556 b 244 567 254 578 266 587 b 273 592 281 595 288 600 b 295 605 303 608 311 610 b 315 611 319 612 322 612 b 331 612 339 609 346 601 b 355 592 356 580 353 568 b 351 558 347 550 344 540 b 343 535 340 530 335 526 b 331 522 326 518 323 512 b 321 506 316 502 312 498 b 305 491 298 484 292 476 b 285 467 280 458 272 450 b 266 446 259 443 254 438 b 236 419 217 401 197 384 b 192 379 188 373 182 370 b 179 369 177 366 176 363 b 173 355 167 349 161 345 b 152 339 145 332 139 324 b 135 320 131 315 128 310 b 124 304 120 299 116 294 b 110 288 105 281 102 274 b 99 269 98 264 93 260 b 92 259 91 256 90 253 b 90 242 87 231 88 219 b 88 213 89 208 94 204 b 101 197 111 193 121 192 b 124 191 128 191 132 191 b 137 191 143 191 148 191 b 156 191 169 203 169 212 b 169 221 173 229 177 237 b 187 257 197 275 214 289 b 219 295 225 300 229 306 b 233 311 237 314 242 317 b 246 320 250 323 254 328 b 259 334 263 341 272 344 b 274 344 276 347 278 349 b 283 357 288 364 298 369 b 302 371 306 377 310 380 b 314 385 318 390 325 393 b 330 396 334 400 338 404 b 341 407 343 411 347 413 b 356 417 359 425 364 433 b 365 436 367 439 369 440 b 378 446 385 453 391 462 b 394 466 398 470 403 472 b 406 474 408 477 410 481 b 414 489 418 498 424 506 b 431 515 434 525 438 535 b 439 540 439 545 438 550 b 437 556 441 561 441 566 z m 191 94 b 191 100 192 108 186 113 b 184 127 175 132 164 139 b 151 146 137 146 124 148 b 122 148 120 148 118 148 b 105 148 94 141 84 135 b 73 128 65 117 56 108 b 53 104 52 99 50 94 b 46 85 44 75 42 65 b 41 55 46 46 49 37 b 50 34 51 29 53 26 b 65 11 81 2 102 -3 l 114 -1 b 115 -1 116 -1 117 -1 b 124 -1 130 2 136 6 b 143 9 150 13 157 18 b 162 22 166 27 171 31 b 177 36 179 42 182 48 b 185 57 189 65 189 74 b 193 80 191 87 191 94 z m 122 108 b 122 105 119 104 119 110 z m 116 76 b 115 78 114 80 113 83 z m 103 64 b 100 63 108 59 102 59 b 98 59 96 61 95 64 z m 104 30 b 102 32 100 33 101 38 b 102 36 105 35 104 30 z m 119 44 b 112 48 109 50 109 57 b 114 57 119 52 120 45 b 122 43 124 41 126 38 z m 134 66 b 134 62 132 61 128 62 z m 134 91 b 131 90 131 93 134 91 z"},"<":{"x_min":0,"x_max":389,"ha":389,"o":"m 340 403 b 338 412 338 422 332 430 b 329 433 327 436 326 439 b 323 448 312 450 304 450 b 300 450 296 449 292 448 b 256 433 221 416 187 397 b 172 390 158 383 144 375 b 138 371 130 370 123 367 b 103 358 84 348 65 339 b 57 335 44 323 40 318 b 37 315 34 313 31 309 b 29 306 32 301 29 297 b 27 295 28 291 29 288 b 32 279 37 271 42 264 b 50 253 57 243 64 232 b 72 219 81 204 92 193 b 102 175 113 157 127 140 b 130 137 132 134 134 130 b 137 122 141 117 148 117 b 150 117 152 118 153 118 b 155 119 158 119 160 119 b 162 119 164 119 166 119 b 178 123 187 131 197 139 b 207 146 204 157 208 168 b 203 174 200 181 195 187 b 181 209 166 231 151 254 b 145 262 139 269 136 282 b 140 285 145 288 150 291 b 167 300 185 308 203 316 b 212 320 221 326 230 330 b 235 333 241 333 245 337 b 256 345 269 349 280 356 b 296 364 314 370 329 379 b 333 381 336 383 338 386 b 339 389 338 392 338 395 b 337 398 341 400 340 403 z m 105 290 l 104 289 z m 116 308 b 117 308 122 305 116 306 b 120 302 119 301 118 301 z"},"'":{"x_min":0,"x_max":316,"ha":316,"o":"m 254 636 b 251 643 245 648 238 650 b 229 652 220 658 210 658 b 209 658 208 658 203 659 b 201 660 198 661 195 661 b 189 661 183 658 178 654 b 173 650 171 644 168 639 b 162 628 157 616 152 605 b 149 595 144 585 141 574 b 138 566 135 557 131 548 b 128 541 126 534 123 527 b 120 520 119 513 116 506 b 112 498 114 490 111 483 b 108 475 115 463 122 458 b 130 454 139 452 150 451 b 159 452 169 454 176 473 b 183 486 191 499 199 512 b 207 528 214 544 223 560 b 235 579 246 601 255 622 b 257 628 257 631 254 636 z"},"=":{"x_min":0,"x_max":420,"ha":420,"o":"m 305 224 b 300 229 295 234 287 234 b 281 234 279 234 273 236 b 271 234 269 234 268 234 b 266 234 264 234 263 234 b 253 234 242 234 232 234 b 225 234 218 234 211 234 b 209 234 206 234 203 234 b 198 234 194 234 189 234 b 179 234 170 234 160 236 b 155 237 150 237 145 237 b 137 237 130 236 122 236 b 110 236 97 236 85 234 b 78 234 71 233 64 233 b 57 233 50 234 40 236 b 36 232 30 233 25 230 b 11 224 1 213 -7 201 b -10 195 -11 190 -13 184 b -15 170 -15 169 -4 162 b 4 157 12 154 21 154 b 23 154 25 154 27 155 b 33 155 40 154 46 157 b 49 158 53 158 57 158 b 60 158 64 158 68 157 b 71 156 75 155 78 155 b 81 155 84 155 93 157 b 95 155 96 154 98 154 b 100 154 102 155 103 155 b 104 155 106 155 107 155 b 111 155 116 155 120 155 b 123 155 126 155 129 154 b 130 154 131 154 132 154 b 140 154 147 158 155 157 b 163 157 171 157 178 157 b 186 157 193 157 200 157 b 202 157 204 157 206 157 b 219 157 233 155 246 155 b 259 154 269 160 279 166 b 290 172 299 193 302 204 b 304 209 306 214 305 224 z m 365 389 b 363 392 360 393 357 392 b 355 392 353 392 352 392 b 347 392 342 392 338 392 b 333 392 329 392 318 390 b 316 392 314 392 311 392 b 308 392 305 391 302 391 b 299 390 295 389 291 389 b 287 389 283 390 280 390 b 275 391 273 392 270 392 b 267 392 265 391 259 390 b 257 390 255 389 253 389 b 251 389 250 390 248 391 b 247 392 245 392 243 392 b 242 392 241 392 241 392 b 227 392 213 392 199 392 b 185 392 171 392 157 392 b 154 392 151 392 149 391 b 147 390 145 390 143 390 b 140 390 138 390 135 391 b 131 392 126 392 122 392 b 116 392 110 392 105 392 b 74 380 66 368 56 339 b 55 335 53 329 57 325 b 64 319 70 313 81 313 b 103 313 126 313 149 313 b 164 313 180 313 196 313 b 204 313 212 313 220 313 b 221 313 223 313 224 313 b 226 313 228 313 241 313 b 243 313 245 313 247 313 b 253 313 258 313 264 313 b 270 313 276 313 285 315 b 289 313 293 313 297 313 b 299 313 302 313 304 313 b 305 313 306 313 307 313 b 312 313 316 313 319 313 b 322 313 324 313 326 313 b 331 313 334 317 339 318 b 345 320 352 322 355 328 b 358 335 362 340 365 346 b 365 347 375 376 375 377 b 375 382 369 384 366 388 z"},"a":{"x_min":0,"x_max":500,"ha":500,"o":"m 261 464 b 259 464 258 464 257 464 b 251 464 244 462 238 461 b 231 461 226 460 220 457 b 218 456 215 454 212 454 b 202 452 192 447 183 442 b 173 437 162 432 146 424 b 130 412 117 398 101 386 b 93 379 85 372 77 366 b 71 362 66 358 62 352 b 56 342 48 332 40 323 b 33 313 25 305 19 294 b 15 288 11 283 6 278 b 3 276 0 273 -2 270 b -7 261 -12 252 -17 243 b -25 228 -31 212 -40 198 b -44 193 -47 187 -45 180 b -44 176 -46 173 -48 170 b -53 161 -55 152 -55 142 b -55 139 -53 134 -55 132 b -59 127 -57 122 -57 117 b -57 112 -61 107 -60 101 b -59 95 -60 89 -60 83 b -60 77 -56 72 -57 66 b -57 64 -55 61 -54 58 b -47 47 -38 38 -33 26 b -32 23 -29 21 -25 19 b -16 15 -6 10 3 5 b 11 0 30 0 39 0 b 50 0 61 1 71 8 b 78 8 84 13 92 13 b 92 12 93 12 94 12 b 98 12 101 14 105 15 b 117 19 129 23 138 32 b 145 39 153 43 168 52 b 177 58 185 66 192 74 b 195 77 198 78 202 80 b 205 80 206 80 207 77 b 208 68 211 60 212 47 b 217 40 220 33 225 27 b 230 21 235 17 240 11 b 242 9 245 7 248 6 b 257 5 265 1 274 0 b 285 0 297 1 308 3 b 316 3 324 5 332 9 b 334 10 337 13 340 13 b 349 12 355 16 361 22 b 366 26 372 29 378 32 b 390 37 401 44 409 55 b 414 63 421 69 427 76 b 433 81 438 87 444 92 b 445 94 447 95 449 97 b 457 112 468 124 480 136 b 482 138 484 139 485 141 b 496 159 508 177 517 196 b 521 205 524 216 531 224 b 536 229 539 236 543 242 b 546 246 546 249 543 253 b 542 256 539 258 538 261 b 537 265 535 266 532 268 b 529 269 527 270 525 271 b 523 272 520 275 517 275 b 517 275 516 274 515 274 b 511 272 506 273 502 270 b 499 268 496 266 492 257 b 485 244 480 231 471 220 b 465 212 459 203 455 193 b 451 183 445 174 437 167 b 435 165 433 164 432 162 b 428 149 417 141 410 130 b 406 125 401 120 396 117 b 391 114 386 109 382 105 b 380 103 379 99 377 98 b 374 96 372 94 369 92 b 360 87 353 80 342 77 b 339 76 337 75 334 75 b 322 75 314 86 315 97 b 316 106 318 116 322 124 b 327 135 332 146 331 159 b 331 162 333 165 334 167 b 341 175 344 185 349 194 b 352 199 354 203 353 209 b 352 213 355 216 356 218 b 361 223 362 229 366 235 b 373 248 377 263 389 281 b 389 292 394 300 398 312 b 394 317 394 326 384 327 b 378 328 371 332 365 335 b 360 338 359 340 361 344 b 363 348 363 351 363 355 b 362 360 365 363 365 367 b 365 374 365 381 363 388 b 362 395 360 402 358 409 b 357 414 351 416 351 421 b 343 429 337 438 327 443 b 315 449 302 455 287 461 b 283 460 280 464 276 464 b 274 464 273 464 271 464 b 268 464 265 464 261 464 z m 22 92 b 19 94 17 94 19 99 b 20 97 23 96 22 92 z m 21 92 l 22 92 z m 305 51 l 305 50 z m 262 140 b 263 137 259 134 261 133 b 264 131 257 129 248 131 b 247 133 246 138 244 139 b 240 141 238 143 238 151 b 240 149 241 146 244 147 b 246 148 247 145 249 145 b 250 145 250 145 251 140 b 255 140 254 136 264 145 z m 262 121 l 262 120 z m 308 409 b 305 411 304 413 308 409 z m 233 65 b 231 66 227 65 229 70 b 231 67 235 69 234 63 z m 311 253 b 313 257 316 258 317 256 b 317 255 312 252 311 253 z m 212 387 b 217 386 218 385 219 379 b 215 380 213 380 212 387 z m 211 387 b 207 386 206 388 210 387 z m 255 117 b 258 118 262 114 256 113 z m 236 116 b 228 121 228 121 228 130 b 232 131 234 128 237 127 b 240 126 243 123 238 116 z m 244 108 b 240 110 237 111 241 116 b 242 117 243 117 243 117 b 245 117 246 116 248 116 z m 279 166 b 292 157 291 156 287 154 b 284 157 281 160 279 166 z m 284 167 b 287 164 289 162 293 157 b 287 161 282 164 279 166 z m 276 175 b 277 175 279 172 279 166 b 275 169 273 170 272 171 z m 56 245 b 59 245 57 242 53 243 b 58 236 57 236 56 237 b 54 239 51 237 51 245 z m 272 53 b 264 57 262 59 262 61 b 261 64 263 66 273 56 b 275 55 279 51 279 49 z m -18 131 b -8 123 -9 123 -10 123 b -11 123 -18 129 -18 131 z m -7 124 b -13 128 -16 130 -18 132 z m 235 90 b 243 85 242 85 241 85 b 240 85 239 84 238 84 b 237 84 236 85 235 90 z m 230 99 b 233 98 238 97 238 94 b 237 90 240 89 243 87 b 240 88 237 90 228 94 z m 221 97 b 219 102 219 106 226 109 b 226 106 225 103 223 97 z m 9 193 b 7 196 6 199 4 206 b 6 204 9 206 17 193 z m 18 192 b 25 185 24 183 18 183 b 18 187 13 189 18 192 z m 255 159 b 257 161 259 161 261 161 b 264 161 267 158 269 152 b 265 152 262 155 255 159 z m 259 166 b 257 163 256 161 251 164 b 254 163 257 164 259 166 z m 166 339 b 157 342 154 347 152 350 b 150 352 149 355 146 356 b 144 357 141 359 142 362 b 143 367 136 364 140 371 b 146 366 153 363 160 353 b 165 351 162 345 166 339 z m 51 95 b 49 104 54 112 56 120 b 60 132 65 145 70 163 b 76 171 82 179 85 188 b 87 196 94 203 101 213 b 104 225 113 232 121 240 b 127 246 129 253 137 263 b 144 269 173 303 179 312 b 183 321 192 326 199 331 b 214 344 233 359 251 368 b 254 369 256 370 259 370 b 272 370 282 360 287 349 b 288 346 289 344 287 341 b 285 336 283 330 282 319 b 279 311 274 303 274 292 b 266 284 263 274 260 264 b 258 256 253 251 248 245 b 241 237 236 228 231 219 b 224 207 216 196 208 185 b 197 171 186 158 175 145 b 169 137 163 129 157 122 b 153 117 147 116 144 110 b 141 104 135 101 131 96 b 121 86 101 76 88 71 b 83 68 77 67 71 65 b 65 64 56 72 53 79 b 51 84 51 89 51 95 z m 279 142 b 283 143 285 140 286 134 b 287 131 293 129 290 127 b 288 124 286 130 277 131 b 275 132 277 135 275 137 b 273 142 274 142 279 142 z m 253 80 b 256 80 254 76 256 74 b 258 73 261 73 260 68 b 259 69 258 69 257 69 b 255 69 252 67 251 69 b 248 70 247 73 246 76 b 245 77 247 82 249 82 z m 39 174 b 42 169 45 164 44 158 b 40 164 38 167 35 176 z m 300 141 b 296 142 296 147 298 155 b 298 150 306 149 303 145 z m 297 68 b 300 66 300 62 303 60 b 300 58 301 54 294 54 b 291 57 295 62 291 64 b 292 66 296 65 297 68 z m 265 94 b 272 94 272 94 269 82 b 266 82 264 82 265 94 z m 324 305 b 318 305 313 309 315 316 b 321 315 322 310 326 306 z m 176 392 b 172 391 168 393 165 404 b 169 401 174 398 178 393 z m -9 149 b -12 152 -15 154 -16 156 b -17 158 -17 161 -12 163 b -8 160 -7 158 -7 153 z m 46 216 b 47 218 44 221 48 221 b 49 221 51 223 52 223 b 53 223 54 223 54 221 b 56 218 56 216 51 213 b 49 212 48 212 47 212 b 46 212 46 213 46 216 z m 110 279 b 110 278 108 277 106 277 b 105 277 104 277 103 278 b 101 279 102 282 103 288 b 104 284 106 281 110 279 z m 280 204 b 282 205 286 197 281 191 b 280 193 277 191 276 195 b 276 199 279 200 280 204 z m 293 218 b 296 216 296 212 300 210 b 301 210 301 205 296 203 b 298 208 289 209 291 215 z m 307 195 b 306 199 303 202 310 205 b 311 202 313 199 312 196 z m -10 190 b -10 186 -6 184 -7 179 b -8 181 -10 183 -12 185 b -15 187 -17 190 -15 192 z m 20 127 b 19 124 28 122 23 119 b 20 117 17 122 15 130 z m 13 101 b 8 101 6 103 5 107 b 5 109 4 111 6 113 b 8 112 10 111 10 108 b 10 106 10 104 11 104 b 11 104 12 104 13 101 z m 1 178 b 3 178 8 174 3 169 b 1 168 -2 171 1 178 z m 286 248 b 285 248 284 248 284 248 b 282 248 281 248 281 250 b 281 254 283 256 285 257 b 285 258 291 251 286 248 z m 48 274 b 49 276 51 279 52 281 b 53 281 56 276 56 273 z m 2 86 b 3 84 6 85 7 85 b 8 85 9 84 9 83 b 9 80 7 76 4 75 b 3 75 0 80 0 84 z m 13 157 b 8 156 11 162 8 162 b 10 163 12 165 17 163 b 17 160 16 158 13 157 z m 204 123 b 201 122 199 124 207 124 z m 25 214 b 27 214 31 208 25 214 z m 38 193 b 36 193 31 199 32 201 b 33 202 34 202 35 202 b 37 202 38 202 38 193 z m 91 271 b 92 269 93 266 91 262 b 89 263 88 265 89 272 z m 79 281 b 83 282 86 281 86 278 b 86 276 84 274 81 274 z m 231 426 b 231 427 235 429 237 428 b 239 426 238 423 231 426 z m 250 407 b 247 405 247 409 245 416 b 249 415 250 412 252 409 z m 80 241 b 79 240 74 244 85 244 z m 6 140 b 5 139 -1 141 1 146 b 2 147 3 147 3 147 b 5 147 5 145 7 141 z m 305 286 b 305 288 308 294 312 287 z m 67 235 b 67 233 65 231 60 233 b 61 236 63 238 67 235 z m 108 334 b 109 336 107 339 115 336 z m 183 381 b 183 383 187 385 191 380 z m -24 103 b -24 103 -19 109 -16 105 b -16 101 -18 101 -21 101 z m 286 99 b 284 100 282 101 284 106 z m 38 263 b 40 261 42 259 42 255 b 41 254 34 257 38 263 z m 300 264 b 297 266 298 268 299 271 b 301 270 304 268 303 264 z m 31 56 b 34 56 34 53 31 56 z m 84 307 b 84 305 83 305 82 305 b 81 305 79 306 77 308 b 78 310 79 310 80 310 b 81 310 82 310 84 307 z m 281 81 b 280 79 277 79 281 81 z m 18 63 b 17 65 14 66 20 66 z m -7 66 b -7 65 -12 62 -7 66 z m 342 255 b 339 255 338 257 343 260 z m 116 307 b 114 305 113 302 109 305 b 112 306 109 310 116 307 z m 142 343 b 140 341 138 339 135 338 b 135 341 137 343 142 343 z m 270 114 b 269 114 269 122 272 117 z m 12 218 l 14 217 z m 214 117 b 212 116 211 113 207 115 b 208 116 209 118 214 117 z m -2 163 l -3 162 z m 274 203 l 273 202 z m 268 104 l 267 105 z m 274 115 l 275 115 z m 264 100 l 263 99 z m 126 289 l 125 290 z m 214 146 l 213 145 z m 53 243 l 53 244 z"},"L":{"x_min":0,"x_max":673,"ha":673,"o":"m 758 583 b 758 588 758 592 758 597 b 757 605 755 612 749 618 b 744 623 738 628 734 635 b 731 641 727 648 712 650 b 704 654 693 656 684 656 b 683 656 682 656 681 656 b 678 658 674 659 671 659 b 669 659 666 658 664 658 b 663 658 662 658 662 658 b 656 658 651 660 646 661 b 639 662 633 658 626 658 b 619 659 613 656 606 656 b 605 656 603 656 597 653 b 589 649 579 647 570 644 b 558 641 547 637 536 633 b 525 628 514 621 504 614 b 499 611 492 609 488 604 b 484 598 477 595 472 591 b 464 586 456 581 452 572 b 450 569 446 565 441 564 b 435 562 430 557 427 552 b 423 545 418 540 411 536 b 406 532 400 528 398 522 b 394 512 385 505 378 497 b 371 488 364 479 360 468 b 357 457 350 449 342 441 b 334 432 328 422 324 411 b 321 404 317 397 313 390 b 307 381 301 373 297 363 b 294 356 290 349 286 343 b 277 331 267 320 257 305 b 231 313 234 315 220 328 b 212 336 207 345 200 354 b 197 357 193 361 193 368 b 193 374 191 380 188 386 b 186 391 185 396 187 399 b 190 405 189 411 189 418 b 189 424 189 431 189 438 b 189 443 191 448 193 453 b 201 465 204 478 200 497 b 196 497 195 501 192 502 b 186 506 179 508 172 509 b 167 510 162 506 157 502 b 154 500 156 497 155 491 b 148 472 141 454 131 432 b 133 423 127 414 129 405 b 129 403 130 401 127 399 b 125 397 126 393 127 391 b 131 381 128 370 129 360 b 129 357 130 353 131 349 b 132 346 134 342 135 337 b 135 330 144 303 147 298 b 151 292 156 285 159 278 b 162 273 165 270 169 267 b 175 264 180 260 183 255 b 189 245 198 239 209 236 b 212 235 216 233 218 230 b 220 227 221 225 220 223 b 216 217 214 209 208 204 b 201 197 195 188 193 178 b 192 174 184 159 179 159 b 177 159 175 160 171 161 b 167 162 163 164 158 164 b 157 164 156 164 156 164 b 155 164 153 164 152 164 b 149 164 146 164 143 166 b 142 167 141 167 139 167 b 138 167 137 167 136 167 b 134 167 132 167 130 168 b 129 169 128 169 126 169 b 123 169 120 168 117 166 b 111 161 106 158 106 147 b 103 142 105 139 109 135 b 115 129 128 128 136 128 b 141 127 146 124 151 117 b 147 110 142 105 139 98 b 135 93 130 89 125 88 b 115 84 105 80 96 73 b 93 70 88 69 84 68 b 81 68 79 68 76 68 b 72 68 67 69 64 74 b 61 78 57 81 57 86 b 57 92 55 97 61 102 b 64 105 66 111 66 116 b 67 121 68 127 66 132 b 63 138 59 146 50 145 b 47 147 45 147 42 147 b 39 147 37 146 34 144 b 28 140 22 135 12 129 b 11 122 5 118 2 113 b -2 106 -8 100 -6 87 b -9 83 -8 79 -6 74 b -4 68 0 62 -1 55 b -1 47 3 42 9 38 b 14 35 18 31 21 26 b 23 22 26 20 29 18 b 41 9 53 3 67 3 b 73 3 76 3 82 1 b 86 0 90 -2 94 -2 b 95 -2 96 -2 97 -2 b 98 -3 99 -4 101 -4 b 104 -4 106 -1 109 -1 b 110 -1 111 -1 112 -2 b 128 3 144 7 160 12 b 167 14 170 17 176 22 b 183 30 191 36 201 40 b 206 41 212 44 215 50 b 217 55 223 58 229 68 b 229 68 231 68 232 68 b 233 68 234 68 234 66 b 236 62 239 60 242 57 b 253 45 265 34 274 20 b 281 10 291 3 301 -4 b 306 -7 312 -12 314 -16 b 322 -31 326 -35 343 -44 b 347 -46 352 -49 354 -53 b 356 -56 357 -58 360 -59 b 370 -65 379 -71 386 -80 b 393 -88 397 -91 405 -95 b 419 -103 433 -109 446 -118 b 465 -129 475 -134 497 -134 b 506 -134 510 -135 518 -139 b 521 -140 523 -141 526 -141 b 528 -141 531 -140 533 -139 b 538 -137 545 -136 551 -136 b 555 -136 582 -134 586 -131 b 593 -129 599 -124 606 -122 b 617 -118 625 -114 633 -105 b 641 -94 649 -84 659 -75 b 666 -69 668 -61 669 -52 b 670 -42 665 -35 656 -23 b 655 -23 654 -23 653 -23 b 647 -23 641 -27 635 -26 b 632 -25 630 -29 628 -31 b 624 -34 619 -36 615 -37 b 608 -40 590 -49 584 -49 b 572 -50 561 -53 550 -53 b 547 -53 544 -52 536 -52 b 529 -45 519 -48 511 -45 b 503 -42 489 -41 482 -34 b 480 -33 477 -32 475 -30 b 467 -26 457 -24 450 -18 b 444 -13 438 -11 430 -11 b 426 -11 421 -9 418 -1 b 410 8 403 12 390 18 b 382 21 360 37 356 44 b 352 49 345 49 339 53 b 332 58 325 65 318 72 b 316 74 314 76 311 78 b 299 84 277 95 269 106 b 267 109 267 113 269 115 b 276 126 283 137 294 145 b 297 146 298 148 300 150 b 304 156 308 162 309 170 b 310 173 312 176 315 179 b 323 185 328 194 331 204 b 332 209 336 212 341 212 b 345 212 348 212 352 212 b 357 212 362 212 367 212 b 370 212 373 212 376 212 b 389 212 400 213 413 217 b 426 221 438 226 451 226 b 452 226 453 226 454 226 b 455 230 458 229 461 229 b 463 229 464 229 465 230 b 478 238 493 242 506 250 b 514 254 522 258 530 260 b 541 262 550 266 557 274 b 563 281 570 285 578 289 b 582 291 587 293 592 296 b 613 311 630 328 648 346 b 651 348 653 351 657 353 b 666 356 671 363 676 370 b 687 387 698 404 717 422 b 726 438 744 467 751 494 b 752 498 753 502 756 505 b 761 510 763 517 763 524 b 762 534 763 544 762 554 b 762 562 764 571 758 578 z m 220 285 b 219 284 217 284 216 284 b 215 284 214 284 216 288 b 216 286 216 286 217 286 b 218 286 219 287 220 285 z m 180 107 b 178 107 174 113 175 116 b 177 117 182 114 180 107 z m 496 -84 l 497 -83 z m 573 594 b 577 593 585 587 578 586 b 577 589 576 591 573 594 z m 558 582 b 561 581 563 580 562 575 b 561 575 560 574 558 574 b 557 574 556 575 556 582 z m 543 567 b 547 567 547 567 545 560 b 545 560 539 565 543 567 z m 529 550 b 530 549 532 548 531 543 l 525 547 z m 504 542 l 505 543 z m 485 498 b 485 502 479 504 480 509 b 483 507 486 504 489 501 z m 472 540 b 485 529 485 528 482 527 b 478 530 477 536 472 540 z m 474 541 b 478 537 484 537 487 530 b 479 536 474 539 474 541 z m 461 529 b 463 527 466 525 468 519 b 467 517 466 517 464 517 b 463 517 463 517 457 528 b 453 532 452 533 454 536 z m 459 491 b 457 492 459 496 457 498 b 462 498 464 495 462 492 z m 437 462 b 439 457 444 456 443 450 b 439 452 436 455 434 459 z m 436 492 b 434 486 444 489 437 481 b 434 483 432 485 433 493 z m 430 464 b 423 464 420 468 422 473 z m 417 446 b 417 448 418 450 419 450 b 419 450 420 449 428 445 b 423 445 426 443 417 446 z m 406 430 b 407 430 410 431 406 430 z m 394 385 b 392 383 393 380 388 379 b 389 382 387 385 388 390 b 390 390 391 386 394 385 z m 387 421 b 390 421 396 414 394 409 b 393 409 393 409 392 409 b 390 409 388 409 387 411 b 385 414 385 417 386 420 z m 381 400 b 380 397 382 394 383 392 z m 375 432 b 377 430 379 428 380 423 b 378 426 374 425 372 433 z m 367 406 l 366 408 z m 371 378 b 371 375 369 373 364 375 b 364 378 366 379 369 380 z m 359 391 l 352 387 b 351 391 353 392 357 392 z m 347 301 b 354 300 350 298 348 299 z m 347 341 b 345 337 356 342 350 336 b 351 334 353 332 351 332 b 350 332 349 332 340 336 b 342 337 345 339 347 341 z m 324 327 b 327 327 324 333 324 327 z m 299 327 b 301 325 302 323 295 327 z m 252 224 b 250 223 253 219 254 226 z m 247 193 l 249 193 z m 246 234 b 245 231 246 229 243 225 b 240 226 238 228 237 231 b 236 234 238 236 240 238 b 242 236 247 236 246 234 z m 233 207 b 233 209 228 209 233 214 z m 231 270 b 232 271 232 271 233 271 b 234 271 236 269 239 269 b 235 264 241 263 234 265 b 233 266 229 266 231 270 z m 201 118 b 199 118 193 121 194 122 b 196 123 195 127 198 128 b 200 128 203 125 201 118 z m 213 117 b 212 114 211 111 210 110 z m 218 135 b 221 133 225 133 224 126 z m 229 274 b 227 277 224 276 223 278 z m 234 148 b 235 149 235 149 236 149 b 237 149 238 147 242 144 z m 242 105 b 241 108 244 109 245 104 z m 248 164 b 254 158 254 157 251 157 b 248 157 244 159 246 165 b 242 167 241 169 254 161 z m 264 174 b 263 179 259 180 256 181 b 252 182 254 184 256 188 b 261 185 265 181 268 175 z m 268 197 b 268 200 270 202 275 201 b 276 198 273 192 272 193 z m 305 224 b 302 223 300 226 302 234 b 306 234 307 232 305 224 z m 316 255 b 317 250 316 248 314 247 z m 328 231 b 327 234 322 234 316 241 b 317 244 323 243 323 246 b 325 242 327 239 330 237 b 333 230 333 229 332 229 z m 349 238 b 347 239 346 246 349 248 b 352 247 353 241 351 239 z m 364 230 b 359 231 357 232 364 230 z m 365 253 b 360 258 352 262 350 269 b 350 271 349 272 349 272 b 347 272 346 269 345 271 b 344 271 343 274 342 274 b 341 274 340 274 339 272 b 338 273 338 274 337 274 b 336 274 334 272 333 272 b 333 269 333 268 332 268 b 331 268 330 269 328 270 b 329 265 329 265 336 265 b 335 261 333 260 333 258 l 328 258 b 326 255 323 255 320 255 b 319 255 318 255 314 259 b 312 257 309 258 308 254 b 308 251 305 258 304 253 b 304 251 303 250 301 250 b 301 250 300 250 299 250 l 304 243 l 294 235 b 293 232 286 230 290 224 b 291 223 285 219 283 213 b 282 213 288 218 281 217 b 278 216 277 218 276 220 b 274 225 271 226 267 226 b 261 227 265 228 264 234 b 262 236 260 237 254 241 l 253 241 b 249 246 249 253 254 253 b 260 252 263 249 270 241 b 270 236 272 234 279 229 b 280 232 281 234 286 241 b 285 239 284 238 283 238 b 282 238 282 243 281 244 b 276 247 278 248 280 252 b 279 255 283 256 287 260 l 287 265 l 283 265 b 282 262 281 262 278 262 l 277 256 b 273 257 268 256 265 261 b 265 263 263 265 260 265 b 259 265 257 264 256 264 b 255 264 254 265 260 269 b 255 268 257 273 255 277 b 256 277 257 277 257 277 b 259 277 261 277 263 278 b 262 268 273 268 278 262 b 278 264 279 265 280 265 b 281 265 282 265 283 265 l 283 267 b 287 269 288 271 284 274 b 281 276 286 277 285 279 b 286 279 287 278 289 278 b 292 278 295 280 302 284 l 304 289 b 302 289 293 294 288 299 b 286 301 288 303 295 299 b 296 297 297 297 298 297 b 299 297 300 297 305 298 b 304 294 304 291 304 282 b 303 278 306 277 311 279 b 312 281 310 284 316 287 b 314 290 313 292 316 300 b 314 302 314 305 312 307 b 315 308 317 311 324 310 b 324 309 325 308 327 308 b 328 308 329 308 330 309 b 330 312 332 313 333 313 b 335 313 336 312 335 315 b 332 315 330 316 329 318 b 328 321 331 321 334 325 b 335 322 338 323 340 321 b 341 320 335 319 340 318 b 340 317 342 318 343 318 b 344 318 345 317 345 313 l 345 306 b 343 308 338 306 338 301 b 340 297 340 297 334 295 b 335 296 332 301 335 301 b 336 301 337 301 338 301 l 335 303 b 333 303 332 307 329 305 b 327 304 332 302 333 290 b 329 288 333 286 333 284 b 335 284 336 287 342 285 b 343 282 343 282 344 282 b 345 282 346 285 349 284 b 349 274 356 269 362 266 b 368 263 366 258 365 253 z m 257 255 l 256 256 z m 274 243 l 275 242 z m 368 281 b 369 283 363 287 370 287 b 375 286 373 283 372 278 b 372 280 370 279 369 279 b 367 279 367 279 368 281 z m 377 335 b 375 337 373 339 375 344 b 377 343 379 338 377 335 z m 669 511 b 666 502 660 495 658 483 b 648 475 643 464 637 454 b 631 446 625 438 618 431 b 613 425 606 421 603 413 b 602 411 599 410 596 408 b 589 405 583 400 580 393 b 578 386 572 383 567 380 b 558 377 552 370 540 363 b 537 359 535 353 530 350 b 525 348 520 347 516 344 b 511 341 507 336 501 336 b 500 336 499 337 496 335 b 489 326 484 323 472 320 b 469 319 466 318 463 317 b 452 310 417 293 404 293 b 401 294 398 294 396 294 b 392 294 389 293 383 294 b 387 301 388 310 400 317 b 405 325 410 333 413 343 b 415 348 417 354 424 358 b 429 360 433 368 433 374 b 433 382 439 386 441 393 b 443 397 446 402 449 405 b 452 410 455 415 459 419 b 470 429 478 441 485 454 b 489 461 493 467 498 473 b 510 487 524 499 536 513 b 541 518 545 523 549 528 b 556 535 565 540 574 544 b 583 548 594 552 601 560 b 607 566 611 567 619 567 b 624 566 628 570 632 570 b 633 570 633 570 634 570 b 636 572 639 572 641 572 b 644 572 646 572 649 572 b 651 572 654 572 656 574 b 663 571 670 568 676 558 b 676 554 676 549 676 543 b 678 532 672 522 669 511 z m 687 603 b 688 600 690 598 690 594 z m 701 617 b 703 616 705 615 703 610 z m 325 289 l 324 291 z m 302 262 b 299 261 297 259 302 262 z m 323 283 l 322 282 z m 326 280 l 328 281 z m 297 247 b 294 248 296 252 290 249 b 291 248 292 245 297 247 z m 328 297 l 327 296 z m 338 313 l 340 311 z m 298 270 l 297 271 z m 292 260 b 292 262 296 264 287 265 b 291 265 289 262 290 260 z m 327 270 l 326 271 z m 304 268 b 304 271 307 272 307 274 b 306 274 305 274 304 274 b 303 274 302 274 302 271 z m 290 260 l 288 256 z m 298 250 l 297 252 z m 465 524 b 463 525 461 527 457 528 b 459 527 462 526 465 524 z"},"3":{"x_min":0,"x_max":456,"ha":456,"o":"m 441 556 b 440 560 441 563 441 567 b 441 575 429 605 425 610 b 417 622 407 632 395 640 b 391 642 387 646 382 646 b 378 647 373 650 368 652 b 354 657 345 660 330 660 b 327 660 323 660 320 660 b 314 660 308 660 301 660 b 298 660 295 660 293 660 b 280 660 269 660 256 658 b 248 656 245 656 238 653 b 233 650 228 647 222 645 b 200 638 180 632 161 619 b 153 613 146 606 137 602 b 133 601 130 599 129 596 b 126 587 119 580 112 575 b 106 571 102 565 98 559 b 93 552 90 543 84 535 b 69 512 69 496 69 470 b 70 457 73 446 87 441 b 90 440 94 438 97 436 b 104 430 114 428 122 424 b 125 423 128 422 131 422 b 137 422 143 425 152 428 b 155 436 161 443 160 452 b 159 461 162 468 166 475 b 171 483 176 492 181 500 b 185 507 189 514 194 520 b 203 529 211 539 223 546 b 225 547 226 549 227 551 b 231 560 239 563 247 566 b 256 570 283 584 292 589 b 296 591 298 594 302 595 b 303 595 305 596 308 596 b 317 596 331 594 340 588 b 345 577 351 567 350 555 b 349 552 349 548 350 547 b 354 540 351 535 350 529 b 347 517 342 507 335 497 b 329 488 322 480 318 470 b 316 465 316 458 311 454 b 306 450 301 445 292 436 b 288 435 285 432 283 429 b 278 418 268 413 259 408 b 252 404 244 400 237 395 b 230 390 223 386 216 383 b 208 379 200 380 192 377 b 182 377 149 374 143 368 b 135 362 132 353 131 344 b 131 339 131 333 131 328 b 131 315 138 307 155 304 b 157 301 159 300 162 300 b 163 300 165 301 167 302 b 167 303 168 303 169 303 b 171 303 172 302 174 302 b 178 302 182 302 186 302 b 188 302 191 302 193 302 b 199 303 204 300 210 300 b 211 300 212 300 212 300 b 221 300 226 299 233 293 b 236 290 241 289 243 284 b 246 274 250 265 252 249 b 248 237 246 225 242 213 b 239 204 237 195 233 186 b 221 164 206 140 189 122 b 185 117 182 110 177 107 b 166 101 158 92 150 84 b 144 79 137 75 130 75 b 122 74 113 72 106 69 b 103 68 100 67 97 67 b 93 67 88 69 79 73 b 77 75 76 78 74 80 b 70 83 68 86 68 96 b 65 99 65 104 67 107 b 70 113 71 145 71 153 b 72 157 70 161 72 164 b 78 176 71 187 66 197 b 63 204 54 208 46 208 b 44 208 42 208 40 207 b 38 207 35 206 33 206 b 30 206 28 207 25 208 b 23 208 21 209 19 209 b 16 209 13 208 10 207 b 2 203 -5 200 -6 190 b -12 186 -14 178 -17 172 b -21 162 -25 152 -25 141 b -25 125 -24 109 -25 93 b -25 86 -21 81 -20 71 b -19 62 -13 56 -10 48 b 0 22 30 13 55 5 b 65 0 76 0 87 0 b 92 0 97 0 102 0 b 106 0 111 0 115 0 b 125 0 137 1 147 4 b 150 4 151 7 154 7 b 167 8 203 26 213 33 b 218 37 224 38 230 40 b 245 45 256 57 273 68 b 276 77 284 82 291 88 b 294 91 297 94 299 98 b 307 113 317 127 329 139 b 334 143 337 149 337 154 b 338 164 343 172 347 181 b 352 190 356 200 355 211 b 354 216 355 220 358 222 b 360 225 360 228 361 232 b 364 237 359 245 363 252 b 361 261 355 271 357 281 b 354 284 355 289 354 292 b 353 298 353 304 350 308 b 339 323 327 335 311 345 b 309 346 304 346 309 350 b 321 356 333 366 343 374 b 353 382 362 393 373 402 b 387 412 396 427 410 440 b 414 453 423 464 428 477 b 430 484 433 490 436 496 b 438 499 441 503 441 507 b 441 518 442 528 443 539 b 444 545 443 551 441 556 z m 125 485 b 124 486 124 489 127 492 b 130 491 129 488 130 483 z m 177 586 b 173 585 175 588 175 590 z m 153 526 b 153 523 151 522 149 521 z m 178 555 b 176 557 174 560 175 564 b 178 562 180 560 178 555 z m 197 571 b 199 569 201 569 199 564 z m 215 342 l 215 341 z m 20 81 b 19 82 15 81 17 86 b 18 83 23 85 23 79 z m 226 118 l 227 116 l 226 115 z m 295 317 b 291 317 293 320 291 326 z m 291 262 l 289 266 z m 268 222 l 272 226 b 274 224 276 222 277 219 z m 278 191 b 275 193 273 194 278 191 z m 267 350 b 269 348 272 346 271 341 b 268 341 264 346 266 349 z m 233 349 b 231 351 231 355 229 359 l 240 343 z m 253 305 l 253 302 z m 257 365 b 259 362 261 360 261 355 b 258 355 253 358 252 361 z m 254 327 b 254 331 257 333 263 328 b 265 324 263 322 258 322 b 254 322 254 322 254 327 z m 258 300 b 260 298 262 296 262 293 b 259 293 257 295 256 297 z m 254 147 b 253 149 248 147 258 149 z m 268 164 b 267 166 265 168 264 173 b 267 171 269 167 271 165 z m 282 150 b 280 152 280 147 285 157 b 285 154 287 153 285 146 z m 290 143 l 289 142 z m 291 206 b 292 206 293 206 295 206 b 296 206 297 206 297 203 b 298 200 295 199 293 197 b 293 196 287 203 287 205 z m 307 187 b 301 186 299 191 300 197 b 303 194 308 194 309 190 b 310 188 312 192 313 192 b 313 192 314 191 314 185 z m 326 228 b 326 228 324 228 324 228 b 322 228 321 228 321 230 b 320 234 316 233 314 235 b 311 237 310 240 315 242 b 320 243 322 242 326 228 z m 323 264 b 328 264 331 262 323 264 z m 310 274 b 306 273 301 278 295 288 b 297 287 299 290 301 290 b 301 290 302 289 303 288 b 305 284 311 284 313 278 b 314 274 314 274 310 274 z m 308 302 b 305 305 303 307 301 312 b 305 310 309 310 311 305 z m 379 479 l 378 478 z m 392 523 b 389 526 386 529 384 535 b 387 531 393 530 394 524 z m 400 512 b 402 516 396 516 400 521 b 401 518 404 517 403 513 z m 271 195 b 277 190 277 190 276 190 b 272 188 265 194 269 197 z"},";":{"x_min":0,"x_max":246,"ha":246,"o":"m 141 128 b 139 132 133 134 129 137 b 118 144 106 149 93 150 b 89 150 85 151 81 151 b 71 151 45 140 37 134 b 26 124 15 113 9 99 b 8 95 7 93 5 90 b -3 75 -2 60 3 45 b 8 32 14 19 32 4 b 27 0 25 -9 18 -12 b 11 -16 5 -22 1 -28 b -6 -38 -14 -46 -22 -55 b -26 -59 -31 -64 -30 -75 b -34 -81 -31 -85 -28 -90 b -22 -99 -12 -104 2 -108 b 19 -100 35 -91 48 -77 b 55 -69 62 -61 73 -56 b 77 -54 81 -50 85 -40 b 94 -31 100 -21 107 -11 b 114 1 122 11 128 23 b 132 32 137 40 141 49 b 147 62 149 76 148 90 b 148 94 148 96 148 98 b 151 110 143 118 141 128 z m 72 115 b 70 112 68 109 67 106 b 67 109 66 111 67 117 z m 53 36 b 53 40 49 39 46 44 b 48 46 46 49 52 48 b 51 43 54 42 58 37 z m 67 22 b 66 25 69 30 71 21 z m 69 78 b 64 77 64 80 73 78 z m 78 16 b 80 17 81 14 81 11 z m 79 67 b 78 69 79 72 80 76 b 82 73 84 73 87 64 b 84 64 81 65 79 67 z m 98 86 b 95 87 90 88 91 95 b 95 94 97 89 98 86 z m 111 102 b 108 102 105 104 104 109 b 106 106 110 107 111 102 z m 242 342 b 242 345 242 349 241 352 b 237 367 225 375 215 388 b 204 391 194 395 183 395 b 182 395 180 395 178 395 b 163 395 163 395 150 389 b 148 387 145 386 142 385 b 135 384 129 380 125 375 b 121 371 117 367 113 363 b 108 358 102 353 100 341 b 97 335 92 329 91 323 b 89 309 91 295 97 281 b 105 265 124 248 143 248 b 151 248 159 251 167 251 b 168 251 169 251 170 251 b 171 251 172 251 174 251 b 191 251 203 264 215 274 b 218 281 223 286 228 291 b 231 295 234 299 239 308 b 240 312 239 315 241 319 b 243 323 241 329 243 332 b 247 336 241 339 242 342 z m 140 312 b 139 311 132 316 133 321 b 138 321 141 319 140 312 z m 154 304 l 155 303 l 154 301 z m 184 361 b 185 361 186 362 187 362 b 188 362 189 361 188 357 b 186 358 184 359 184 361 z m 189 329 b 191 324 185 326 183 324 z m 201 313 b 198 314 196 316 198 321 z"},"J":{"x_min":0,"x_max":460,"ha":460,"o":"m 553 630 b 551 635 554 639 553 644 b 553 648 554 653 552 657 b 552 658 551 658 549 658 b 547 658 544 658 541 659 b 536 661 531 663 524 665 l 495 665 b 493 658 486 658 481 658 b 475 658 469 657 462 657 b 457 657 452 658 447 660 b 445 661 442 660 440 659 b 435 657 430 655 425 655 b 422 655 420 655 418 656 b 414 657 410 658 406 658 b 403 658 400 658 398 657 b 393 657 388 655 384 655 b 383 655 382 655 382 656 b 377 656 373 655 369 652 b 364 649 359 648 353 646 b 351 645 349 645 347 645 b 344 645 342 646 339 646 b 334 647 331 643 326 643 b 325 643 324 643 324 643 b 318 643 313 641 308 640 b 298 638 289 631 279 631 b 275 626 268 630 263 627 b 258 625 252 623 246 621 b 241 620 235 618 230 617 b 221 617 212 616 204 612 b 194 608 184 604 175 598 b 170 595 165 592 159 590 b 154 588 148 589 143 585 b 134 577 123 571 115 562 b 105 552 94 543 79 540 b 77 539 74 537 72 534 b 66 524 59 515 51 507 b 47 504 42 503 41 499 b 39 495 35 492 32 488 b 27 481 21 474 18 466 b 17 463 1 421 1 420 b 2 414 1 408 1 403 b 1 400 1 397 1 395 b -4 382 -1 372 6 361 b 9 357 12 354 14 350 b 17 347 18 342 20 338 b 21 334 23 330 28 329 b 36 327 43 323 50 318 b 53 316 57 314 61 314 b 66 315 70 314 75 313 b 81 311 87 309 93 309 b 95 309 96 310 98 310 b 101 310 105 311 109 311 b 112 311 114 310 117 309 b 120 308 123 307 126 307 b 133 307 139 310 145 311 b 157 314 169 320 182 320 b 187 319 191 323 198 330 b 198 337 198 343 197 353 b 192 352 190 357 186 358 b 182 358 177 358 172 358 b 168 358 163 358 159 357 b 154 355 149 352 143 352 b 139 352 135 354 129 358 b 126 357 124 360 121 361 b 117 363 114 368 110 370 b 106 371 104 375 105 378 b 106 382 100 384 103 390 b 108 398 107 404 107 415 b 106 420 106 426 111 430 b 115 434 117 440 121 444 b 125 447 128 452 130 457 b 134 467 139 476 147 484 b 153 489 159 494 169 501 b 172 509 180 512 187 515 b 195 518 201 523 207 529 b 215 536 224 543 232 549 b 236 552 241 554 245 557 b 250 560 255 564 261 564 b 267 564 271 567 275 571 b 281 576 284 576 292 579 b 299 581 307 581 314 586 b 318 588 322 591 326 592 b 331 594 335 598 341 598 b 342 598 343 598 344 598 b 348 602 354 598 358 603 b 363 601 367 608 372 607 b 375 607 378 607 380 607 b 384 607 387 607 390 607 b 392 607 394 607 396 607 b 400 607 404 608 410 607 b 407 600 401 595 395 591 b 389 586 385 581 383 574 b 380 566 377 557 368 553 b 366 552 365 550 363 547 b 358 539 353 531 346 524 b 341 519 339 514 337 508 b 336 502 333 498 325 494 b 319 483 312 473 308 461 b 305 453 302 445 297 438 b 293 433 288 427 287 420 b 286 411 282 405 278 398 b 275 394 273 389 270 385 b 266 380 266 374 263 369 b 262 366 263 363 261 355 b 247 331 234 308 224 282 b 223 279 225 275 224 272 b 215 259 208 243 203 229 b 200 222 200 214 196 208 b 192 201 189 194 185 188 b 181 182 178 177 179 169 b 180 159 177 151 168 145 b 165 142 164 139 164 134 b 164 128 161 118 157 110 b 152 97 145 85 140 71 b 135 56 130 40 122 26 b 120 22 117 18 116 13 b 115 5 112 3 105 3 b 99 3 93 3 88 0 b 80 -3 72 -3 65 -9 b 59 -14 52 -16 45 -17 b 39 -17 34 -19 29 -21 b 9 -26 -25 -39 -42 -51 b -52 -58 -62 -65 -73 -72 b -78 -76 -83 -79 -93 -81 b -95 -87 -102 -90 -104 -97 b -111 -119 -118 -140 -117 -164 b -116 -168 -115 -173 -112 -176 b -107 -181 -104 -187 -102 -194 b -100 -198 -98 -203 -94 -206 b -88 -209 -84 -215 -77 -216 b -67 -225 -56 -228 -44 -228 b -35 -228 -26 -231 -18 -235 l -8 -234 b -5 -232 0 -231 4 -231 b 17 -228 28 -225 39 -219 b 59 -210 78 -198 95 -183 b 102 -178 108 -173 112 -166 b 114 -164 117 -162 119 -160 b 125 -157 132 -154 133 -145 b 142 -134 148 -121 162 -114 b 165 -112 167 -108 168 -105 b 170 -97 174 -92 181 -84 b 186 -76 189 -68 194 -60 b 202 -48 210 -36 217 -23 b 220 -19 223 -15 230 -14 b 236 -12 243 -10 250 -7 b 255 -5 262 -4 265 2 b 269 10 277 11 283 17 b 291 17 319 28 322 36 b 324 40 327 45 332 47 b 337 49 341 51 346 53 b 356 55 363 61 369 70 b 374 76 381 78 385 83 b 390 89 394 96 400 100 b 405 103 408 108 414 110 b 416 111 418 114 419 117 b 422 127 428 136 437 142 b 448 149 456 159 462 170 b 467 181 473 191 482 199 b 485 202 487 206 488 210 b 492 222 493 234 503 244 b 504 250 503 257 500 262 b 498 267 494 270 488 272 b 484 273 480 273 476 273 b 475 273 474 273 473 273 b 470 273 468 273 466 274 b 464 271 460 272 459 266 b 458 260 455 254 450 248 b 447 244 441 240 441 234 b 440 226 434 221 429 216 b 427 214 425 212 423 209 b 418 203 413 197 409 191 b 405 182 404 180 397 174 b 394 171 390 168 388 164 b 380 150 380 150 368 142 b 359 135 348 130 341 122 b 333 114 325 108 315 103 b 312 102 308 99 306 97 b 299 87 289 82 277 82 b 277 87 281 90 280 95 b 283 97 281 101 283 103 b 289 110 290 120 294 128 b 299 138 300 151 312 164 b 315 169 317 175 318 180 b 318 187 324 190 325 196 b 331 216 339 234 348 253 b 351 259 356 264 359 271 b 363 286 371 300 377 315 b 382 325 388 335 392 345 b 394 348 395 351 395 356 b 394 363 397 369 402 374 b 406 377 408 381 409 384 b 410 398 416 410 421 421 b 426 431 430 441 433 451 b 435 460 438 468 445 474 b 448 477 451 481 452 485 b 454 490 455 494 457 499 b 460 508 464 516 470 524 b 478 536 487 549 491 564 b 493 571 494 579 501 582 b 506 585 509 588 512 592 b 522 602 534 609 545 617 b 548 619 552 619 553 621 b 554 624 554 628 553 630 z m 41 432 b 43 432 49 427 47 425 b 45 426 42 427 40 431 z m 50 385 b 49 388 46 390 52 384 z m 56 444 b 53 446 50 448 50 454 b 53 451 56 449 59 446 z m 64 402 b 63 405 64 408 61 411 b 65 411 70 407 69 401 z m 74 396 l 74 399 z m 83 449 b 81 449 80 451 79 451 b 78 451 77 450 80 456 b 83 456 85 454 85 450 z m 87 473 b 84 474 83 477 82 480 b 84 480 90 475 87 473 z m 115 -38 b 113 -34 109 -37 107 -35 b 105 -33 102 -31 108 -31 z m 70 -77 b 64 -87 57 -96 52 -106 b 44 -125 27 -138 11 -150 b 5 -157 -3 -160 -11 -160 b -14 -161 -17 -163 -20 -163 b -20 -163 -21 -163 -22 -163 b -27 -159 -33 -156 -40 -148 b -41 -142 -47 -138 -44 -132 b -45 -125 -44 -119 -33 -112 b -30 -108 -25 -105 -20 -104 b -11 -102 -4 -97 4 -92 b 6 -90 8 -88 12 -89 b 13 -89 14 -89 15 -89 b 19 -89 49 -81 55 -79 b 60 -78 63 -75 68 -73 b 70 -73 70 -68 73 -71 b 75 -73 72 -75 70 -77 z m 96 -77 b 98 -80 102 -77 101 -85 b 96 -84 94 -83 95 -80 z m 99 -108 b 100 -110 103 -111 102 -114 z m 103 -62 b 100 -61 106 -59 108 -62 z m 114 -102 b 113 -100 115 -97 116 -94 b 115 -97 119 -98 117 -103 z m 121 -80 b 125 -79 120 -76 131 -80 z m 387 505 l 386 506 z m 385 516 b 385 514 381 513 378 512 b 378 513 383 519 384 518 z m 382 487 b 383 485 383 483 380 479 b 378 481 378 483 378 486 z m 358 480 b 359 479 361 476 363 476 b 363 476 364 476 364 472 b 362 471 359 468 357 469 b 355 469 357 473 356 474 z m 352 415 b 356 421 358 422 358 422 b 359 422 359 421 359 420 z m 351 417 b 351 419 346 419 348 422 b 349 425 351 425 353 425 b 353 425 354 425 355 425 b 353 420 352 418 352 416 z m 350 487 b 351 485 352 483 348 487 z m 344 395 b 340 401 339 404 347 399 z m 342 394 b 338 394 340 397 339 399 z m 336 468 b 340 468 341 466 340 461 b 337 461 335 463 336 468 z m 332 442 b 336 442 340 439 332 442 z m 335 408 b 331 411 330 412 336 406 z m 306 351 b 306 348 304 348 299 349 b 300 352 304 350 305 353 z m 301 385 b 301 382 299 380 294 383 b 296 384 296 387 299 387 z m 294 324 b 296 328 297 329 299 329 b 300 329 302 328 303 325 b 304 322 305 322 307 322 b 308 322 309 322 312 322 b 311 317 308 315 304 308 b 303 311 305 316 299 315 b 297 319 297 319 294 324 z m 318 331 b 312 330 312 337 309 340 b 306 342 311 345 313 347 b 313 344 313 344 314 344 b 315 344 317 346 318 346 z m 320 318 l 319 319 z m 319 322 l 318 323 z m 284 341 b 287 341 289 338 288 332 b 283 334 281 334 284 341 z m 285 305 l 286 304 z m 264 268 b 265 267 265 267 266 267 b 268 267 269 271 273 274 b 275 274 274 270 279 270 b 280 268 277 264 275 265 b 274 266 273 267 272 267 b 270 267 270 263 264 268 z m 260 252 l 265 252 b 264 249 267 247 263 244 b 264 239 264 233 263 229 b 262 233 258 235 253 238 l 255 238 b 257 241 251 243 257 249 z m 239 259 b 239 261 238 265 242 264 z m 261 187 l 261 186 z m 237 175 b 238 177 241 178 243 180 b 243 177 244 175 245 175 b 246 175 247 176 250 173 b 245 174 242 172 243 166 z m 222 216 b 222 218 224 221 227 221 z m 221 196 b 219 193 220 191 218 188 b 217 190 215 192 218 199 z m 179 80 b 172 89 171 91 173 91 z m 172 86 b 175 83 177 81 177 79 b 175 78 173 81 172 86 z m 157 19 b 159 16 163 15 155 8 b 155 11 151 13 152 16 z m 145 -67 b 141 -65 138 -64 140 -56 b 142 -56 147 -62 145 -67 z m 137 -29 b 139 -29 140 -29 141 -29 b 144 -29 146 -30 147 -35 z m 163 -28 b 159 -26 156 -23 152 -19 b 150 -17 149 -13 152 -8 b 156 -11 158 -16 163 -17 b 166 -18 162 -23 168 -26 z m 171 -2 b 171 -2 170 -2 169 -2 b 168 -2 166 -2 169 9 b 167 4 175 6 171 -2 z m 180 -38 l 179 -43 z m 184 -17 b 184 -17 183 -17 182 -17 b 180 -17 178 -16 178 -14 b 177 -11 177 -9 181 -6 b 183 -8 185 -7 188 -15 z m 211 15 b 208 14 205 17 208 24 b 212 25 213 23 211 15 z m 221 8 b 218 9 217 11 215 13 l 217 15 b 220 15 223 15 221 8 z m 242 15 b 239 16 237 19 234 21 b 236 23 238 25 240 26 b 241 27 244 21 242 15 z m 249 38 b 256 35 254 33 252 32 z m 252 43 l 258 37 b 254 38 251 38 249 39 z m 246 63 b 243 65 241 66 239 67 b 239 62 243 50 247 46 b 250 43 245 43 246 41 l 243 41 b 242 46 238 46 234 46 b 236 41 235 42 231 38 b 227 35 221 35 213 29 b 214 32 217 34 217 35 b 216 36 215 36 214 36 b 212 36 210 36 205 34 b 204 30 202 27 186 29 b 187 25 192 24 194 19 b 190 18 188 16 178 26 b 182 26 183 29 179 48 b 175 49 172 52 176 60 b 179 56 183 52 188 52 b 193 55 193 55 191 63 b 190 65 189 67 186 71 b 185 73 182 74 195 79 b 192 80 190 83 193 85 b 193 83 194 82 194 82 b 195 82 197 86 198 84 l 200 89 b 197 89 198 92 195 96 b 194 96 193 95 192 95 b 189 95 186 97 183 101 b 180 103 181 105 188 108 b 190 106 192 102 198 94 l 202 99 b 204 99 207 98 209 103 b 206 106 208 110 204 113 b 200 116 200 117 214 123 b 219 125 218 127 212 131 b 212 132 211 132 209 132 b 208 132 207 132 209 135 b 210 136 209 141 219 139 b 221 144 223 144 227 144 b 227 144 228 144 229 144 b 226 150 227 153 234 159 b 230 159 232 162 231 163 l 234 159 b 241 155 237 149 239 142 b 244 143 244 143 253 140 b 253 136 247 137 242 133 b 241 134 240 134 240 134 b 239 134 238 131 238 130 b 241 130 244 130 248 125 l 248 127 b 253 127 256 127 261 128 b 263 126 264 119 256 119 b 253 120 252 124 248 125 b 247 123 251 119 244 109 b 249 109 248 102 253 96 b 251 97 250 96 248 96 b 247 96 246 96 245 98 b 244 99 243 99 242 99 b 241 99 239 99 244 92 b 247 86 247 86 246 79 l 249 79 b 248 75 250 73 254 70 b 257 70 260 71 262 69 b 265 67 262 63 264 59 b 266 57 261 58 260 56 z m 267 85 b 268 81 267 79 265 79 z m 270 47 b 270 50 267 52 277 52 z m 276 161 b 275 163 271 163 277 165 z m 275 193 b 275 198 271 196 255 215 b 251 219 246 221 241 230 b 243 231 244 233 245 233 b 245 233 246 232 255 224 b 255 221 257 221 258 221 b 259 221 260 221 260 221 b 261 223 257 224 265 225 b 265 223 267 219 263 219 b 260 214 268 213 266 209 l 275 201 b 276 200 278 195 277 194 z m 287 183 b 284 183 283 185 283 190 b 287 191 294 185 293 178 z m 291 206 b 291 209 284 211 290 216 b 293 214 295 211 294 208 z m 296 244 b 295 243 288 240 286 240 b 285 240 284 242 279 243 b 279 240 281 237 277 243 b 272 245 269 249 272 255 b 273 253 271 250 281 262 l 280 255 b 284 255 285 251 289 250 b 292 249 292 244 296 244 z m 308 223 b 305 224 303 227 307 233 b 309 231 310 228 308 223 z m 301 298 b 303 299 295 302 302 303 b 306 303 310 303 311 308 b 311 311 315 312 320 312 l 323 312 b 321 306 320 300 313 300 l 311 300 b 307 300 304 300 301 298 z m 315 246 b 314 245 313 245 313 245 b 311 245 310 248 308 252 b 306 251 303 255 300 255 b 299 255 298 254 297 252 b 297 252 295 257 296 259 b 292 261 295 265 291 267 b 290 264 289 261 287 263 b 287 264 286 268 284 274 b 281 275 281 279 276 279 b 272 279 272 286 270 291 b 271 291 272 291 274 291 b 277 291 279 291 282 293 b 283 291 287 289 283 286 b 285 285 283 281 294 286 l 287 298 b 289 299 292 299 294 299 b 296 299 299 299 301 298 b 300 294 296 295 294 293 l 294 291 b 295 290 296 291 296 291 b 298 291 299 290 300 288 b 302 291 302 295 306 295 b 309 295 311 293 311 290 b 306 289 303 288 301 288 b 311 286 308 285 294 286 b 295 284 289 283 287 281 b 286 278 283 277 284 274 b 285 276 287 271 288 271 b 288 271 289 272 291 275 b 292 274 292 274 293 274 b 294 274 295 277 299 276 l 296 276 b 297 273 294 269 300 268 b 303 268 300 264 306 259 b 305 255 312 259 313 255 b 317 255 319 253 320 250 b 321 246 316 248 315 246 z m 314 283 b 313 280 312 278 311 280 z m 318 279 b 318 277 317 276 315 276 b 315 276 314 276 312 276 b 315 280 317 281 317 281 b 318 281 318 280 318 279 z m 329 326 b 332 328 333 325 336 320 b 334 320 333 317 329 322 b 331 324 326 325 329 326 z m 337 348 b 336 346 336 344 334 344 b 334 344 333 344 331 346 b 330 346 329 344 329 344 b 327 348 326 352 324 352 b 321 353 319 354 322 357 b 320 358 317 358 316 361 b 315 363 311 361 311 365 b 311 368 307 369 309 375 b 313 373 317 368 322 367 b 321 363 330 363 328 357 b 327 356 330 353 333 353 b 337 354 338 351 337 348 z m 339 368 b 337 371 336 375 343 375 b 346 373 343 369 339 369 z m 350 330 b 348 331 346 333 351 330 z m 359 349 b 358 350 355 351 359 355 b 362 354 361 351 361 349 z m 365 379 b 367 380 370 377 368 372 z m 373 430 b 370 432 368 433 359 447 b 360 446 362 447 363 447 b 364 447 365 447 366 445 b 367 440 376 441 373 430 z m 379 392 b 378 394 371 393 378 400 b 377 397 380 396 379 392 z m 382 417 b 381 419 377 419 381 425 b 383 423 386 422 384 416 z m 383 445 b 380 447 379 450 387 447 z m 396 475 l 395 471 z m 396 492 b 395 492 394 492 393 492 b 391 492 390 493 390 496 b 390 502 391 504 402 501 b 402 498 398 496 396 492 z m 411 510 b 410 512 405 511 409 516 b 411 516 413 514 412 509 z m 407 543 b 407 545 410 548 410 540 z m 429 555 b 428 555 427 555 427 555 b 425 555 424 555 423 557 b 421 559 420 561 421 564 b 425 565 430 560 429 555 z m 431 580 l 432 579 z m 461 581 b 460 581 455 586 458 590 b 460 591 462 587 461 581 z m 256 158 b 253 159 251 160 249 160 b 248 160 247 160 244 160 b 248 163 242 164 246 167 b 248 169 249 170 251 170 b 252 170 254 169 256 165 b 259 163 255 161 255 159 z m 254 180 b 257 181 260 183 263 183 b 264 183 265 183 266 183 b 270 182 263 179 271 173 b 268 170 266 167 263 166 l 263 172 b 263 176 261 176 258 175 z m 237 202 b 230 203 230 204 239 207 b 239 204 240 203 242 203 b 243 203 244 203 253 197 b 255 198 256 199 257 199 b 258 199 258 198 258 195 b 259 192 257 190 249 187 b 243 188 240 192 239 199 z m 230 89 l 233 89 z m 204 65 l 206 65 z m 199 48 l 200 49 z m 198 42 l 199 46 z m 229 77 l 223 77 z m 231 42 b 230 45 234 45 232 51 z m 235 56 l 234 57 z m 211 51 l 212 51 l 212 47 l 210 52 z m 219 101 l 219 99 z m 215 98 l 215 106 b 211 105 211 103 213 97 z m 222 70 b 222 68 224 67 224 72 z m 216 53 l 218 53 z m 217 83 l 217 84 z m 207 43 l 210 40 z m 207 36 l 203 37 z m 238 67 l 237 69 z m 195 58 b 196 62 195 63 191 63 b 191 60 193 58 195 58 z m 203 55 b 202 58 201 58 200 58 b 198 58 197 57 195 58 b 196 56 195 53 196 53 b 197 53 198 54 199 55 z m 246 118 b 245 120 244 122 242 122 b 241 122 240 121 239 120 z m 206 43 l 205 45 z m 231 118 l 229 115 z m 242 77 b 239 73 239 73 242 77 z m 239 96 l 237 94 z m 200 94 l 203 91 z m 238 127 b 235 130 234 124 234 120 z m 220 130 b 219 126 220 125 223 125 b 224 125 225 125 229 125 l 229 127 b 226 127 224 129 222 131 z m 234 101 b 234 99 233 96 234 101 z m 227 132 b 226 138 225 139 219 139 b 221 136 223 134 227 132 z m 236 132 b 239 134 229 137 237 137 b 244 137 239 140 239 142 l 229 144 b 228 140 231 137 232 134 z m 279 243 l 277 243 z m 279 245 l 281 247 z m 320 311 l 319 310 z"},"V":{"x_min":0,"x_max":742,"ha":742,"o":"m 748 487 b 748 491 746 494 743 503 b 743 507 743 511 743 516 b 743 519 742 522 743 525 b 743 533 740 541 737 547 b 730 558 721 568 713 578 b 709 584 702 588 696 592 b 689 598 680 603 670 603 b 663 603 656 603 649 605 b 644 607 639 608 634 608 b 626 608 619 606 612 605 b 605 603 600 597 597 591 b 594 583 597 576 600 570 b 603 563 607 557 617 557 b 620 557 633 548 635 546 b 641 535 641 523 643 507 b 640 500 640 492 643 486 b 647 475 642 466 640 456 b 639 451 636 445 634 439 b 631 428 628 417 620 402 b 618 394 618 385 611 378 b 612 375 608 374 608 371 b 606 364 604 356 604 349 b 603 345 602 341 599 339 b 597 336 595 332 593 329 b 589 323 583 317 584 308 b 584 306 582 303 581 301 b 575 292 569 284 564 267 b 558 260 554 253 550 239 b 546 237 529 212 527 207 b 523 196 518 187 511 173 b 496 165 489 151 483 135 b 481 131 480 124 473 123 b 471 122 469 120 468 118 b 462 108 454 99 446 91 b 439 83 433 75 425 68 b 420 63 417 57 412 53 b 408 49 404 44 402 39 b 400 35 397 33 393 31 b 383 28 374 22 368 13 b 363 5 357 0 348 -2 b 337 -5 337 -6 323 -19 b 314 -22 304 -24 295 -28 b 293 -29 288 -25 289 -23 b 292 -17 292 -11 295 -5 b 297 1 300 8 301 14 b 301 21 303 27 306 32 b 311 40 312 49 313 57 b 314 66 315 74 318 83 b 320 91 324 99 323 110 b 327 118 328 127 331 135 b 333 142 338 149 337 156 b 336 163 339 169 340 175 b 341 178 342 184 345 187 b 351 191 351 197 353 203 b 354 205 353 208 354 211 b 359 222 362 233 362 249 b 366 253 366 258 369 262 b 373 265 373 268 373 272 b 373 277 371 283 375 287 b 378 301 386 313 389 327 b 392 344 398 367 404 383 b 405 387 408 391 409 395 b 413 406 416 418 419 429 b 421 439 424 451 431 459 b 436 466 437 473 440 480 b 445 492 445 506 450 519 b 453 529 456 540 462 550 b 468 558 471 567 474 577 b 477 589 480 602 491 611 b 494 614 496 619 495 624 b 495 627 495 631 495 634 b 496 638 494 640 491 641 b 485 643 480 646 475 648 b 467 653 460 658 451 658 b 449 658 448 658 446 658 b 444 660 442 660 440 660 b 437 660 434 659 431 658 b 427 658 422 664 411 663 b 407 663 403 663 399 663 b 396 663 394 663 391 663 b 384 664 378 660 370 660 b 367 661 363 661 359 661 b 356 661 353 661 350 660 b 344 659 337 659 328 654 b 323 655 318 656 313 656 b 305 656 297 654 288 652 b 282 650 276 646 269 646 b 263 645 256 643 250 642 b 245 641 241 639 236 639 b 229 639 222 639 215 638 b 207 633 174 621 165 620 b 157 618 150 615 144 610 b 139 606 134 604 129 603 b 121 602 114 598 109 594 b 104 590 99 588 94 586 b 90 585 87 583 84 581 b 74 575 63 568 53 562 b 47 558 41 553 37 547 b 31 539 24 532 17 526 b 7 520 -1 513 -10 497 b -16 491 -20 483 -26 477 b -30 471 -34 467 -35 455 b -38 445 -41 434 -48 425 b -50 422 -51 418 -52 415 b -54 404 -50 394 -49 383 b -41 375 -46 361 -35 354 b -36 352 -32 351 -33 348 b -33 343 -29 340 -24 332 b -19 333 -18 328 -15 327 b -10 326 -6 321 5 319 b 13 312 23 310 34 310 b 41 310 48 310 56 310 b 62 310 68 310 79 308 b 81 310 83 310 85 310 b 87 310 88 310 90 310 b 99 309 106 312 114 316 b 124 321 133 327 147 332 b 147 337 147 342 146 350 b 140 352 135 358 128 358 b 121 358 115 356 108 356 b 102 355 96 355 90 352 b 88 351 86 351 85 351 b 83 351 82 351 81 351 b 69 356 67 357 61 369 b 59 373 58 378 56 381 b 50 389 51 397 53 406 b 55 411 59 415 61 420 b 66 432 72 445 78 457 b 82 466 88 473 96 478 b 103 481 107 486 111 491 b 115 498 121 503 125 509 b 129 516 137 519 144 524 b 156 531 166 540 180 545 b 186 548 193 551 200 557 b 217 565 232 576 252 588 b 253 588 254 588 255 588 b 264 588 272 593 281 595 b 287 597 304 604 309 604 b 317 605 325 607 333 610 b 344 617 357 617 369 617 b 371 617 373 617 374 617 b 375 617 377 617 378 617 b 380 617 383 617 384 615 b 385 612 383 610 382 608 b 379 604 377 600 375 595 b 364 563 353 531 340 499 b 338 493 335 486 335 480 b 335 472 332 466 328 460 b 325 457 322 454 323 449 b 324 444 319 439 320 434 b 322 428 315 426 313 416 b 310 406 309 396 304 387 b 302 385 300 382 301 379 b 302 374 300 370 299 367 b 296 361 297 353 291 343 b 292 339 291 336 289 333 b 285 328 284 321 282 315 b 280 308 278 300 274 294 b 269 288 267 282 267 274 b 268 267 266 261 262 255 b 260 251 257 247 258 242 b 259 230 254 220 250 210 b 247 202 242 194 243 182 b 240 174 238 165 235 156 b 232 148 227 141 229 131 b 230 128 227 125 225 122 b 220 117 219 112 219 105 b 220 96 218 88 215 80 b 214 76 213 72 210 70 b 202 62 201 52 200 41 b 200 36 200 31 200 26 b 201 15 198 5 193 -5 b 191 -8 190 -10 191 -13 b 191 -18 191 -23 191 -28 b 191 -29 195 -40 195 -42 b 200 -52 210 -55 220 -60 b 225 -62 231 -63 237 -66 b 240 -67 245 -70 249 -70 b 250 -70 252 -70 253 -69 b 257 -67 260 -67 264 -67 b 266 -67 269 -67 271 -67 b 273 -67 274 -67 275 -67 b 277 -67 279 -67 282 -67 b 283 -67 284 -67 285 -67 b 296 -64 307 -62 319 -62 b 322 -62 325 -62 339 -52 b 363 -49 387 -36 406 -21 b 418 -11 430 -3 443 5 b 447 7 450 9 452 13 b 459 24 459 24 474 33 b 486 42 497 53 507 64 b 516 73 526 80 536 88 b 542 93 549 100 554 108 b 562 122 568 131 581 142 b 583 148 589 152 593 156 b 597 161 601 166 604 171 b 608 175 615 176 615 186 b 617 191 622 192 624 196 b 636 213 650 230 657 251 b 660 260 666 268 673 275 b 681 285 694 313 703 336 b 708 345 714 354 716 364 b 719 379 723 393 730 406 b 736 417 738 429 740 440 b 741 450 744 459 743 469 b 742 472 742 475 745 477 b 743 481 747 483 748 487 z m 432 567 l 433 565 l 432 564 z m 422 578 b 425 580 426 577 430 569 b 428 569 427 572 424 572 b 423 572 420 575 421 578 z m 410 526 l 411 528 z m -1 393 b 2 394 4 395 6 397 b 6 395 5 393 7 390 z m 369 454 b 371 454 376 445 374 442 b 372 444 370 447 366 451 z m 348 284 b 346 286 344 288 340 294 b 342 296 345 297 348 298 b 349 298 352 290 350 288 z m 350 312 b 348 314 349 317 349 320 b 352 319 354 317 353 312 z m 353 341 b 350 342 348 344 347 346 b 346 348 345 351 351 354 b 353 351 355 348 354 344 z m 360 370 b 362 369 360 365 357 369 z m 353 375 b 352 375 345 377 348 384 b 350 382 352 379 356 378 z m 334 394 b 338 393 340 388 342 386 b 339 384 333 388 334 394 z m 328 286 b 327 282 325 281 324 281 b 323 281 322 282 321 286 z m 301 218 b 307 215 307 214 306 214 z m 308 215 b 305 217 302 218 301 219 z m 307 300 l 306 301 l 307 303 z m 303 252 b 303 247 307 248 307 243 b 301 243 295 245 295 252 z m 281 180 b 282 175 285 176 288 175 b 289 175 291 171 287 168 b 286 168 285 168 285 168 b 283 168 282 169 282 171 b 281 174 278 176 280 179 z m 278 151 l 281 148 z m 265 138 b 265 135 262 134 258 136 b 258 138 262 137 263 139 z m 261 110 b 263 110 265 108 258 104 b 257 107 259 110 261 110 z m 236 41 b 239 40 241 39 239 34 b 236 35 234 36 234 39 z m 241 5 b 246 2 245 0 243 0 z m 243 62 b 245 63 246 66 251 63 b 251 60 247 60 248 57 z m 254 15 b 252 17 255 22 253 24 b 258 24 260 22 258 15 z m 263 70 b 262 70 261 70 260 70 b 259 70 258 70 258 72 b 258 76 262 77 263 79 b 265 77 267 75 263 70 z m 268 62 b 271 64 269 68 271 69 b 273 67 278 65 273 58 z m 274 96 b 275 94 278 95 279 93 b 277 92 275 90 273 89 z m 279 113 b 277 114 275 115 276 120 b 278 119 280 117 279 113 z m 291 109 b 289 107 288 105 285 107 z m 606 273 l 607 274 z m 608 244 l 607 243 z m 614 296 b 611 295 610 298 615 301 b 610 300 618 296 614 296 z m 636 332 b 634 334 631 335 633 341 b 636 340 637 337 638 332 z m 639 359 l 640 360 l 641 358 z m 649 346 b 649 350 654 347 656 348 b 656 346 657 343 649 346 z m 653 408 b 656 408 658 408 660 399 z m 695 457 b 696 454 698 462 699 457 b 700 454 697 453 695 457 z m 689 488 b 686 488 685 491 686 497 b 687 497 692 491 689 488 z m 672 512 b 674 509 678 509 680 504 b 675 507 672 510 672 512 z m 674 449 b 677 448 675 445 675 443 z m 671 511 b 679 502 679 501 678 502 b 674 504 672 506 671 509 z m 671 512 l 670 513 z m 668 330 l 667 330 z m 672 423 b 671 422 669 419 672 423 z m 682 409 b 678 407 677 411 675 415 z m 685 404 l 683 405 z m 693 392 b 691 395 690 399 685 403 b 699 391 698 390 696 390 z m 699 391 b 691 398 687 401 692 402 b 693 399 694 396 699 391 z m 699 418 b 696 419 694 420 695 428 b 698 426 700 424 699 420 z m 707 476 l 709 468 b 705 468 707 471 707 473 z"},"\"":{"x_min":0,"x_max":367,"ha":367,"o":"m 196 627 b 195 634 194 643 189 645 b 167 656 159 660 134 660 b 127 660 122 658 117 653 b 114 650 113 647 111 644 b 106 632 101 620 96 607 b 90 591 82 576 77 560 b 73 550 69 539 66 529 b 62 518 57 508 55 497 b 53 490 56 483 52 475 b 54 473 55 470 56 468 b 61 460 67 453 78 453 b 79 453 79 453 80 454 b 82 454 83 454 85 454 b 86 454 88 454 88 453 b 91 452 93 451 95 451 b 99 451 103 454 107 457 b 113 463 115 470 119 476 b 124 483 126 491 132 497 b 137 504 140 513 143 520 b 153 539 162 558 173 576 b 179 588 185 601 190 614 b 192 618 196 621 196 627 z m 325 645 b 310 652 296 660 279 660 b 278 660 277 660 270 660 b 262 660 258 658 252 653 b 250 650 248 647 247 644 b 235 621 220 584 212 560 b 209 550 205 539 201 529 b 198 518 193 508 190 497 b 189 490 192 483 188 475 b 189 473 190 470 192 468 b 197 460 203 453 213 453 b 214 453 215 453 216 454 b 217 454 219 454 221 454 b 222 454 223 454 224 453 b 226 452 229 451 231 451 b 235 451 239 454 242 457 b 248 463 251 470 255 476 b 259 483 262 491 267 497 b 273 504 275 513 279 520 b 288 539 298 558 308 576 b 311 581 331 621 331 627 b 331 634 330 643 325 645 z"},"7":{"x_min":0,"x_max":397,"ha":397,"o":"m 444 598 b 442 604 443 609 443 614 b 442 620 442 625 438 631 b 436 633 434 635 433 638 b 427 651 416 654 404 655 b 403 655 402 656 401 656 b 398 656 395 655 391 654 b 386 653 381 652 375 652 b 370 652 364 653 359 654 b 355 655 352 656 349 656 b 347 656 345 655 343 655 b 340 654 337 653 334 653 b 326 653 317 653 309 653 b 300 653 291 653 282 653 b 281 653 280 653 278 653 b 277 653 276 653 275 654 b 273 656 270 656 267 656 b 265 656 263 656 261 655 b 251 653 243 653 233 653 b 231 653 229 653 222 654 b 218 655 214 656 210 656 b 207 656 203 655 200 654 b 197 653 195 653 193 653 b 191 653 189 653 187 653 b 182 654 178 650 171 652 b 170 653 169 653 168 653 b 167 653 166 653 165 653 b 162 653 160 653 157 653 b 154 653 150 653 147 653 b 144 653 142 653 140 653 b 139 653 137 653 136 653 b 126 653 119 652 110 646 b 106 644 104 642 101 638 b 96 627 92 615 91 603 b 84 595 87 587 90 580 b 91 576 93 572 99 571 b 101 570 103 568 106 567 b 108 565 110 565 111 565 b 113 565 114 565 117 567 b 120 569 122 569 125 569 b 131 569 136 568 141 567 b 145 566 150 566 154 566 b 159 566 164 567 169 567 b 170 567 170 567 171 567 b 175 567 179 566 183 566 b 187 566 191 567 195 569 b 200 569 205 569 210 569 b 222 569 234 569 248 568 b 250 567 253 566 255 566 b 258 566 260 567 268 569 b 281 569 294 569 309 566 b 303 561 298 555 295 548 b 292 541 288 535 282 530 b 280 528 276 526 277 521 b 270 509 266 497 256 487 b 252 483 250 479 247 474 b 240 460 232 447 220 437 b 218 435 216 434 215 431 b 204 413 191 397 184 377 b 178 360 166 347 154 335 b 148 329 144 323 142 315 b 142 311 124 284 121 281 b 114 274 112 265 107 257 b 104 253 99 250 97 245 b 93 237 88 230 81 224 b 78 220 75 216 73 206 b 69 196 63 188 56 181 b 51 177 48 172 46 165 b 44 158 41 150 30 141 b 25 126 14 115 8 102 b 5 94 1 87 -5 82 b -7 80 -8 78 -10 75 b -13 68 -17 60 -21 52 b -24 48 -24 45 -21 40 b -18 33 -14 27 -11 20 b -8 6 36 -1 46 -1 b 47 0 48 0 50 0 b 51 0 52 0 53 0 b 63 1 70 5 73 15 b 75 22 77 29 81 36 b 90 53 99 71 113 94 b 118 98 120 104 121 110 b 121 115 123 120 127 123 b 130 126 132 128 135 131 b 140 135 143 141 145 147 b 148 162 157 174 166 186 b 168 189 169 192 172 195 b 175 197 177 199 179 202 b 187 216 195 229 204 242 b 208 249 211 257 216 262 b 222 269 224 277 229 284 b 236 294 242 306 252 315 b 256 319 259 324 262 329 b 265 333 266 339 268 344 b 270 350 276 353 279 359 b 287 372 295 385 311 399 b 318 418 349 464 364 477 b 369 482 373 488 377 495 b 380 502 385 508 391 514 b 400 525 408 536 417 548 b 424 556 430 564 437 572 b 444 582 448 591 444 598 z m 306 587 b 303 589 302 593 302 597 b 303 593 307 592 308 587 z m 56 82 b 52 82 55 87 54 89 b 57 89 61 87 56 82 z m 74 94 b 72 96 70 97 72 101 b 76 100 78 97 77 92 z m 94 137 b 91 138 90 141 89 144 b 93 144 94 141 95 137 z m 111 178 b 109 180 108 182 109 185 b 111 184 114 183 111 178 z m 140 215 l 136 212 z m 213 322 l 211 320 z m 270 443 l 271 442 z m 284 434 l 280 430 z m 304 499 l 304 497 z m 361 625 b 360 622 364 622 363 619 b 359 622 357 625 357 627 z m 360 617 b 358 618 356 620 356 626 b 362 618 362 617 360 617 z m 356 627 l 355 629 z m 336 591 b 333 590 336 585 330 591 b 330 593 331 593 332 593 b 333 593 334 593 335 593 z m 332 570 b 328 568 332 567 331 562 b 330 565 325 563 325 567 z m 342 603 b 341 606 344 609 348 612 b 349 609 352 606 351 601 b 348 601 346 602 345 602 b 345 602 344 602 343 601 z m 355 603 l 353 601 z m 362 598 b 364 598 366 595 356 592 b 358 594 360 597 362 598 z m 378 576 b 377 577 376 576 375 576 b 374 576 373 577 373 579 z m 373 604 b 374 610 368 610 369 617 b 372 617 380 609 378 603 z m 384 570 l 384 569 z m 397 584 b 394 584 387 593 390 596 b 393 593 398 592 401 584 z"},"S":{"x_min":0,"x_max":508,"ha":508,"o":"m 581 574 b 581 594 581 607 566 622 b 559 628 552 635 543 640 b 539 642 535 645 531 649 b 528 653 524 654 519 654 b 517 653 515 653 513 653 b 511 653 509 653 507 654 b 498 656 490 658 481 658 b 476 658 472 658 468 658 b 464 658 460 658 453 661 b 451 658 449 658 447 658 b 445 658 443 658 441 658 b 437 659 433 657 431 655 b 425 651 419 649 412 649 b 405 649 402 648 396 645 b 394 644 392 642 390 642 b 379 638 372 632 367 625 b 361 616 355 607 345 602 b 342 600 340 598 337 596 b 325 585 304 545 299 529 b 293 515 290 500 288 485 b 288 483 287 480 287 477 b 285 470 280 463 284 456 b 287 448 285 443 281 436 b 280 434 277 432 279 429 b 282 423 279 417 281 412 b 285 403 282 395 283 386 b 278 377 281 368 286 355 b 285 342 290 330 288 317 b 287 311 288 305 291 300 b 293 296 292 293 293 289 b 294 281 290 272 295 260 b 289 253 284 245 275 241 b 269 239 265 234 262 229 b 259 225 257 219 252 216 b 248 213 247 207 242 205 b 235 202 229 198 222 186 b 218 181 213 177 209 172 b 205 169 202 165 201 160 b 200 154 197 149 190 146 b 188 145 185 143 183 140 b 181 136 179 130 174 128 b 163 125 118 67 112 56 b 110 54 108 50 104 52 b 102 53 103 57 103 59 b 103 63 102 68 104 71 b 107 77 107 85 110 91 b 112 98 113 106 115 113 b 119 124 121 135 129 143 b 131 145 132 148 132 152 b 133 160 136 168 143 174 b 148 178 150 183 151 189 b 152 194 153 197 158 204 b 165 215 169 227 177 237 b 180 241 182 246 177 251 b 165 263 155 272 141 281 b 138 284 134 286 130 288 b 122 289 115 291 108 291 b 104 291 100 291 97 288 b 93 280 85 275 79 269 b 65 252 53 235 42 216 b 35 207 31 196 29 185 b 28 178 26 173 22 167 b 19 164 15 160 15 155 b 15 153 5 116 4 114 b 1 107 3 100 3 93 b 8 88 4 83 2 78 b -1 74 1 70 -2 66 b 2 62 -1 55 3 51 b 6 49 6 45 4 42 b 1 37 3 33 5 27 b 7 20 11 13 10 4 b 9 -2 11 -7 14 -12 b 18 -17 22 -22 25 -28 b 32 -30 32 -36 34 -42 b 36 -46 36 -46 29 -61 b 28 -72 21 -79 15 -87 b 12 -90 10 -93 9 -98 b 8 -102 8 -108 5 -113 b -4 -127 -5 -141 -5 -157 b -8 -165 -10 -172 -10 -180 b -10 -183 -9 -186 -11 -189 b -16 -196 -5 -201 -6 -208 b 0 -210 6 -211 12 -211 b 15 -211 19 -210 25 -208 b 30 -203 33 -198 34 -190 b 34 -181 32 -172 38 -164 b 37 -159 41 -155 41 -150 b 41 -141 47 -128 52 -119 b 58 -106 65 -94 70 -80 b 71 -77 72 -76 73 -76 b 74 -76 75 -76 76 -77 b 83 -82 92 -84 100 -88 b 102 -89 104 -88 107 -90 b 117 -100 130 -101 143 -103 b 144 -103 145 -103 146 -103 b 153 -103 159 -101 166 -100 b 169 -100 173 -100 176 -100 b 182 -100 188 -100 193 -100 b 200 -100 212 -95 219 -92 b 222 -90 224 -86 229 -86 b 240 -86 249 -81 258 -77 b 268 -72 277 -66 288 -63 b 294 -60 310 -51 314 -47 b 322 -41 332 -37 337 -27 b 340 -21 343 -15 350 -13 b 356 -11 358 -6 360 -1 b 364 7 368 14 374 21 b 382 32 392 44 392 60 b 398 70 399 82 403 92 b 407 100 407 110 413 118 b 416 123 417 129 414 135 b 412 139 413 143 414 147 b 415 152 419 158 417 163 b 415 169 417 175 415 180 b 412 184 412 189 413 192 b 417 202 414 212 415 228 b 410 241 407 254 408 267 b 408 270 408 273 408 276 b 408 281 408 285 406 291 b 404 296 404 304 409 309 b 413 315 415 322 423 324 b 423 328 429 325 430 330 b 430 334 435 336 437 339 b 443 346 446 355 455 359 b 461 362 465 369 470 373 b 470 382 477 387 483 391 b 491 395 491 404 497 409 b 496 414 500 415 504 417 b 521 426 528 442 535 459 b 538 463 540 468 544 471 b 551 476 556 484 561 491 b 565 495 567 500 566 505 b 566 509 570 517 572 521 b 574 525 579 528 578 533 b 577 548 583 562 581 574 z m 93 225 b 90 224 93 219 85 222 b 84 224 88 226 91 226 z m 86 170 b 87 170 87 166 89 165 b 87 164 86 161 82 165 b 81 168 83 170 86 170 z m 74 184 b 74 181 78 180 70 177 z m 68 157 b 70 156 73 153 70 149 b 65 149 63 149 62 151 b 62 153 65 157 68 157 z m 66 121 l 67 122 z m 54 138 b 56 136 58 134 58 130 b 55 131 53 133 54 138 z m 49 82 b 50 79 53 77 51 71 b 51 76 45 75 46 83 z m 55 42 b 58 39 60 37 61 36 z m 33 130 b 34 129 37 121 34 119 b 30 122 32 126 31 129 z m 34 29 b 33 32 36 33 38 32 b 39 30 36 29 35 27 z m 53 -17 b 50 -14 47 -12 44 -7 b 45 -9 47 -9 49 -9 b 51 -9 52 -9 55 -18 z m 57 8 b 56 12 51 11 50 20 b 55 20 56 18 57 17 b 59 15 54 14 62 8 z m 65 34 l 65 33 z m 62 37 b 55 44 55 46 66 34 z m 81 53 b 83 51 80 47 81 44 b 78 46 76 48 74 50 z m 77 22 l 79 22 b 80 22 81 22 82 22 b 83 22 84 22 84 20 b 84 16 79 18 78 15 z m 97 28 b 95 28 96 32 97 28 z m 96 126 l 94 127 z m 107 176 b 106 175 104 172 101 177 z m 387 322 b 391 321 387 318 387 313 b 385 312 382 315 382 318 b 382 321 387 319 387 322 z m 389 259 b 388 258 381 255 382 260 z m 360 185 b 360 187 363 190 364 183 z m 342 396 b 345 395 347 391 343 384 b 342 385 336 384 339 392 b 333 393 329 397 329 407 b 335 405 336 399 342 396 z m 359 348 b 360 345 361 341 361 337 b 357 337 354 340 359 348 z m 357 255 b 362 256 366 253 358 247 b 358 250 354 251 355 254 z m 354 310 b 357 312 359 313 361 313 b 363 313 365 311 364 306 z m 346 253 l 346 257 b 345 262 348 263 353 265 b 353 261 353 258 351 255 z m 350 248 l 350 247 z m 345 197 b 342 198 343 201 353 205 b 353 203 347 197 345 197 z m 346 240 b 340 241 336 243 336 246 b 337 248 338 248 339 248 b 341 248 342 248 343 247 b 346 245 346 243 346 240 z m 330 371 b 336 366 335 366 334 365 z m 326 350 b 327 347 324 346 319 348 b 319 352 321 356 326 356 b 326 356 327 355 326 353 z m 327 320 b 329 318 332 319 333 315 b 330 315 332 309 328 310 b 325 311 324 314 324 318 z m 332 339 b 329 339 328 341 327 343 b 329 345 330 348 335 348 b 337 346 335 342 339 340 b 336 340 337 336 332 339 z m 335 305 b 337 307 339 308 340 308 b 342 308 344 306 346 294 b 340 296 337 298 335 305 z m 348 319 b 349 322 346 323 345 324 b 342 327 344 329 350 323 z m 346 293 b 353 291 351 290 346 290 z m 337 281 l 336 280 z m 357 317 b 355 314 354 312 353 311 z m 349 380 b 351 381 357 379 355 375 z m 352 355 b 354 354 356 352 341 353 b 346 361 348 361 348 359 b 348 356 350 356 352 355 z m 327 375 b 315 384 316 385 320 387 b 322 383 326 380 329 376 z m 326 260 b 327 256 323 258 321 262 z m 331 286 b 331 282 333 279 331 275 b 328 277 330 282 325 282 z m 332 253 b 335 252 333 249 333 246 b 330 249 332 251 332 253 z m 334 244 b 346 237 345 236 341 236 b 341 239 341 241 334 244 z m 347 142 b 340 143 339 144 339 149 b 338 151 337 154 341 154 z m 348 171 b 353 171 356 168 354 161 b 352 163 350 166 347 168 z m 355 211 l 353 211 z m 354 219 b 351 221 355 226 348 233 b 352 234 355 231 359 231 b 360 231 361 231 360 228 b 358 225 355 223 354 219 z m 362 208 l 361 209 z m 372 245 b 371 241 376 240 374 237 b 373 236 373 235 372 235 b 370 235 369 239 365 241 z m 373 250 l 374 252 z m 377 297 b 376 296 374 295 373 295 b 372 295 370 296 370 298 z m 366 334 l 365 335 z m 374 358 b 369 360 365 364 367 368 b 370 367 373 365 375 364 z m 365 550 b 368 551 370 551 365 550 z m 352 469 b 353 469 361 465 357 461 b 355 463 353 466 352 469 z m 346 445 b 347 444 348 445 350 445 b 351 445 352 444 353 443 z m 345 415 b 339 417 336 419 339 425 z m 334 486 b 331 486 329 488 331 493 z m 326 443 b 327 440 325 437 322 434 b 321 438 318 440 322 445 z m 307 166 b 308 152 305 139 300 119 b 301 107 295 95 295 82 b 290 74 291 63 282 56 b 280 55 279 52 279 49 b 275 30 252 3 235 -8 b 230 -12 225 -17 221 -22 b 217 -26 212 -28 203 -33 b 194 -35 184 -36 174 -40 b 173 -40 171 -40 170 -40 b 163 -40 156 -43 149 -43 b 140 -43 133 -40 127 -34 b 125 -32 123 -29 120 -27 b 115 -24 120 -19 116 -15 b 116 -15 117 -11 119 -9 b 127 0 134 11 143 21 b 155 34 165 48 178 60 b 183 65 186 71 189 77 b 192 81 195 85 200 87 b 205 90 210 95 211 100 b 212 109 218 113 225 115 b 231 118 235 123 238 128 b 244 140 254 147 263 157 b 269 158 271 163 273 167 b 278 181 290 188 305 195 b 304 190 308 186 307 181 b 307 177 307 172 307 166 z m 312 419 b 311 422 314 423 315 425 b 317 423 319 421 319 418 b 320 414 315 417 313 414 z m 321 202 b 325 202 328 197 319 201 z m 327 220 b 324 222 322 226 321 233 b 322 233 331 224 329 221 z m 337 219 b 340 216 341 214 335 209 b 334 212 332 215 331 218 z m 340 125 b 341 125 342 126 343 126 b 344 126 345 125 345 124 b 341 124 341 121 335 121 b 336 124 332 124 334 126 z m 337 37 l 337 34 z m 343 58 b 346 58 348 56 347 51 z m 354 104 b 354 104 348 109 351 113 b 353 113 355 110 354 104 z m 361 128 b 356 126 359 133 355 133 b 350 133 350 138 350 142 b 354 141 356 139 356 137 b 358 134 362 137 362 133 b 366 133 364 127 368 122 b 368 127 362 125 361 128 z m 368 90 b 365 89 362 92 364 99 b 367 100 370 96 368 90 z m 376 169 b 374 171 374 174 372 177 b 373 179 375 176 376 176 b 377 176 377 177 379 174 z m 380 140 l 380 138 z m 377 199 b 377 205 374 207 369 210 b 367 211 366 214 368 219 b 369 216 375 218 375 213 b 374 208 380 206 384 198 z m 503 518 b 500 511 495 504 489 498 b 485 494 483 488 480 483 b 471 468 461 453 450 439 b 442 430 434 419 427 409 b 422 401 417 393 408 388 b 403 385 400 378 394 373 b 394 384 391 395 389 407 b 388 416 384 426 387 435 b 386 447 389 458 391 468 b 392 476 393 483 394 491 b 396 507 399 523 408 538 b 410 542 416 540 415 545 b 421 552 423 562 430 568 b 430 573 434 576 437 578 b 443 582 449 587 453 592 b 456 595 460 592 462 596 b 463 596 464 595 464 595 b 467 595 470 598 473 599 b 477 599 481 603 486 603 b 490 603 494 600 499 601 b 502 601 504 598 504 596 b 503 591 507 586 507 581 b 506 575 505 570 509 565 b 510 563 510 560 508 558 b 505 553 507 547 506 542 b 513 533 507 525 503 518 z m 346 255 l 346 257 z m 362 132 l 361 131 z"},"}":{"x_min":0,"x_max":353,"ha":353,"o":"m 403 708 b 397 714 391 718 379 725 b 377 725 376 725 374 725 b 366 725 358 728 349 728 b 348 728 347 728 346 728 b 343 727 340 727 337 727 b 332 727 327 728 316 727 b 313 725 310 724 307 724 b 304 724 301 725 298 726 b 293 727 288 727 284 727 b 282 727 281 727 279 727 b 278 727 276 727 275 727 b 270 728 265 726 261 723 b 249 712 240 700 235 683 b 234 680 232 676 234 673 b 236 669 240 667 243 666 b 251 664 259 664 268 663 b 270 665 272 665 274 665 b 276 665 278 664 280 664 b 282 664 283 665 284 665 b 286 667 288 667 289 667 b 293 667 296 665 299 665 b 308 664 313 658 316 650 b 319 643 315 638 307 627 b 306 620 303 613 300 606 b 296 595 294 583 288 573 b 285 568 281 563 279 558 b 278 553 275 548 273 543 b 271 537 268 532 266 525 b 265 518 262 509 252 497 b 249 489 247 481 242 474 b 231 458 229 447 226 435 b 223 427 221 419 215 412 b 210 408 207 403 206 397 b 204 388 201 380 198 371 b 193 359 188 348 183 335 b 180 328 178 320 178 311 b 178 302 181 294 187 287 b 189 285 192 284 193 281 b 193 278 197 278 199 276 b 202 272 202 271 198 269 b 194 267 189 265 185 263 b 176 258 168 252 159 248 b 152 244 146 240 138 228 b 128 219 122 207 116 196 b 112 189 109 181 105 174 b 103 169 101 165 101 160 b 101 155 100 150 97 146 b 92 141 90 133 85 125 b 85 119 82 115 81 111 b 79 106 78 101 75 99 b 71 95 74 89 70 85 b 65 78 62 69 57 62 b 55 57 53 54 53 49 b 54 41 48 35 47 24 b 44 18 42 11 34 9 b 31 7 32 1 27 0 b 24 -1 21 -3 17 -4 b 11 -8 10 -8 7 -7 b 6 -7 5 -7 4 -7 b 3 -7 2 -7 1 -7 b -2 -7 -4 -7 -6 -6 b -9 -5 -11 -4 -13 -4 b -19 -4 -23 -7 -28 -10 b -39 -17 -47 -26 -54 -36 b -60 -45 -56 -55 -50 -71 b -50 -73 -49 -74 -48 -74 b -47 -74 -46 -74 -41 -72 b -40 -72 -39 -72 -38 -72 b -35 -72 -33 -72 -31 -72 b -27 -72 -22 -71 -17 -69 b -16 -69 -15 -69 -14 -69 b -12 -69 -11 -69 -11 -69 b -9 -71 -7 -72 -5 -72 b -3 -72 -1 -71 1 -72 b 2 -72 3 -72 5 -72 b 11 -72 16 -71 22 -69 b 31 -68 39 -67 47 -67 b 49 -67 52 -67 57 -66 b 70 -58 84 -54 97 -46 b 105 -41 111 -34 118 -27 b 121 -24 122 -21 123 -16 b 124 -9 126 -2 132 4 b 135 6 137 10 137 12 b 137 19 141 24 140 29 b 139 33 141 35 142 37 b 148 44 151 54 157 61 b 160 65 162 69 163 74 b 165 78 166 83 169 87 b 171 89 172 93 174 96 b 178 106 180 116 186 125 b 189 129 191 133 190 138 b 189 145 193 151 198 155 b 203 160 205 166 207 172 b 208 177 213 188 215 193 b 220 201 228 208 232 217 b 237 227 248 230 255 238 b 262 239 265 246 269 251 b 272 255 274 261 267 272 b 266 282 264 291 264 301 b 264 305 265 308 267 311 b 271 316 275 322 276 329 b 278 335 281 342 284 348 b 288 360 292 372 299 383 b 306 392 310 403 310 414 b 310 419 312 422 314 426 b 319 432 322 439 325 447 b 327 455 330 465 335 472 b 342 482 345 492 349 503 b 351 510 353 517 357 523 b 361 529 364 535 366 541 b 368 547 372 553 375 558 b 378 561 380 565 381 570 b 384 580 388 589 394 598 b 397 602 400 608 401 613 b 401 618 404 622 404 627 b 409 631 403 638 408 642 b 409 654 416 665 413 677 b 415 688 414 698 404 705 z m 142 160 b 146 155 146 154 146 154 z m 142 161 l 141 163 z m 240 367 b 241 366 243 365 243 360 b 240 362 238 364 238 366 z m 346 651 l 344 652 z m 346 650 b 352 643 351 642 349 642 b 350 645 346 646 346 650 z m 348 616 l 350 615 z m 347 651 b 349 649 351 647 353 645 b 350 647 347 649 346 650 z m 364 634 l 364 632 z"},"Z":{"x_min":0,"x_max":579,"ha":579,"o":"m 801 658 b 800 658 799 657 798 657 b 792 657 787 661 780 660 b 778 660 775 660 773 660 b 769 660 764 660 760 660 b 757 660 755 660 752 660 b 747 660 742 660 736 655 b 734 655 733 656 732 656 b 725 656 719 653 712 653 b 711 653 710 653 709 653 b 702 653 697 652 692 646 b 689 642 673 638 668 638 b 667 638 667 638 666 638 b 664 636 662 636 659 636 b 657 636 656 636 655 635 b 652 632 649 631 646 631 b 644 631 643 631 641 631 b 637 631 633 632 629 632 b 627 632 624 632 622 631 b 618 629 614 628 611 628 b 608 628 606 629 604 629 b 593 633 581 633 569 636 b 564 636 558 636 553 636 b 552 636 551 636 550 636 b 544 637 538 639 531 639 b 529 638 527 638 525 638 b 523 638 521 639 519 641 b 509 641 501 644 492 646 b 483 647 474 648 465 648 b 463 648 460 648 454 649 b 446 652 438 656 430 656 b 428 656 427 656 422 656 b 415 659 407 660 399 660 b 394 660 390 658 385 658 b 378 657 372 660 365 660 b 362 660 358 660 354 660 b 348 660 343 660 338 660 b 336 660 334 660 331 660 b 327 660 322 660 312 655 b 309 655 307 655 304 655 b 302 655 300 655 298 655 b 292 656 288 654 283 652 b 278 650 274 648 269 648 b 269 648 268 648 267 648 b 261 649 256 646 251 644 b 249 643 246 642 244 641 b 237 639 232 636 226 632 b 220 627 216 622 210 618 b 197 610 179 585 174 570 b 171 561 169 552 165 543 b 165 526 164 510 173 495 b 175 491 177 488 177 483 b 177 481 178 477 182 475 b 196 470 206 458 219 453 b 224 451 227 447 232 446 b 238 446 243 444 248 444 b 250 444 253 444 255 444 b 260 444 265 444 270 442 b 274 441 277 440 280 440 b 290 440 297 446 307 460 b 310 462 310 466 309 468 b 307 472 308 478 303 480 b 298 482 293 485 287 485 b 286 485 285 485 284 485 b 283 485 282 485 281 485 b 278 485 276 485 274 485 b 272 485 271 485 270 485 b 266 484 262 486 259 488 b 252 492 247 499 242 506 b 241 507 238 510 239 513 b 241 517 236 519 237 523 b 238 526 239 529 240 533 b 242 541 244 549 249 556 b 253 563 258 568 265 572 b 268 574 272 572 274 575 b 276 580 285 586 290 588 b 299 591 307 594 316 598 b 319 599 322 601 326 600 b 329 599 331 603 334 603 b 336 602 338 602 340 602 b 342 602 344 602 345 603 b 348 603 351 606 354 605 b 359 603 363 602 368 602 b 373 602 377 603 381 603 b 382 603 384 603 385 603 b 386 602 387 602 388 602 b 390 602 391 603 392 603 b 396 605 399 605 403 605 b 407 605 412 604 417 602 b 420 600 423 600 426 600 b 429 600 431 600 434 602 b 436 603 438 604 440 604 b 443 604 446 603 448 601 b 453 598 458 597 464 598 b 471 598 478 601 485 601 b 489 601 497 599 499 597 b 502 594 506 593 510 593 b 512 593 514 593 516 593 b 528 593 540 590 552 590 b 554 590 555 590 556 590 b 560 590 563 590 566 590 b 568 590 570 590 573 587 b 565 582 559 576 553 567 b 548 560 540 554 531 550 b 528 549 525 548 521 545 b 513 539 507 530 501 521 b 499 518 497 517 494 515 b 490 513 484 508 482 505 b 479 498 474 494 469 490 b 457 482 456 482 449 473 b 442 463 435 451 426 442 b 422 438 417 435 412 432 b 411 431 397 413 396 410 b 395 406 392 404 389 401 b 386 399 383 396 381 393 b 378 389 375 386 374 381 b 373 378 368 377 368 373 b 357 367 338 342 333 330 b 330 322 325 314 318 310 b 314 308 312 305 312 303 b 310 294 305 287 298 281 b 294 277 291 272 287 268 b 284 264 283 257 276 257 b 276 252 272 251 271 247 b 268 238 262 231 254 226 b 249 223 247 218 244 214 b 239 204 239 203 228 193 b 223 185 217 178 213 169 b 210 161 198 153 189 153 b 184 153 179 155 173 159 b 168 162 163 164 158 163 b 149 163 140 164 132 169 b 130 170 129 171 127 171 b 126 171 125 170 123 168 b 121 165 116 166 114 161 b 113 158 112 154 110 150 b 107 143 110 139 118 135 b 126 131 134 127 143 127 b 143 127 144 127 150 127 b 156 127 159 121 165 119 b 162 116 160 112 158 109 b 155 106 153 103 149 101 b 146 100 144 99 143 97 b 139 91 133 89 128 87 b 122 85 117 82 111 80 b 101 75 91 72 80 72 b 72 72 67 76 62 81 b 58 85 57 89 60 93 b 62 97 63 101 66 105 b 68 107 69 111 69 115 b 70 121 69 128 66 134 b 64 137 66 141 63 144 b 59 148 52 151 46 151 b 44 151 42 151 41 150 b 33 146 26 142 21 134 b 14 123 8 110 -3 96 b 1 88 -1 81 -1 73 b -1 66 2 59 3 53 b 5 44 11 37 17 30 b 29 14 39 9 61 7 b 73 2 86 2 98 0 b 104 0 109 1 115 2 b 120 3 125 5 130 5 b 131 5 132 5 133 5 b 134 5 135 5 135 5 b 141 5 145 11 153 12 b 168 19 180 24 195 33 b 200 37 206 38 211 43 b 219 51 230 56 240 66 b 248 59 257 54 261 42 b 261 39 263 37 266 36 b 272 33 278 29 283 25 b 290 20 296 15 301 7 b 306 0 312 -6 320 -10 b 327 -14 335 -19 339 -28 b 340 -31 343 -35 347 -36 b 357 -38 363 -43 370 -55 b 375 -54 377 -58 380 -60 b 386 -63 425 -87 426 -93 b 428 -98 434 -98 438 -101 b 442 -104 447 -105 451 -108 b 455 -110 458 -113 462 -115 b 470 -120 480 -123 487 -130 b 488 -132 492 -134 495 -134 b 506 -137 517 -142 527 -148 b 534 -152 540 -155 547 -155 b 555 -156 561 -159 572 -168 b 573 -168 574 -168 574 -168 b 581 -168 587 -171 593 -171 b 595 -171 596 -171 602 -172 b 608 -172 613 -173 618 -173 b 622 -173 627 -172 631 -171 b 639 -169 646 -165 654 -165 b 655 -165 657 -165 658 -165 b 659 -166 660 -166 662 -166 b 670 -166 677 -162 688 -155 b 690 -148 696 -145 706 -141 b 711 -136 716 -133 720 -128 b 721 -126 724 -124 726 -122 b 730 -121 732 -119 743 -107 b 748 -97 752 -86 753 -75 b 753 -72 753 -70 752 -65 b 745 -65 741 -60 735 -60 b 735 -60 734 -60 733 -60 b 731 -60 728 -60 725 -58 b 724 -57 723 -57 722 -57 b 718 -57 714 -60 712 -63 b 709 -68 705 -70 699 -72 b 694 -73 689 -77 684 -79 b 678 -82 672 -86 664 -86 b 664 -86 663 -86 662 -86 b 661 -86 660 -86 658 -86 b 657 -86 655 -86 653 -86 b 650 -86 646 -86 643 -84 b 641 -84 640 -83 638 -83 b 635 -83 633 -84 630 -85 b 628 -86 626 -87 624 -87 b 621 -87 619 -86 617 -85 b 605 -81 594 -79 582 -77 b 572 -75 561 -72 553 -66 b 544 -61 536 -58 527 -55 b 517 -52 507 -49 499 -42 b 491 -35 482 -31 473 -27 b 465 -23 458 -18 451 -14 b 446 -11 443 -7 438 -4 b 431 0 424 5 417 9 b 409 12 403 19 395 24 b 389 27 382 29 377 34 b 371 40 364 42 351 48 b 341 55 333 62 325 70 b 322 72 320 75 318 76 b 308 83 298 90 288 97 b 285 99 281 99 281 102 b 281 105 283 108 287 114 b 295 121 300 131 309 138 b 311 140 312 142 314 144 b 319 152 324 159 333 162 b 338 164 340 167 343 171 b 348 179 352 187 357 194 b 359 197 361 200 364 202 b 372 205 377 211 379 220 b 380 223 382 228 388 229 b 390 230 392 232 394 234 b 398 238 398 243 402 253 b 412 262 417 274 428 281 b 438 289 445 300 454 309 b 457 313 458 320 463 323 b 462 333 471 338 475 345 b 480 352 488 358 494 366 b 499 373 508 378 512 387 b 519 389 520 395 520 400 b 520 405 523 408 526 410 b 536 415 542 425 550 432 b 552 435 556 438 556 441 b 556 447 559 450 563 451 b 568 453 570 459 577 461 b 582 470 591 476 596 484 b 598 488 602 492 606 494 b 608 495 629 514 631 516 b 640 530 651 543 666 550 b 675 553 677 557 685 567 b 691 570 695 575 702 576 b 714 579 725 586 738 589 b 739 589 743 590 749 595 b 756 601 764 603 772 603 b 774 603 776 603 779 602 b 792 602 799 605 809 614 b 813 621 813 628 813 636 b 813 644 809 649 805 655 z m 214 96 b 212 98 213 101 218 102 b 218 101 215 96 214 96 z m 219 120 b 218 123 216 126 217 129 b 220 129 224 125 219 120 z m 230 110 l 231 108 z m 261 146 b 256 146 254 148 255 154 b 258 152 259 148 263 145 z m 292 175 l 290 177 z m 292 174 b 297 169 297 169 296 169 z m 293 175 b 295 174 297 173 292 174 z m 313 209 b 312 209 304 218 307 222 b 310 220 311 216 316 212 z m 325 230 l 325 228 z m 332 219 b 330 220 331 223 331 226 b 333 225 335 223 334 219 z m 340 250 b 341 248 338 247 337 245 z m 347 265 b 344 265 342 267 344 274 b 346 274 350 271 347 265 z m 363 280 b 364 282 363 286 366 285 b 368 284 370 282 369 279 z m 386 325 b 384 324 383 321 380 322 z m 389 286 b 388 288 385 287 389 286 z m 402 334 b 397 334 395 336 398 341 b 399 338 400 336 402 334 z m 429 343 b 428 339 425 342 424 339 z m 436 397 b 437 394 434 393 433 391 z m 440 360 b 442 358 444 357 443 354 z m 457 375 b 454 377 451 378 449 379 b 456 374 455 373 455 373 b 452 373 451 375 443 382 b 438 384 437 384 436 386 b 436 387 438 391 444 384 b 445 385 450 383 452 382 b 454 380 452 376 457 375 z m 469 452 l 469 454 z m 482 432 b 489 431 488 430 488 429 z m 491 454 b 487 457 485 458 488 463 b 491 464 493 461 491 454 z m 588 542 l 589 540 z m 619 569 b 616 570 614 571 617 576 b 619 575 621 574 619 569 z"},"x":{"x_min":0,"x_max":422,"ha":422,"o":"m 465 254 b 460 263 453 268 445 272 b 443 272 441 273 439 273 b 432 273 423 269 422 264 b 420 261 418 258 417 255 b 414 248 407 243 404 235 b 401 228 396 221 392 214 b 389 206 384 200 379 193 b 370 182 362 171 354 160 b 350 155 348 150 343 145 b 338 141 333 136 329 124 b 323 117 316 114 310 108 b 302 99 293 90 283 83 b 276 79 270 72 261 73 b 254 74 245 76 239 83 b 240 92 236 99 236 108 b 236 121 240 133 241 146 b 242 149 243 152 244 155 b 244 159 245 174 248 176 b 249 184 253 192 253 201 b 254 207 254 213 256 218 b 258 223 256 228 259 231 b 262 236 260 241 261 251 b 271 259 277 271 287 278 b 293 283 297 288 303 292 b 315 303 325 316 337 327 b 350 340 365 350 376 366 b 383 375 395 380 402 390 b 411 392 414 400 418 407 b 421 410 423 414 426 415 b 435 420 440 429 448 435 b 450 437 451 440 450 441 b 447 446 445 450 444 455 b 438 454 434 461 421 461 b 416 463 410 462 405 465 b 398 461 389 459 383 452 b 370 438 356 425 344 411 b 325 388 300 370 277 349 b 277 353 278 356 277 359 b 276 363 280 365 280 369 b 279 379 281 390 277 400 b 271 425 268 429 251 449 b 246 454 242 458 236 458 b 235 458 234 458 228 458 b 221 461 214 462 206 462 b 195 462 185 461 174 458 b 164 455 156 449 146 447 b 139 446 133 443 125 436 b 118 432 111 427 105 421 b 91 410 80 395 69 381 b 63 372 57 362 44 349 b 36 337 29 324 23 311 b 17 300 12 289 6 279 b 0 269 0 266 7 258 b 11 255 15 253 19 251 b 26 248 33 249 40 249 b 44 249 46 250 47 254 b 48 260 51 265 54 269 b 59 276 63 283 66 290 b 75 307 84 324 102 341 b 106 351 113 357 120 364 b 124 367 128 370 131 373 b 137 379 149 387 158 387 b 160 387 161 385 165 380 b 168 374 169 369 169 363 b 170 351 163 339 164 327 b 159 323 164 317 161 313 b 158 308 160 302 160 296 b 159 294 160 290 159 288 b 156 282 157 274 153 268 b 149 261 151 253 150 247 b 148 241 149 236 147 231 b 146 226 145 221 144 213 b 138 207 133 201 127 196 b 122 193 119 189 115 187 b 111 183 107 180 103 176 b 101 174 100 172 99 170 b 97 166 95 163 92 161 b 81 150 49 119 38 111 b 37 106 32 104 29 100 b 27 98 24 95 22 91 b 21 88 17 86 14 83 b 7 78 0 74 -6 66 b -10 60 -17 54 -24 49 b -35 41 -44 31 -48 9 b -41 6 -34 3 -26 2 b -24 1 -21 1 -19 1 b -10 1 -1 3 7 4 b 9 8 13 5 15 7 b 27 17 38 25 46 38 b 48 42 51 45 53 48 b 63 59 75 67 85 77 b 90 83 94 91 101 95 b 110 101 117 109 128 116 b 126 114 126 111 126 108 b 126 99 126 91 126 77 b 130 65 134 52 138 41 b 140 34 143 27 147 23 b 153 18 159 13 167 10 b 171 8 176 8 180 4 b 184 1 189 2 194 0 b 196 -1 199 -2 202 -2 b 204 -2 207 -1 209 0 b 218 5 227 4 237 4 b 239 4 240 4 241 4 b 243 4 245 4 246 5 b 250 8 254 8 258 9 b 264 12 272 13 278 18 b 290 28 303 36 317 43 b 320 44 324 45 326 51 b 327 55 332 59 336 61 b 344 65 374 99 380 108 b 388 117 393 128 407 141 b 412 150 417 159 423 169 b 426 174 430 178 433 184 b 440 197 447 211 455 225 b 458 230 459 235 463 240 b 467 244 468 248 465 254 z m 136 154 l 135 153 z m 237 297 b 236 293 233 291 228 297 b 228 300 228 304 233 303 b 234 304 238 298 237 297 z m 236 266 b 237 263 234 263 232 263 b 231 265 234 266 235 268 z m 242 280 b 240 284 238 288 243 294 b 246 292 246 288 246 286 z m 244 340 b 247 349 248 348 248 348 b 247 346 252 345 245 340 z m 256 307 b 256 304 253 303 249 305 b 249 307 253 306 254 309 z m 251 398 b 248 397 245 397 246 404 z m 247 349 b 245 345 244 342 247 349 z m 242 381 b 245 380 243 376 239 372 b 239 375 238 378 239 380 z m 246 318 b 246 318 245 318 244 318 b 242 318 241 318 229 309 b 229 314 230 315 227 323 l 231 321 b 233 320 234 319 235 319 b 237 319 238 320 239 323 z m 193 215 b 187 217 183 221 186 226 b 187 223 192 223 193 215 z m 209 383 b 210 381 213 380 208 380 b 199 384 198 386 201 393 b 205 393 207 391 208 381 z m 215 373 b 216 373 218 374 219 374 b 220 374 221 373 212 372 z m 202 361 b 203 359 206 360 213 352 b 214 351 215 350 215 350 b 217 350 218 352 224 336 b 223 335 222 335 221 335 b 218 335 214 336 213 338 b 211 341 211 345 209 346 b 206 349 211 350 203 354 b 198 355 198 355 203 357 b 198 362 198 363 198 363 z m 227 308 b 226 291 225 288 222 296 b 228 298 220 302 224 305 z m 214 279 b 213 281 211 282 209 287 b 211 288 212 293 215 290 b 216 289 220 291 220 287 b 221 283 217 282 217 279 z m 204 244 l 203 243 z m 206 292 l 207 290 l 206 291 z m 212 308 b 212 311 212 314 214 318 b 213 313 213 310 213 308 b 215 317 216 316 217 314 b 218 312 213 310 212 308 z m 214 330 l 214 329 l 213 330 z m 221 270 l 220 275 z m 205 329 b 204 325 210 327 205 318 b 203 318 200 322 200 324 b 201 326 203 328 204 330 z m 195 181 b 196 182 198 183 200 183 b 201 183 201 182 203 182 b 207 180 203 177 198 174 b 197 176 199 179 195 181 z m 210 256 b 208 256 207 258 205 260 z m 214 169 b 214 167 213 167 211 167 b 210 167 210 167 208 167 b 208 169 206 172 210 172 z m 210 226 b 210 229 211 230 212 230 b 213 230 214 230 215 229 b 217 229 221 224 216 220 b 210 220 210 220 210 226 z m 218 254 b 220 253 223 251 222 244 b 216 244 215 245 215 253 z m 231 329 l 230 330 z m 235 330 l 236 329 l 234 330 z m 232 350 b 231 355 228 358 224 359 b 220 360 222 363 227 365 b 233 363 235 358 236 353 z m 225 422 b 222 422 220 424 223 429 z m 213 402 b 210 402 205 409 211 414 z m 198 308 b 195 307 193 305 190 304 b 189 304 185 311 193 311 z m 180 414 b 181 408 186 408 188 400 b 186 400 185 400 184 400 b 183 400 181 400 181 401 b 181 405 180 408 178 412 z m 182 196 b 179 197 175 198 172 202 b 173 204 175 207 177 205 b 180 204 183 202 184 197 z m 182 318 l 183 317 z m 171 239 b 173 235 177 235 178 229 b 174 230 172 233 169 238 z m 165 217 b 168 215 171 213 171 209 b 170 208 169 208 168 208 b 166 208 164 209 163 215 z m 159 196 b 159 192 161 190 165 189 b 168 187 173 186 173 179 b 178 179 176 176 176 174 b 176 172 175 172 174 172 b 173 172 172 172 171 172 b 165 171 168 174 168 179 b 163 178 162 181 158 186 b 155 186 154 188 155 191 b 155 193 154 195 157 197 z m 168 145 b 166 150 164 153 166 162 b 166 158 173 158 172 148 z m 146 177 b 148 174 151 174 155 171 b 152 168 153 166 155 162 b 151 166 148 169 146 177 z m 145 179 b 146 176 142 177 143 181 z m 142 143 b 140 145 139 147 138 150 z m 145 141 b 145 145 150 142 152 142 b 153 139 150 138 149 136 z m 154 136 b 156 134 158 132 164 129 b 166 128 169 122 166 119 b 163 119 160 120 159 127 b 154 130 152 132 152 134 z m 160 93 b 157 97 157 97 169 96 b 169 92 172 91 172 88 b 170 88 169 88 168 88 b 164 88 162 89 160 93 z m 174 55 b 176 56 181 54 179 48 z m 182 74 b 180 76 178 76 176 83 b 180 83 185 77 182 74 z m 184 146 l 184 153 b 190 153 190 153 189 145 z m 189 123 l 190 122 z m 194 61 b 189 61 186 63 187 69 b 188 69 189 69 190 69 b 194 69 197 67 194 61 z m 197 88 b 196 88 194 88 193 88 b 192 88 191 88 191 89 b 191 91 195 94 197 95 b 199 96 203 92 200 86 z m 208 136 b 207 140 203 144 199 145 b 195 146 195 148 196 152 b 188 155 185 154 184 155 b 181 157 177 157 174 161 b 174 162 182 169 192 164 b 195 163 196 160 195 156 b 195 155 194 155 194 155 b 192 155 191 156 190 155 b 192 154 193 154 194 154 b 195 154 195 155 201 153 b 204 147 209 143 208 136 z m 220 186 b 217 187 214 190 220 186 z m 229 231 b 228 233 231 237 231 243 b 229 238 237 241 236 236 b 236 233 235 231 233 230 z m 210 353 b 208 354 206 355 203 357 b 205 356 207 354 210 353 z"},")":{"x_min":0,"x_max":322,"ha":322,"o":"m 363 557 b 364 565 359 572 361 580 b 355 595 354 611 347 626 b 345 629 343 634 343 640 b 344 650 341 659 336 668 b 332 677 327 686 324 695 b 322 701 320 706 315 710 b 311 712 308 717 305 721 b 300 727 292 731 286 732 b 284 733 282 733 280 733 b 272 733 264 731 257 729 b 250 728 242 724 237 717 b 234 711 228 707 223 703 b 221 702 218 700 217 697 b 216 691 213 685 210 675 b 212 668 216 662 219 655 b 226 641 234 627 241 613 b 244 608 248 605 248 599 b 249 594 254 591 253 585 b 252 579 256 575 255 569 b 254 562 260 556 258 548 b 263 544 258 536 263 532 b 263 524 264 515 262 507 b 259 495 262 483 260 471 b 264 466 264 460 261 454 b 259 448 261 441 259 435 b 254 418 249 401 245 384 b 243 374 241 363 237 353 b 233 345 229 337 227 328 b 226 324 225 319 223 316 b 216 305 211 294 205 283 b 204 280 202 277 200 275 b 194 270 192 263 190 256 b 188 252 187 247 185 244 b 177 229 165 217 156 203 b 154 199 153 195 150 192 b 142 184 134 176 128 167 b 124 162 121 157 117 152 b 114 146 110 141 106 136 b 102 129 98 122 90 118 b 82 113 77 106 71 98 b 65 90 58 82 49 75 b 41 70 -2 39 -5 31 b -11 19 -22 14 -32 9 b -38 5 -45 3 -51 -2 b -58 -6 -65 -11 -73 -14 b -83 -16 -91 -31 -89 -39 b -88 -41 -86 -43 -86 -46 b -85 -56 -81 -64 -69 -70 l -59 -70 b -58 -66 -54 -66 -51 -65 b -44 -62 -36 -62 -29 -60 b -23 -59 -18 -57 -12 -57 b -11 -57 -10 -57 -9 -57 b -2 -50 8 -47 15 -41 b 19 -38 22 -32 28 -33 b 35 -26 45 -22 53 -16 b 62 -11 70 -5 78 1 b 82 3 83 7 88 9 b 95 11 102 18 106 25 b 112 37 122 44 132 50 b 140 55 147 60 152 67 b 154 70 156 74 159 76 b 164 81 168 87 171 93 b 175 99 179 104 184 108 b 188 111 216 138 217 142 b 221 152 227 160 235 168 b 238 172 242 177 245 182 b 249 187 250 195 253 200 b 261 213 267 226 278 235 b 283 240 285 246 287 252 b 291 262 293 273 301 282 b 304 285 309 290 309 301 b 313 311 317 321 322 330 b 325 336 328 343 329 350 b 331 358 332 366 338 372 b 339 374 341 377 341 380 b 344 397 352 412 354 430 b 356 448 358 462 358 481 b 359 490 358 498 360 507 b 362 514 361 523 363 532 b 364 540 363 548 363 557 z m 271 655 b 268 657 266 661 262 669 b 263 663 271 663 272 655 z m 322 565 b 320 567 319 569 318 572 z m 310 648 b 312 646 314 644 317 642 b 313 645 311 647 309 648 z m 308 609 b 306 612 311 613 309 615 z m 309 647 b 317 641 317 643 314 641 b 312 642 310 643 309 647 z m 309 648 l 309 650 z m 288 672 b 290 670 293 668 289 664 b 288 666 283 666 286 670 z m 289 604 l 289 602 z m 281 646 b 283 644 285 643 285 638 b 281 640 280 641 281 646 z m 294 567 b 295 565 298 564 292 564 z m 317 504 b 314 505 312 507 314 512 b 317 511 319 510 317 504 z m 312 545 b 314 547 315 550 319 547 b 315 543 319 542 321 541 b 325 539 326 535 324 529 b 322 531 320 532 319 535 b 318 538 317 540 313 541 z m 330 491 b 328 495 323 496 326 503 b 327 500 329 498 331 493 z"},"&":{"x_min":0,"x_max":549,"ha":549,"o":"m 491 -42 b 490 -38 486 -35 482 -33 b 479 -31 478 -30 477 -27 b 474 -22 471 -18 467 -15 b 464 -12 463 -5 456 -5 b 454 -6 453 -2 453 0 b 450 9 446 14 440 20 b 432 28 422 36 416 46 b 412 53 408 61 403 68 b 395 82 384 94 376 107 b 374 111 375 112 377 113 b 387 118 391 127 400 140 b 407 144 412 150 417 157 b 423 165 429 175 435 184 b 441 192 447 201 453 210 b 459 219 463 228 469 237 b 472 241 474 247 470 253 b 469 254 467 256 463 262 b 458 261 454 266 449 265 b 448 267 447 267 445 267 b 443 267 440 265 437 265 b 430 266 427 263 424 257 b 421 252 416 248 416 242 b 416 240 414 237 412 235 b 407 228 402 222 399 214 b 396 208 391 204 385 200 b 383 199 380 197 379 195 b 377 188 372 184 369 179 b 363 169 354 164 340 165 b 339 176 331 184 326 194 b 321 202 317 210 313 220 b 310 229 306 237 301 246 b 297 253 292 259 289 267 b 283 283 281 301 272 315 b 269 319 271 321 274 322 b 286 327 296 337 305 346 b 307 348 309 350 312 351 b 330 363 349 373 366 388 b 369 391 374 392 376 396 b 380 403 385 407 392 412 b 397 416 403 421 404 433 b 410 439 415 447 420 454 b 427 464 438 473 436 487 b 441 491 437 496 439 500 b 441 505 441 510 441 515 b 441 520 441 525 441 531 b 441 539 443 549 440 557 b 438 567 436 576 435 589 b 427 596 425 599 422 607 b 420 612 417 617 412 619 b 405 621 400 626 390 635 b 380 637 371 641 362 645 b 356 647 351 649 345 649 b 334 648 322 649 310 647 b 307 646 303 646 300 646 b 294 646 288 646 283 646 b 281 646 279 646 277 646 b 276 646 274 646 273 646 b 270 646 268 645 266 644 b 257 641 248 638 241 632 b 237 628 232 626 227 624 b 219 620 215 616 208 610 b 204 607 201 602 196 601 b 188 600 186 594 184 589 b 183 585 182 581 179 578 b 167 563 161 546 153 530 b 152 526 150 521 150 516 b 151 486 151 456 150 426 b 150 422 151 419 153 415 b 160 398 164 381 166 363 b 170 361 169 356 170 349 b 168 347 165 344 163 344 b 154 344 149 339 144 334 b 137 327 131 320 120 315 b 118 306 109 306 103 303 b 96 300 89 297 84 291 b 78 281 69 272 60 265 b 56 260 52 254 47 252 b 40 249 38 243 34 239 b 27 230 23 221 18 210 b 14 201 12 190 5 182 b 3 181 2 178 2 175 b 1 170 1 165 2 160 b 2 154 -2 150 -1 144 b 0 139 -1 134 -1 130 b 0 125 -3 121 2 117 b -1 113 -1 109 -1 98 b 4 89 5 78 13 70 b 14 68 16 65 16 62 b 17 54 23 49 27 42 b 38 34 49 25 61 13 b 62 13 63 13 64 13 b 69 13 73 10 78 10 b 84 11 90 8 96 6 b 107 2 119 2 130 -1 b 134 -3 138 1 142 1 b 143 0 144 0 145 0 b 155 0 164 3 173 3 b 175 3 176 3 178 3 b 185 2 191 6 197 6 b 211 13 226 13 240 20 b 250 25 261 28 269 36 b 272 40 277 42 288 43 b 295 51 305 56 313 63 b 314 65 315 65 316 65 b 317 65 318 64 321 58 b 327 45 335 33 345 21 b 349 17 355 16 358 10 b 361 5 363 -1 365 -6 b 367 -11 370 -15 374 -18 b 377 -22 379 -27 385 -29 b 391 -32 413 -58 417 -64 b 421 -71 428 -75 434 -80 b 438 -82 443 -84 447 -85 b 449 -86 451 -86 453 -86 b 454 -86 456 -86 457 -84 b 463 -79 470 -76 476 -74 b 482 -72 485 -67 489 -62 b 493 -57 492 -49 491 -42 z m 36 162 b 35 166 33 168 31 171 z m 40 102 l 46 102 z m 255 584 b 257 582 258 580 257 575 b 255 577 253 578 252 583 z m 248 442 b 246 449 247 457 247 464 b 246 467 247 470 249 474 b 252 480 252 487 254 494 b 254 499 255 503 258 506 b 265 512 268 520 270 528 b 271 532 274 533 275 536 b 280 545 288 552 301 558 b 303 563 320 568 325 568 b 327 568 330 568 332 568 b 336 568 341 564 347 564 b 349 558 356 557 358 551 b 359 546 362 542 362 536 b 361 531 365 527 364 522 b 364 517 363 513 360 509 b 357 506 356 502 354 498 b 350 485 331 460 322 452 b 314 446 307 439 300 432 b 298 430 295 429 292 428 b 284 425 277 421 270 417 b 265 414 260 410 249 408 b 250 413 244 417 247 421 b 251 428 250 436 248 442 z m 254 308 b 250 310 247 311 246 317 b 248 315 251 312 254 308 z m 252 367 b 253 371 246 371 248 375 b 249 377 251 373 256 374 b 257 371 253 370 254 367 z m 243 376 b 241 377 239 378 241 385 b 243 385 246 382 247 380 z m 241 358 l 241 356 z m 239 596 b 243 597 245 596 237 595 z m 239 298 b 241 299 246 294 239 290 b 237 292 237 295 239 298 z m 228 305 b 229 306 230 306 230 306 b 233 306 235 305 231 301 z m 231 277 l 232 276 z m 222 341 l 221 340 z m 220 367 b 217 369 217 372 223 375 b 225 375 227 372 221 366 z m 202 361 b 203 362 204 363 206 363 b 206 363 207 363 201 357 z m 208 421 b 211 420 213 415 209 411 b 208 411 206 419 206 420 z m 217 469 l 217 471 z m 208 327 b 212 327 213 323 215 322 b 214 319 212 318 206 322 b 206 324 204 327 208 327 z m 208 301 b 211 300 214 297 209 289 b 207 290 205 298 206 300 z m 213 346 b 210 346 210 349 208 351 b 208 351 212 356 212 356 b 213 353 217 355 218 351 b 218 349 215 348 213 346 z m 223 555 b 226 554 228 550 229 543 b 226 545 224 548 223 555 z m 213 446 b 213 443 216 442 213 446 z m 206 484 b 205 480 204 480 200 480 b 197 481 195 482 195 490 z m 189 436 l 190 438 z m 197 403 b 199 401 198 398 199 395 b 197 396 194 396 188 408 z m 188 375 l 189 374 z m 190 349 b 191 346 196 348 195 337 b 192 339 190 343 186 346 z m 181 322 b 185 322 193 314 189 309 b 186 312 183 316 181 322 z m 184 290 b 179 292 178 294 180 298 b 182 297 184 296 187 286 z m 78 217 b 81 216 85 212 85 210 b 81 213 78 215 76 217 l 75 219 z m 76 216 b 84 209 83 209 80 212 z m 78 185 b 79 185 82 181 81 180 z m 71 155 b 67 155 69 158 76 161 z m 67 195 b 70 196 71 194 73 191 b 72 190 64 193 67 195 z m 67 134 b 62 136 60 138 67 134 z m 79 61 b 79 64 81 65 86 65 b 84 62 83 60 81 58 z m 83 235 b 85 236 86 239 86 234 z m 283 106 b 275 101 268 96 259 93 b 252 91 245 88 234 78 b 225 77 217 74 210 70 b 205 68 200 68 195 68 b 193 68 191 68 189 68 b 189 68 188 68 187 68 b 186 68 184 68 183 68 b 176 68 168 65 160 65 b 158 65 157 65 155 66 b 154 66 153 66 151 66 b 150 66 149 66 148 66 b 139 74 126 78 118 88 b 116 90 115 92 114 95 b 112 101 110 107 107 113 b 99 129 99 135 104 152 b 112 180 127 207 149 226 b 151 228 153 231 155 234 b 159 240 172 249 179 254 b 182 255 184 257 186 260 b 188 263 191 266 194 268 b 198 269 200 270 201 270 b 203 270 204 269 206 265 b 213 249 221 233 229 217 b 230 214 229 211 230 208 b 234 196 240 185 249 175 b 253 169 257 163 262 154 b 263 141 272 133 279 124 b 281 120 283 116 283 106 z m 329 109 b 327 111 325 112 329 109 z"},"_":{"x_min":0,"x_max":531,"ha":531,"o":"m 482 -23 b 479 -22 475 -22 472 -22 b 469 -22 466 -22 463 -23 b 462 -23 462 -23 461 -23 b 455 -23 450 -20 444 -20 b 428 -20 411 -20 395 -20 b 391 -20 386 -20 382 -20 b 371 -20 361 -20 350 -20 b 349 -20 347 -20 345 -20 b 344 -20 342 -20 338 -22 b 336 -20 334 -20 332 -20 b 329 -20 327 -20 325 -20 b 323 -20 320 -20 318 -20 b 313 -20 308 -20 303 -20 b 300 -20 296 -20 292 -20 b 291 -20 289 -20 288 -20 b 278 -20 269 -22 260 -23 b 257 -23 254 -23 252 -23 b 234 -23 216 -20 198 -20 b 195 -20 192 -20 189 -20 b 186 -20 184 -20 182 -20 b 180 -20 177 -20 175 -22 b 174 -23 173 -23 172 -23 b 168 -23 165 -19 156 -20 b 154 -22 152 -23 150 -23 b 148 -23 146 -22 144 -22 b 140 -23 137 -23 134 -23 b 131 -23 128 -23 124 -22 b 118 -22 112 -23 106 -20 b 104 -20 101 -19 99 -19 b 95 -19 91 -20 87 -20 b 84 -20 80 -20 77 -20 b 75 -20 72 -20 70 -20 b 65 -19 60 -23 54 -23 b 53 -22 52 -22 50 -22 b 43 -22 36 -25 28 -29 b 25 -31 22 -33 20 -36 b 13 -46 9 -58 6 -70 b 5 -74 5 -78 6 -81 b 7 -83 11 -84 15 -86 b 17 -89 20 -90 23 -90 b 25 -90 27 -90 28 -89 b 32 -87 36 -88 40 -87 b 41 -87 42 -87 43 -87 b 48 -87 53 -90 59 -90 b 63 -89 67 -89 71 -89 b 78 -89 84 -89 91 -88 b 94 -87 96 -87 99 -87 b 103 -87 108 -88 113 -89 b 116 -90 119 -90 122 -90 b 127 -90 132 -89 136 -88 b 140 -87 143 -87 147 -87 b 151 -87 155 -87 159 -89 b 162 -89 165 -90 169 -90 b 176 -90 185 -89 192 -87 b 194 -87 196 -87 199 -87 b 202 -87 204 -87 207 -87 b 213 -88 217 -84 223 -85 b 230 -85 236 -86 242 -87 b 244 -87 245 -87 247 -87 b 249 -87 250 -87 252 -87 b 255 -87 259 -88 263 -89 b 265 -90 267 -91 269 -91 b 271 -91 273 -90 275 -89 b 278 -88 281 -87 285 -87 b 287 -87 289 -87 291 -87 b 294 -87 297 -87 300 -87 b 304 -87 308 -87 312 -87 b 313 -87 314 -87 315 -87 b 316 -87 317 -87 318 -87 b 320 -87 321 -87 322 -87 b 324 -85 327 -84 330 -84 b 332 -84 334 -85 336 -85 b 340 -87 345 -87 349 -87 b 351 -87 354 -87 356 -87 b 358 -87 359 -87 361 -87 b 363 -87 365 -87 367 -87 b 367 -87 368 -87 369 -87 b 375 -89 378 -89 381 -89 b 384 -89 387 -89 398 -87 b 401 -90 404 -91 406 -91 b 409 -91 412 -90 414 -89 b 418 -88 422 -87 426 -87 b 428 -87 429 -87 431 -87 b 432 -88 433 -88 434 -88 b 442 -88 450 -85 458 -85 b 459 -85 460 -85 464 -84 b 474 -81 478 -73 483 -65 b 490 -57 490 -46 493 -36 b 494 -29 489 -23 482 -23 z"},"v":{"x_min":0,"x_max":465,"ha":465,"o":"m 504 262 b 501 267 495 269 491 272 b 487 273 484 274 482 274 b 477 274 472 272 468 270 b 461 266 456 258 454 250 b 451 242 448 235 442 229 b 436 224 432 218 429 212 b 423 202 417 192 410 183 b 402 170 391 158 379 149 b 365 138 346 126 329 120 b 322 118 315 117 309 114 b 299 109 293 108 282 108 b 273 109 265 112 259 119 b 256 122 256 126 257 129 b 260 135 264 139 269 142 b 275 145 291 164 293 170 b 301 177 305 187 312 195 b 320 206 325 219 334 229 b 336 232 339 236 340 239 b 346 249 350 260 355 270 b 358 276 362 284 367 289 b 375 297 378 307 381 317 b 383 321 386 325 386 329 b 385 341 391 350 396 360 b 397 363 399 366 398 370 b 398 379 407 408 410 416 b 406 420 408 426 406 435 b 380 457 374 459 339 463 b 333 464 329 460 324 461 b 318 462 316 456 313 454 b 310 452 309 449 309 445 b 310 437 310 429 305 417 b 306 411 301 405 302 398 b 297 394 303 387 298 383 b 298 383 286 345 285 344 b 278 335 261 299 256 287 b 253 278 248 270 243 262 b 237 253 232 244 228 234 b 227 232 225 230 224 228 b 217 221 213 214 207 207 b 205 204 203 200 198 199 b 184 197 173 191 163 181 b 149 169 150 153 152 137 b 153 130 154 131 149 127 b 143 123 136 120 133 115 b 119 94 99 82 73 75 b 69 78 65 77 61 79 b 59 81 57 82 57 85 b 58 89 55 93 53 103 b 56 105 55 107 55 109 b 54 114 57 118 57 123 b 58 127 61 132 62 136 b 65 145 71 153 71 166 b 77 185 87 203 95 221 b 97 227 102 233 103 239 b 104 248 108 255 113 261 b 118 267 123 274 124 287 b 132 302 137 318 146 333 b 152 342 154 353 165 366 b 170 377 174 388 182 402 b 183 409 185 416 187 421 b 192 433 187 439 180 445 b 178 447 177 449 174 449 b 169 448 166 451 162 453 b 150 460 133 463 121 464 b 113 464 107 461 99 461 b 98 461 98 461 97 461 b 92 461 92 460 88 453 b 87 450 86 447 84 445 b 74 433 68 418 60 405 b 60 397 55 392 52 386 b 50 380 47 373 44 367 b 39 358 32 351 31 341 b 31 335 29 329 26 325 b 20 319 17 311 15 303 b 13 300 12 296 10 292 b 1 273 -8 254 -16 235 b -18 231 -19 227 -19 224 b -19 217 -22 210 -25 205 b -35 186 -43 167 -48 147 b -50 141 -53 136 -53 130 b -53 124 -52 118 -55 107 b -52 104 -53 100 -53 96 b -53 85 -53 75 -53 65 b -53 59 -52 55 -49 51 b -41 36 -29 25 -14 12 b -4 6 7 4 19 3 b 22 2 26 2 29 2 b 34 2 38 2 43 3 b 49 3 56 3 63 4 b 67 5 72 8 77 8 b 78 8 80 8 81 7 b 88 7 92 8 98 12 b 107 20 119 22 129 26 b 149 35 167 44 181 58 b 184 61 186 63 187 63 b 188 63 190 61 193 57 b 200 51 202 50 217 46 b 235 40 247 38 266 38 l 291 38 b 293 42 296 41 299 41 b 300 41 302 41 303 42 b 305 43 307 44 309 44 b 312 44 314 43 321 44 b 336 52 351 59 366 67 b 383 78 399 90 415 102 b 418 105 420 108 422 111 b 430 122 436 134 446 143 b 454 150 460 158 464 168 b 469 178 476 187 482 197 b 486 202 491 206 494 212 b 498 222 502 232 506 242 b 510 252 509 252 504 262 z m 316 331 b 313 332 315 335 314 337 b 321 330 322 328 319 330 z m 351 365 b 353 365 356 365 353 358 b 351 357 348 360 351 365 z m 340 319 b 339 316 338 312 334 311 b 334 314 331 314 331 317 b 331 321 336 318 337 321 z m 321 332 b 318 335 316 337 315 339 z m 314 338 l 313 340 z m 284 273 b 286 275 284 279 288 278 b 289 278 290 279 292 279 b 293 279 294 278 295 276 b 293 274 292 270 284 273 z m 280 224 l 279 226 z m 69 260 b 70 257 65 253 61 255 z m 63 290 b 65 291 69 287 69 284 b 66 287 64 289 62 290 z m 73 245 b 72 248 67 246 73 245 z m 79 300 b 80 300 82 300 83 300 b 84 300 85 300 77 299 z m 91 326 b 91 324 94 323 93 320 b 93 319 95 316 92 315 b 91 318 85 315 86 323 z m 82 262 b 78 267 78 267 84 270 b 85 271 86 271 87 271 b 88 271 88 270 89 259 z m 100 311 l 99 310 z m 125 376 b 132 372 130 372 129 370 z m 132 375 b 129 376 126 376 127 377 z m 111 387 b 110 390 114 389 117 388 z m 111 360 b 108 360 107 362 109 367 z m 98 343 b 101 342 103 341 101 336 b 99 338 98 340 98 343 z m 91 286 b 87 286 89 291 88 293 b 91 293 92 290 91 286 z m 90 348 b 87 351 83 352 81 357 b 95 351 94 350 94 350 z m 91 354 b 88 355 85 357 83 358 b 85 357 86 358 88 358 b 90 358 91 357 91 354 z m 75 367 b 78 365 79 363 81 358 b 75 361 73 361 72 367 z m 64 348 b 67 349 68 345 71 345 b 71 340 77 338 76 331 b 74 336 70 337 66 339 b 63 340 68 341 64 348 z m 62 290 l 61 292 z m 62 289 b 68 283 67 282 65 281 b 64 280 60 283 62 289 z m 21 232 b 22 235 23 237 24 239 z m 23 149 b 26 149 28 149 27 142 b 22 142 19 145 22 154 z m 14 180 b 12 183 10 187 9 192 b 15 191 19 187 19 182 z m 6 228 b 7 228 9 223 6 220 b 4 222 5 225 5 227 z m 4 173 b 6 170 8 167 10 164 b 11 162 15 161 13 159 b 12 158 12 158 11 158 b 9 158 8 159 7 160 b 6 161 5 161 5 161 b 4 161 3 161 2 161 b 1 161 0 161 0 163 b 0 166 -5 166 -3 169 z m -14 147 b -16 149 -14 151 -11 158 b -10 155 -8 153 -6 151 b -5 149 -7 146 -9 144 z m 2 143 b 0 142 0 139 0 144 z m -4 77 b -4 81 -3 84 0 84 b 3 84 5 80 5 77 b 4 75 3 74 2 74 b 1 74 0 75 -4 77 z m 5 43 b 4 43 3 43 2 43 b 1 43 0 44 0 46 b -1 49 1 51 3 53 b 5 50 6 48 5 43 z m 10 102 b 11 100 13 99 8 97 b 8 99 3 101 6 104 z m 10 40 b 12 39 15 38 16 34 z m 19 87 b 16 87 14 89 15 94 b 18 92 20 91 19 87 z m 28 79 b 28 79 27 79 26 79 b 25 79 24 80 25 86 b 26 84 30 85 28 79 z m 36 71 b 45 66 44 65 44 65 z m 38 72 b 39 72 40 72 40 72 b 42 72 43 72 45 66 b 40 69 38 71 36 72 z m 43 187 b 40 188 38 190 39 194 b 41 192 43 190 43 187 z m 44 216 b 37 215 35 221 33 226 b 34 228 36 228 37 228 b 38 228 40 228 48 218 z m 47 269 l 48 273 z m 211 135 b 209 138 205 139 204 141 b 203 143 201 145 203 151 b 205 150 203 145 207 146 b 207 142 215 142 213 137 z m 230 152 l 228 152 z m 260 216 b 262 215 261 212 258 213 b 251 216 249 216 249 219 z"},"O":{"x_min":0,"x_max":602,"ha":602,"o":"m 645 254 b 642 261 638 265 633 268 b 629 271 626 275 622 276 b 612 276 601 270 599 260 b 593 255 591 247 580 241 b 577 235 571 230 566 225 b 555 215 543 208 532 199 b 521 191 508 184 495 177 b 494 176 492 174 489 175 b 485 175 480 173 476 173 b 467 172 459 170 450 168 b 449 167 447 167 445 167 b 443 167 441 167 440 169 b 439 172 444 173 444 176 b 447 185 455 199 461 206 b 465 211 467 216 469 222 b 471 226 472 232 475 235 b 481 240 484 247 487 254 b 490 260 494 265 495 271 b 498 282 504 292 511 302 b 515 308 518 315 520 323 b 522 333 525 344 532 353 b 535 356 538 361 538 366 b 539 374 542 380 545 387 b 549 394 550 403 550 411 b 551 421 554 430 557 440 b 561 450 564 460 563 471 b 562 477 562 484 563 490 b 563 497 566 503 566 513 b 568 520 567 530 566 538 b 564 550 555 560 556 576 b 554 587 547 595 545 606 b 543 614 538 621 531 625 b 520 631 513 639 500 650 b 487 655 476 657 462 657 b 460 657 457 657 455 657 b 453 657 450 657 448 658 b 445 659 441 660 437 660 b 434 660 431 659 427 659 b 426 659 424 659 423 660 b 421 658 419 657 417 657 b 415 657 413 658 412 658 b 410 658 409 658 408 657 b 405 655 402 655 399 655 b 397 655 395 655 392 655 b 386 654 369 651 365 647 b 358 641 348 637 341 629 b 335 623 328 618 319 616 b 316 615 314 613 311 609 b 307 602 304 593 292 587 b 291 583 279 565 275 564 b 269 561 267 556 265 550 b 261 538 257 527 248 518 b 243 513 240 506 238 498 b 236 489 234 480 227 472 b 222 465 218 458 219 449 b 220 446 217 442 216 439 b 209 424 205 409 204 387 b 199 381 200 374 200 367 b 200 363 199 358 201 355 b 205 350 198 348 200 343 b 201 341 197 339 198 336 b 198 327 198 317 198 307 b 197 297 202 288 200 277 b 204 270 202 260 207 254 b 208 243 213 235 216 225 b 218 218 222 212 222 203 b 222 198 227 193 230 187 b 237 186 238 179 241 174 b 245 167 250 161 257 157 b 261 155 266 152 268 149 b 271 144 275 141 278 139 b 283 137 287 134 291 132 b 297 130 297 123 301 120 b 299 117 298 113 294 106 b 290 98 287 90 278 85 b 270 82 266 76 260 67 b 254 58 248 49 242 40 b 239 36 233 34 228 31 b 219 25 210 18 202 10 b 197 4 190 0 183 -2 b 174 -3 167 -7 159 -12 b 158 -13 156 -15 153 -15 b 152 -15 151 -15 149 -13 b 148 -12 147 -12 146 -12 b 145 -12 144 -12 142 -12 b 140 -12 137 -12 134 -12 b 132 -12 130 -12 128 -12 b 124 -13 120 -11 119 -9 b 114 0 105 6 99 13 b 85 29 82 43 80 64 b 80 67 80 71 79 74 b 76 83 76 94 79 102 b 84 115 84 129 87 143 b 88 150 90 156 93 162 b 96 172 100 184 105 193 b 106 196 109 197 109 201 b 109 204 111 207 112 210 b 114 220 118 230 126 239 b 131 245 135 252 138 260 b 141 269 139 279 138 290 b 126 298 114 307 100 312 b 89 317 77 322 64 322 b 63 322 61 322 60 321 b 48 321 39 310 34 300 b 31 293 27 287 22 281 b 14 272 11 260 6 249 b 7 242 2 235 -2 230 b -7 222 -9 214 -13 205 b -15 199 -18 189 -18 184 b -18 179 -18 173 -19 168 b -22 155 -25 143 -25 129 b -26 121 -25 112 -25 104 b -25 96 -25 87 -25 79 b -26 68 -23 58 -16 49 b -15 47 -13 44 -13 41 b -15 32 -10 25 -4 18 b -1 15 2 11 3 7 b 13 -24 50 -52 81 -60 b 90 -63 98 -68 108 -67 b 118 -67 132 -68 142 -71 b 144 -72 145 -73 147 -73 b 149 -73 150 -73 151 -72 b 159 -70 168 -70 175 -65 b 178 -62 182 -64 191 -60 b 199 -60 207 -58 213 -51 b 217 -46 223 -45 228 -44 b 232 -43 236 -42 239 -40 b 242 -37 246 -36 249 -34 b 263 -25 279 -18 288 -3 b 290 0 293 3 296 4 b 303 8 307 17 315 20 b 320 32 331 37 340 44 b 350 52 358 61 367 69 b 371 73 373 79 375 84 b 376 86 377 89 379 91 b 381 93 384 96 386 100 b 387 102 389 106 393 105 b 395 105 397 105 399 105 b 402 105 405 105 408 105 b 412 105 416 105 420 104 b 423 103 427 102 431 102 b 436 102 441 103 445 104 b 456 107 466 110 477 112 b 489 114 499 117 510 122 b 516 125 521 128 527 129 b 536 130 540 139 547 142 b 548 148 555 148 558 152 b 565 152 567 158 572 161 b 580 165 584 175 599 183 b 600 189 606 193 610 197 b 612 199 616 198 617 201 b 618 204 620 206 622 209 b 623 212 625 215 628 217 b 636 225 641 235 646 245 b 647 248 647 251 645 254 z m 523 441 b 521 444 517 445 517 450 b 525 441 524 440 523 441 z m 517 452 b 511 457 511 457 511 458 z m 531 465 b 537 461 537 460 536 460 z m 527 444 b 523 447 520 449 518 451 b 523 451 527 448 527 444 z m 512 489 b 513 490 517 487 514 480 b 511 481 510 483 512 489 z m 510 456 b 512 454 514 452 516 451 b 515 451 514 449 513 449 b 513 449 513 449 512 450 b 512 453 509 454 510 456 z m 513 396 b 511 395 510 398 508 398 b 507 398 506 397 505 399 b 506 400 508 401 510 401 b 512 401 514 400 514 399 z m 65 266 b 62 268 60 270 62 276 z m 40 203 b 41 204 42 204 43 204 b 44 204 46 203 42 195 b 42 198 37 200 40 203 z m 35 116 b 36 118 38 120 41 120 z m 35 143 b 36 143 38 143 39 143 b 40 143 42 143 35 143 z m 21 69 l 22 71 z m 16 141 b 18 141 21 141 19 135 b 16 136 15 138 16 141 z m 20 109 b 19 107 15 105 12 105 b 11 105 10 105 20 109 z m 7 179 b 8 176 12 179 8 172 b 4 173 6 176 6 178 z m 2 91 l 3 93 z m 10 79 b 8 80 5 87 7 91 b 7 86 12 85 12 79 z m 22 47 b 24 45 26 43 23 38 z m 23 100 b 25 99 28 98 28 96 b 27 96 26 96 25 96 b 24 96 23 96 23 98 z m 34 86 b 32 86 29 86 34 88 b 40 89 44 85 45 76 b 42 77 42 77 37 85 z m 63 147 b 61 149 60 151 57 151 b 55 151 60 155 56 157 l 59 158 b 60 154 66 154 66 147 z m 85 218 b 81 221 78 220 76 225 z m 450 303 b 448 303 446 308 449 311 b 449 308 452 306 454 305 z m 488 353 b 486 357 486 361 491 352 z m 500 434 b 497 435 494 440 497 444 b 500 444 501 442 502 440 z m 499 530 b 496 529 493 531 493 536 z m 490 416 b 492 418 493 419 494 419 b 495 419 496 418 498 416 b 500 414 499 411 490 416 z m 487 425 b 485 424 487 420 484 420 b 483 421 483 424 485 427 z m 298 494 b 298 489 303 488 299 483 b 299 486 297 488 295 492 z m 288 441 b 284 443 281 445 286 446 z m 279 445 b 288 439 287 438 284 438 b 286 443 277 440 279 445 z m 279 481 b 278 479 274 480 272 479 b 272 482 274 483 276 484 z m 266 309 l 267 308 z m 253 384 l 252 386 z m 231 404 l 230 405 z m 228 319 b 232 318 235 314 232 310 b 229 311 230 316 227 318 z m 237 247 b 235 250 233 252 233 256 b 235 254 238 252 238 248 z m 251 258 b 250 261 254 262 251 258 z m 260 368 l 262 368 z m 273 242 b 273 242 272 242 271 242 b 269 242 267 243 269 251 b 271 249 274 248 273 242 z m 283 408 b 282 411 280 413 278 415 b 275 418 278 420 282 418 b 286 416 286 411 289 406 z m 314 168 b 312 170 310 172 312 177 b 313 177 318 171 316 168 z m 324 133 b 326 131 330 133 329 130 b 329 129 325 129 324 127 z m 329 153 b 325 154 322 156 328 160 b 331 161 333 160 329 153 z m 347 166 b 342 177 342 177 342 177 b 347 176 346 170 349 164 z m 348 134 b 350 135 348 140 354 138 b 354 134 351 133 351 130 z m 352 159 b 351 159 357 165 358 165 b 360 163 362 161 364 159 b 361 158 361 156 352 159 z m 361 122 l 361 121 z m 374 141 b 371 141 369 144 368 149 b 369 150 370 151 371 151 b 372 151 372 150 374 141 z m 377 170 b 374 169 377 165 371 167 z m 381 192 b 380 193 377 194 379 199 b 380 197 383 196 381 192 z m 390 190 b 390 187 394 185 392 181 z m 402 175 b 406 175 408 173 409 169 z m 416 222 l 410 224 z m 400 199 b 399 201 399 203 395 210 b 397 212 398 209 400 208 b 404 207 405 203 404 200 z m 414 189 b 411 191 411 194 416 189 z m 426 358 b 423 355 422 349 421 345 b 416 333 413 321 409 310 b 407 306 406 301 403 298 b 395 290 391 281 388 270 b 386 261 381 254 375 246 b 372 241 368 236 367 230 b 366 225 364 222 361 218 b 355 210 351 201 344 190 b 336 196 329 202 327 212 b 325 219 319 225 315 231 b 307 243 303 255 304 274 b 303 280 305 287 302 292 b 299 297 304 304 299 308 b 299 315 297 322 300 329 b 302 333 301 338 301 343 b 300 349 302 355 304 361 b 306 368 307 374 308 381 b 310 389 311 396 313 409 b 322 420 326 432 327 446 b 328 456 331 465 335 474 b 341 485 346 496 349 508 b 350 514 354 519 357 522 b 369 533 375 546 380 560 b 384 567 389 573 393 581 b 396 585 400 588 404 590 b 409 591 412 594 418 602 b 422 610 431 610 437 614 b 441 616 444 610 449 612 b 453 612 456 611 458 607 b 463 592 475 578 471 561 b 468 547 469 534 469 520 b 469 515 466 510 466 504 b 467 499 467 494 465 484 b 459 478 459 468 457 460 b 456 454 454 447 454 440 b 454 436 452 431 449 428 b 445 421 444 414 443 407 b 442 402 441 398 437 394 b 435 390 432 386 433 381 b 434 373 432 365 426 358 z m 437 167 l 436 166 z"},"(":{"x_min":0,"x_max":322,"ha":322,"o":"m 451 706 b 450 712 447 717 444 722 b 441 731 435 736 427 736 b 422 736 413 734 408 732 b 401 730 394 725 386 725 b 385 725 384 725 381 724 b 370 721 361 713 351 707 b 343 702 335 697 327 693 b 321 690 313 689 308 683 b 303 677 297 674 291 670 b 287 668 281 666 279 662 b 275 653 268 650 262 646 b 256 642 250 638 246 630 b 245 627 243 625 241 623 b 232 617 223 613 220 600 b 219 598 216 597 215 595 b 209 587 201 582 194 576 b 184 564 176 549 163 540 b 158 537 156 531 152 527 b 146 519 139 513 135 498 b 129 486 120 477 115 465 b 111 455 102 450 97 440 b 94 433 89 427 85 421 b 80 415 76 408 74 400 b 71 386 65 374 57 364 b 54 362 52 358 52 355 b 54 347 50 342 47 336 b 45 333 43 330 43 326 b 41 316 38 307 32 298 b 29 293 26 288 26 281 b 26 276 26 271 26 266 b 25 261 23 257 22 253 b 20 248 23 243 19 239 b 19 226 9 216 10 201 b 8 187 6 173 7 159 b 11 153 8 146 9 139 b 9 136 9 133 9 127 b 7 115 12 101 12 84 b 18 62 24 39 26 16 b 26 13 27 10 29 8 b 37 -2 40 -15 45 -27 b 48 -37 54 -44 60 -51 b 66 -59 75 -67 85 -69 b 100 -69 109 -66 122 -58 b 126 -56 130 -53 133 -50 b 141 -39 149 -28 156 -17 b 158 -14 159 -5 157 -4 b 148 0 146 10 142 18 b 138 27 137 37 127 45 b 125 54 122 62 120 71 b 114 91 110 114 108 135 b 107 139 104 142 105 147 b 105 151 106 155 103 159 b 104 169 101 180 106 191 b 110 198 113 207 108 222 b 110 225 111 229 112 232 b 115 239 115 247 117 255 b 119 262 119 270 122 278 b 124 286 127 295 127 304 b 127 312 131 321 138 326 b 141 329 142 332 144 342 b 151 360 158 379 170 394 b 175 401 182 408 183 417 b 185 424 191 429 191 440 b 198 448 205 456 211 465 b 217 472 223 480 227 489 b 233 502 244 510 253 521 b 259 522 262 527 265 532 b 268 538 273 543 276 550 b 278 556 284 562 289 565 b 295 569 300 571 305 577 b 307 580 313 582 314 586 b 314 592 322 589 321 596 b 326 601 330 607 335 612 b 340 618 347 621 353 625 b 361 630 370 634 380 646 b 387 647 391 653 396 656 b 407 662 415 671 427 674 b 431 675 435 679 443 680 b 446 688 452 696 451 706 z m 69 137 b 72 136 75 133 72 128 b 68 128 65 135 67 137 z m 59 205 b 61 208 56 209 58 212 z m 58 115 b 59 114 60 117 61 117 b 61 117 62 116 67 107 b 70 107 73 106 68 102 b 62 107 61 107 61 107 b 58 109 56 112 53 115 b 51 118 53 119 58 115 z m 53 217 l 54 219 z m 55 158 b 55 154 53 150 54 146 b 52 148 51 153 48 156 z m 46 128 b 43 128 41 130 40 133 z m 63 73 b 61 73 62 77 55 80 z m 63 44 b 61 43 57 47 63 44 z m 70 99 b 75 94 75 94 69 99 z m 70 64 b 70 66 74 64 74 67 l 78 55 z m 88 16 l 87 16 z"},"C":{"x_min":0,"x_max":616,"ha":616,"o":"m 321 484 l 323 486 z m 304 499 l 306 501 z m 265 410 l 265 407 l 267 407 z m 183 306 b 187 307 189 310 188 314 z m 182 295 b 179 300 180 302 183 305 b 178 305 176 300 178 298 z m 126 263 b 121 262 124 258 123 256 b 128 257 125 261 126 263 z m 207 316 b 206 318 211 318 208 322 b 207 322 207 323 206 323 b 205 323 204 320 203 321 b 203 318 205 317 207 316 z m 123 244 b 125 244 126 244 127 244 b 128 244 129 244 130 245 b 131 240 128 239 128 237 l 133 237 b 135 240 136 243 135 246 l 138 254 l 135 254 b 135 256 133 258 131 258 b 131 255 130 252 126 251 b 127 248 124 246 123 244 z m 136 201 b 135 205 134 206 132 206 b 131 206 130 205 129 205 b 132 204 133 201 136 201 z m 121 233 b 124 232 121 236 126 237 b 125 239 122 241 123 244 l 119 244 b 118 241 115 240 116 237 b 119 237 122 237 121 233 z m 140 254 l 147 249 b 151 260 149 254 147 257 b 146 259 142 257 143 261 l 138 254 z m 131 258 l 131 261 z m 197 303 l 196 302 z m 216 350 b 219 349 222 353 222 356 b 219 355 217 353 215 351 z m 141 274 b 143 275 144 275 145 275 b 146 275 148 273 150 273 l 150 278 b 149 278 147 277 145 277 b 144 277 143 278 143 280 b 138 279 140 276 141 274 z m 226 336 l 225 337 z m 205 353 l 205 354 z m 212 341 l 211 340 z m 207 333 l 207 330 z m 205 329 l 205 330 z m 212 360 l 211 359 z m 212 346 l 210 346 z m 155 275 l 155 280 l 150 280 l 150 278 z m 126 98 l 126 93 l 128 93 z m 656 261 b 648 272 640 273 631 273 b 620 273 612 269 608 259 b 602 243 593 229 584 215 b 576 202 535 141 522 133 b 517 129 512 125 508 121 b 496 114 493 106 486 104 b 487 101 484 99 483 98 b 478 90 472 82 463 79 b 459 77 455 76 452 73 b 440 61 431 54 415 47 b 404 42 391 39 381 31 b 377 28 373 25 368 23 b 357 19 344 16 333 11 b 328 9 324 9 319 9 b 317 9 315 9 313 9 b 312 9 311 9 310 8 b 308 7 306 6 304 6 b 301 6 297 6 294 6 b 292 4 290 4 287 4 b 285 4 283 4 281 4 b 280 4 279 4 278 4 b 277 4 276 4 274 4 b 272 4 269 4 267 3 b 261 0 255 0 249 -1 b 246 -1 243 -1 240 -1 b 235 -1 231 -1 226 -1 b 219 -1 212 1 207 6 b 195 16 186 29 179 43 b 177 48 174 54 175 58 b 176 64 176 69 176 73 b 176 78 177 83 174 88 b 173 90 173 93 174 95 b 176 101 176 108 179 112 b 184 120 183 128 184 136 b 185 148 186 160 196 169 b 198 179 202 183 203 189 b 203 193 212 208 217 210 l 237 211 b 241 211 245 210 249 210 b 254 210 258 211 263 212 b 266 214 269 216 273 216 b 275 216 277 215 279 213 b 290 212 296 216 303 218 b 306 220 308 222 312 222 b 323 222 333 225 342 232 b 352 234 356 237 360 239 b 367 242 375 246 382 248 b 389 251 396 255 404 258 b 412 262 419 267 426 271 b 441 281 455 293 471 302 b 477 306 484 309 488 315 b 493 320 498 325 503 329 b 530 352 590 408 603 442 b 608 451 613 459 613 469 b 619 479 622 483 625 488 b 629 493 627 499 630 504 b 632 508 629 513 631 518 b 634 522 630 528 635 532 b 633 538 637 543 637 549 b 637 576 625 609 607 630 b 599 639 588 645 579 651 b 577 653 573 651 571 654 b 570 656 568 657 567 657 b 565 657 564 656 562 655 b 560 654 558 654 555 654 b 553 654 551 654 550 655 b 544 657 541 657 535 657 b 532 657 528 657 524 657 b 522 657 519 657 517 657 b 516 657 515 657 514 657 b 508 657 502 654 496 654 b 492 654 488 655 484 655 b 476 655 469 654 462 650 b 450 649 440 641 429 637 b 427 633 424 633 420 633 b 419 633 418 633 416 633 b 413 633 410 632 407 630 b 399 624 391 617 380 616 b 370 608 360 603 351 597 b 344 593 317 574 314 567 b 312 563 308 560 304 559 b 299 556 295 553 290 549 b 277 536 268 518 251 509 b 243 497 231 487 222 476 b 217 470 212 466 208 460 b 203 451 184 418 175 413 b 166 407 163 399 160 390 b 159 387 158 383 156 381 b 148 372 142 362 135 352 b 126 342 119 329 114 316 b 105 317 101 323 95 326 b 77 340 56 373 56 397 b 56 403 57 409 58 415 b 59 418 59 422 58 425 b 57 430 62 432 61 436 b 60 440 64 442 64 445 b 64 453 67 461 72 468 b 77 473 75 492 70 498 b 61 504 52 506 43 506 b 34 500 25 496 23 486 b 21 479 18 472 15 465 b 11 458 8 450 5 441 b 2 431 2 420 -1 409 b -3 404 -2 398 -1 393 b -1 387 -5 382 -4 376 b -3 370 0 365 1 360 b 1 345 8 333 11 319 b 12 315 14 311 13 307 b 12 302 15 299 17 296 b 21 291 25 286 28 281 b 34 271 42 262 52 256 b 59 251 67 245 75 241 b 79 239 79 236 76 231 b 69 215 66 204 64 193 b 62 184 57 175 59 165 b 55 160 57 153 54 147 b 48 136 44 120 44 110 b 44 101 44 92 44 82 l 44 62 b 44 56 43 50 45 44 b 48 32 51 20 57 9 b 60 5 62 1 63 -2 b 70 -36 136 -71 169 -71 b 172 -70 176 -70 179 -70 b 184 -70 190 -70 195 -70 b 201 -70 206 -70 211 -70 b 215 -70 218 -70 222 -71 b 230 -71 237 -68 244 -68 b 245 -68 246 -68 247 -68 b 256 -68 263 -66 271 -64 b 275 -63 280 -61 285 -61 b 287 -61 288 -61 289 -61 b 305 -56 316 -53 327 -51 b 339 -50 350 -45 361 -43 b 368 -41 372 -37 377 -34 b 396 -26 414 -17 432 -8 b 437 -5 442 -2 444 3 b 447 9 452 10 457 11 b 465 14 473 17 478 24 b 488 39 502 50 518 59 b 528 64 532 68 536 75 b 540 81 543 89 549 92 b 564 101 572 116 584 127 b 589 140 599 149 608 159 b 614 164 619 170 622 176 b 632 194 644 210 655 227 b 659 233 660 256 656 261 z m 591 546 l 590 544 z m 579 558 b 582 558 584 556 584 553 b 579 552 577 553 577 557 z m 571 591 b 575 591 570 588 571 591 z m 175 206 b 174 211 176 209 175 206 z m 169 181 l 169 182 z m 182 196 b 181 198 178 199 179 201 z m 189 222 b 188 225 184 224 183 227 z m 211 254 l 211 256 z m 212 247 l 211 246 z m 220 277 b 229 272 229 271 228 270 z m 220 278 b 227 278 230 277 229 274 b 225 275 222 276 220 278 z m 239 236 b 232 241 223 239 224 245 b 232 245 235 241 238 238 z m 236 257 l 239 257 z m 244 258 b 241 259 237 260 234 262 b 240 266 244 266 244 261 z m 248 340 b 252 345 252 345 253 345 b 256 345 255 338 259 340 b 260 337 258 335 257 333 b 256 333 255 332 254 332 b 252 332 248 338 248 340 z m 240 407 b 242 410 236 411 239 414 b 241 412 243 412 245 412 b 247 412 248 412 250 411 b 246 408 252 406 249 405 b 246 400 240 407 240 407 z m 245 391 l 245 393 z m 253 433 b 256 433 258 433 261 433 b 258 426 262 426 265 426 b 266 423 267 419 270 419 b 267 415 273 409 267 407 l 265 402 l 265 407 b 258 418 263 420 263 422 b 259 422 256 421 253 419 l 247 417 b 247 430 248 430 253 433 z m 265 437 l 267 436 z m 248 375 b 256 372 255 370 255 368 b 252 370 247 368 248 372 z m 248 397 l 251 395 z m 269 263 l 269 266 z m 505 599 b 508 599 510 597 512 595 b 504 594 505 597 505 599 z m 456 621 b 462 619 461 615 464 612 b 467 609 470 608 469 605 b 458 613 457 616 456 618 z m 466 581 l 465 582 z m 434 613 b 435 606 434 608 433 611 z m 403 584 b 409 581 413 579 411 575 b 413 573 415 573 417 573 b 418 573 419 573 420 573 b 418 568 415 570 412 571 b 421 566 421 564 420 564 b 416 568 413 567 412 569 b 405 574 402 575 401 578 b 399 580 402 582 403 584 z m 392 566 b 396 566 399 565 396 561 b 399 559 400 555 402 556 b 407 552 407 550 407 548 b 402 548 400 549 397 550 b 399 556 392 556 390 559 z m 381 549 b 385 543 381 545 380 542 b 377 546 380 547 381 549 z m 369 561 b 370 557 372 554 367 553 b 365 558 368 559 369 561 z m 357 568 b 360 566 361 564 363 562 b 360 565 358 566 356 567 z m 361 560 b 356 561 356 564 356 567 b 362 561 362 560 361 560 z m 356 570 l 355 568 z m 356 541 b 361 534 368 535 369 530 b 375 528 375 523 375 518 b 384 515 381 511 385 509 b 384 508 383 508 382 508 b 378 509 378 513 376 515 b 371 523 370 526 367 526 b 360 526 358 533 354 537 z m 358 510 b 360 510 366 507 366 505 b 366 502 365 498 370 497 b 364 496 361 500 356 502 z m 371 454 b 375 457 378 461 380 465 b 386 479 397 488 409 496 b 421 508 432 514 440 523 b 447 530 451 539 461 542 b 463 550 470 550 476 552 b 481 553 487 555 491 560 b 495 564 499 565 505 566 b 511 566 518 567 524 569 b 526 570 527 570 528 570 b 530 570 531 570 532 568 b 537 564 542 567 545 563 b 547 560 545 556 546 553 b 550 544 545 536 545 528 b 544 523 544 517 541 511 b 531 496 528 484 524 473 b 522 468 519 463 515 460 b 505 450 498 438 489 426 b 485 422 481 418 475 414 b 468 409 462 403 456 397 b 449 391 440 385 436 376 b 435 373 432 370 429 369 b 425 368 422 365 418 364 b 414 363 413 358 408 357 b 404 356 405 349 400 349 b 391 338 378 334 366 329 b 357 326 348 322 340 316 b 331 309 319 306 308 302 b 297 297 286 296 276 292 b 275 292 274 292 272 292 b 270 292 268 292 266 292 b 263 304 266 312 270 320 b 276 328 289 351 294 360 b 308 370 314 382 320 393 b 325 401 328 409 337 413 b 340 415 343 419 345 423 b 354 442 354 442 371 454 z m 279 406 b 273 402 272 402 272 407 b 277 412 279 409 279 406 z m 282 429 l 282 428 z m 285 397 l 285 395 z m 292 463 l 293 464 z m 294 437 l 295 438 z m 317 470 l 316 472 z m 339 468 b 334 467 334 467 333 467 b 331 467 330 467 329 469 b 331 472 334 472 336 474 z m 330 443 b 325 440 322 446 323 449 b 328 450 330 448 330 443 z m 332 530 b 337 521 336 520 336 520 b 335 520 335 523 334 524 z m 326 508 b 329 506 330 505 332 503 z m 310 525 b 312 518 320 521 318 516 b 311 515 310 517 310 521 z m 299 505 b 313 493 318 490 323 486 b 326 480 332 480 329 475 b 326 476 325 479 322 480 b 316 484 313 487 311 492 b 309 495 307 496 303 496 b 299 497 297 501 299 505 z m 302 484 b 308 479 304 477 303 475 b 304 470 306 474 307 474 b 308 474 308 474 308 471 b 309 469 311 467 313 466 b 316 464 315 460 315 457 b 310 460 309 461 306 462 b 308 465 308 467 305 469 b 299 469 298 469 298 469 b 295 469 294 471 294 474 b 293 476 295 478 292 479 b 293 483 296 484 299 484 b 300 484 301 484 302 484 z m 278 462 b 279 462 280 462 281 462 b 283 462 284 463 285 464 b 287 462 285 458 289 457 b 283 460 279 461 277 462 z m 280 455 b 288 456 288 455 288 455 b 286 455 284 457 282 457 b 282 457 281 456 280 455 z m 262 453 b 267 442 274 444 274 442 b 275 440 276 438 277 438 b 278 438 279 439 281 441 b 285 443 282 447 287 448 b 287 444 288 442 284 441 b 285 436 284 436 282 436 b 281 436 280 436 279 436 b 277 436 275 435 273 435 b 271 435 270 436 269 440 b 269 441 265 442 263 444 b 261 446 260 448 259 450 z m 246 463 b 250 465 251 465 252 465 b 254 465 256 462 259 462 b 261 462 261 458 260 456 b 253 457 251 459 248 460 z m 242 441 b 245 436 248 436 250 435 b 250 434 249 433 248 433 b 247 433 246 434 245 432 z m 218 435 b 220 433 224 434 227 432 b 233 426 235 425 236 422 b 232 419 231 417 229 417 b 229 417 228 417 227 418 b 230 419 225 424 229 425 b 223 428 219 429 217 433 z m 214 392 l 214 390 z m 198 390 b 204 391 206 390 205 386 z m 180 384 b 182 384 185 384 186 381 b 186 377 182 379 180 377 z m 153 350 b 155 344 154 346 153 349 z m 147 327 l 147 326 z m 110 306 b 111 301 116 303 115 300 b 112 294 107 300 107 301 z m 103 189 b 106 189 108 187 111 186 b 113 185 114 184 115 184 b 116 184 116 185 116 188 b 117 190 115 193 119 194 b 119 197 114 196 114 197 b 116 199 116 202 118 204 b 116 208 115 208 113 208 b 112 208 111 208 110 208 b 109 208 108 208 107 209 b 104 211 104 213 104 216 b 109 213 112 211 114 209 b 104 218 104 219 106 220 b 110 213 114 214 117 213 b 120 211 118 209 119 207 b 125 207 127 208 130 208 b 131 208 132 208 133 208 b 133 212 132 211 132 211 b 130 211 129 214 128 216 b 126 219 125 222 121 224 b 116 226 116 231 116 237 b 115 237 114 237 113 237 b 111 237 109 237 108 239 b 107 241 103 242 105 245 b 111 250 112 245 114 246 b 121 251 122 251 123 251 b 124 251 125 251 126 251 l 116 256 l 116 254 b 115 259 113 262 111 266 b 113 276 111 272 111 269 b 113 269 116 271 118 271 b 119 271 120 270 121 270 b 123 267 124 265 126 263 b 131 261 132 261 133 261 b 134 261 136 261 135 264 b 122 275 128 286 122 288 b 129 291 127 284 132 285 b 136 286 138 282 142 282 b 148 284 151 286 147 289 b 143 291 140 294 137 297 b 135 298 135 301 133 303 b 139 304 143 301 146 300 b 150 299 151 295 155 294 l 159 299 b 164 301 165 303 161 306 b 158 308 162 309 162 311 b 163 310 164 310 165 310 b 168 310 171 312 174 312 b 173 318 180 317 181 321 b 169 319 167 321 167 323 l 166 323 b 167 337 167 337 168 337 b 169 337 170 334 171 335 b 184 331 185 335 188 334 b 186 341 182 347 176 350 b 171 353 170 360 172 361 b 176 363 177 359 179 358 b 183 354 184 354 185 354 b 187 354 188 346 188 344 b 191 346 191 347 193 347 b 193 347 194 347 196 346 b 188 350 198 353 195 354 b 191 360 195 361 192 364 b 190 366 194 367 193 370 b 198 365 206 369 207 369 b 211 368 208 374 212 374 b 218 377 220 379 224 378 l 222 388 b 227 385 227 389 230 388 b 234 392 234 399 239 398 l 241 398 l 241 388 b 247 381 247 381 244 378 l 239 371 l 236 374 l 231 374 b 233 366 235 363 232 359 b 231 359 230 355 234 354 b 234 351 234 349 233 348 b 223 348 224 342 227 340 l 234 340 b 232 334 230 333 228 331 b 226 328 225 326 230 325 b 226 322 223 326 220 326 l 215 326 b 217 324 221 325 218 320 b 217 318 221 315 224 316 b 225 308 230 304 234 300 b 238 298 242 297 241 291 b 239 287 237 289 236 292 b 232 297 227 298 227 301 b 227 303 226 304 226 304 b 225 304 223 300 222 303 b 221 304 220 306 219 306 b 218 306 217 306 216 304 b 215 305 215 306 214 306 b 213 306 211 304 210 304 b 212 293 211 291 214 290 l 212 278 b 212 267 212 264 210 261 b 209 259 208 259 208 259 b 206 259 205 259 203 261 l 203 263 b 199 267 194 264 198 261 b 194 262 190 262 188 266 l 186 266 b 187 261 188 261 189 261 b 191 261 191 258 191 256 b 193 255 195 254 195 251 l 203 249 b 203 244 202 241 206 240 b 212 238 209 232 212 229 b 207 229 204 231 203 234 b 201 240 197 239 193 239 b 193 242 197 243 195 246 b 192 246 189 246 186 249 b 184 242 183 241 179 242 b 164 234 165 234 165 234 b 167 234 168 231 169 232 b 170 242 169 244 166 244 b 159 245 164 250 158 249 b 155 248 155 251 152 251 l 145 242 b 146 240 147 240 148 240 b 150 240 152 242 155 242 b 152 238 149 236 155 234 b 151 230 159 226 155 224 b 156 221 159 220 162 220 b 165 213 170 210 163 210 b 162 210 162 206 161 206 b 160 206 159 206 158 208 b 157 205 155 202 159 201 b 157 195 153 192 150 188 b 148 185 146 189 145 191 l 144 191 b 151 192 147 198 150 199 b 141 202 140 198 136 198 b 139 194 141 193 140 189 b 144 185 144 184 140 182 b 142 178 143 176 143 172 l 145 172 b 151 183 152 183 152 182 b 153 178 150 175 148 172 l 135 172 l 135 171 b 131 173 130 172 130 172 b 128 172 127 175 126 174 b 123 165 125 161 125 161 b 124 160 123 160 123 160 b 120 160 120 163 118 166 b 112 164 111 163 110 163 b 109 163 108 163 108 164 b 110 160 108 156 110 155 b 123 156 124 152 124 148 b 136 158 139 159 140 155 b 144 149 144 147 140 144 b 134 142 129 145 129 142 b 128 137 125 134 126 129 b 130 137 131 139 135 138 b 130 131 132 129 130 127 b 113 133 112 134 110 134 b 109 134 108 133 107 134 l 102 134 l 107 134 b 104 135 114 138 106 138 b 111 143 109 144 108 147 b 107 153 107 156 107 160 b 96 159 94 162 92 164 b 98 165 100 164 101 164 b 103 164 104 165 105 169 b 111 168 115 168 116 172 b 111 172 109 174 109 179 b 110 183 108 185 104 184 z m 109 197 b 111 196 112 194 114 192 z m 110 189 b 112 191 111 190 110 189 z m 105 226 l 105 225 z m 207 254 l 206 254 z m 167 200 l 164 200 z m 162 238 l 163 237 z m 158 69 b 155 73 152 74 151 76 b 140 83 134 87 133 90 b 144 88 148 85 147 82 b 149 81 150 81 151 81 b 153 81 154 81 155 79 b 157 77 160 75 159 72 b 159 70 159 69 158 69 z m 137 61 b 136 62 135 64 135 64 b 134 64 133 63 132 60 b 132 58 131 55 129 53 b 123 49 124 47 128 47 b 131 38 127 37 123 35 b 120 40 117 40 113 40 b 110 48 107 46 107 42 b 103 45 106 47 107 50 b 103 49 100 51 100 54 b 99 57 101 58 104 59 b 104 64 104 64 99 69 b 97 68 97 72 95 70 b 89 73 87 75 90 77 b 87 78 84 80 82 82 b 80 84 78 86 76 88 l 74 93 b 81 89 86 87 91 85 b 94 84 87 82 92 81 b 105 85 99 88 97 93 l 97 95 b 94 107 98 107 100 109 b 102 110 103 106 105 105 b 111 105 109 101 109 98 b 110 89 111 89 112 89 b 115 89 117 91 120 90 b 123 90 125 88 126 86 b 128 80 129 77 128 74 b 136 66 136 66 137 66 b 139 66 140 66 142 66 b 143 65 146 64 143 61 b 142 54 138 57 137 61 z m 135 55 l 134 54 z m 128 29 l 127 28 z m 85 63 l 84 62 z m 87 233 l 89 232 z m 87 174 b 88 169 86 171 85 174 z m 104 127 b 107 125 108 124 111 124 b 114 124 116 120 119 122 b 116 117 119 117 119 113 l 126 110 l 126 112 b 126 107 128 105 131 105 b 131 110 134 111 133 113 b 138 105 138 105 137 105 b 136 105 133 106 134 105 b 134 103 134 101 131 97 l 128 90 b 125 93 124 93 123 93 b 122 93 121 93 121 96 b 125 102 119 103 119 107 b 113 113 109 110 110 114 b 103 117 102 118 101 118 b 99 118 99 117 99 114 b 97 121 97 121 104 122 b 105 123 100 125 104 127 z m 121 118 b 126 118 130 117 127 114 b 123 114 120 115 121 118 z m 147 166 b 141 162 137 162 134 162 b 136 165 138 165 139 165 b 141 165 143 165 145 165 z m 155 137 b 152 134 151 133 150 133 b 149 133 148 134 147 136 b 143 146 146 148 148 149 b 153 144 156 141 155 137 z m 145 110 l 144 110 z m 163 182 l 164 183 z m 147 183 l 145 182 z m 95 224 l 97 224 z m 102 178 l 104 178 z m 100 172 l 99 172 z m 84 266 b 86 268 89 269 89 267 b 90 262 95 263 96 260 b 90 260 88 262 86 263 z m 73 154 b 78 157 80 154 80 152 z m 71 70 b 78 69 81 64 81 59 b 86 60 89 57 92 54 b 86 49 82 51 81 54 b 78 58 76 61 72 63 b 70 65 71 68 71 70 z m 81 26 b 77 25 78 28 78 31 b 75 34 73 35 71 37 b 71 38 76 41 77 40 z m 97 12 b 90 11 86 19 88 22 b 94 23 98 15 97 12 z m 112 -3 b 110 0 104 -3 104 2 b 108 2 111 -1 113 -3 z m 105 8 b 104 6 104 7 105 8 z m 119 -13 b 115 -11 113 -9 114 -6 b 121 -12 120 -13 119 -13 z m 121 -10 b 118 -7 116 -5 114 -3 b 119 -5 122 -7 121 -10 z m 127 21 b 124 20 120 21 116 19 b 115 17 112 20 111 24 b 108 26 104 29 103 32 b 113 27 113 26 117 25 b 119 25 121 26 122 26 b 124 26 125 25 126 24 z m 137 -6 b 139 2 131 5 133 9 b 134 9 135 9 135 9 b 137 9 138 9 138 12 b 139 6 142 5 145 4 z m 143 -7 b 150 -8 148 -11 146 -11 b 145 -11 144 -10 143 -10 z m 151 -44 b 149 -43 147 -41 145 -40 b 150 -38 152 -39 152 -42 z m 144 -6 b 145 -4 149 -3 151 -3 b 148 -5 146 -6 144 -6 z m 151 12 b 149 15 147 17 145 19 b 144 22 147 24 148 25 b 154 20 154 16 159 15 b 156 8 152 10 151 12 z m 164 -21 b 162 -23 162 -26 161 -27 z m 165 31 b 162 33 161 37 157 39 b 163 40 166 37 168 35 z m 179 -4 b 179 -8 177 -9 174 -8 b 169 -7 170 -2 167 0 b 171 -1 174 -1 177 -1 z m 147 138 l 147 136 z m 151 76 b 152 76 150 78 148 80 z m 121 69 l 121 74 b 116 76 114 78 111 81 b 102 80 102 76 102 71 l 104 71 b 104 75 108 73 109 75 b 116 68 117 69 119 69 b 119 69 120 69 121 69 z m 126 83 l 126 86 z m 121 63 b 122 59 119 59 116 59 l 116 57 l 121 54 b 128 57 130 62 127 63 b 122 65 124 66 127 68 b 126 72 123 70 121 69 z m 107 66 l 107 69 z m 107 86 l 107 83 l 111 83 z m 113 82 l 111 81 z m 109 95 l 109 98 z m 107 86 l 107 88 z m 129 43 l 131 45 z m 97 95 l 97 93 z m 111 51 l 107 50 z m 107 52 b 108 57 107 59 104 59 b 105 57 102 53 107 52 z m 131 233 l 126 237 l 126 230 b 129 231 130 227 133 227 b 133 229 138 232 131 233 z m 140 230 b 142 233 142 233 140 237 b 137 234 137 232 140 230 z m 152 222 b 140 227 139 227 137 227 b 136 227 134 228 133 227 b 133 220 134 220 135 220 b 139 220 141 217 142 214 b 143 211 145 208 147 209 b 149 211 145 213 145 215 b 149 212 151 208 148 205 b 153 205 156 207 154 209 b 150 214 155 214 157 215 b 158 219 149 217 152 222 z m 125 189 b 119 185 119 185 123 182 b 120 176 116 174 116 172 l 121 172 b 128 177 129 177 131 177 b 132 177 133 177 135 177 b 139 185 139 185 140 185 b 142 185 139 188 140 189 b 138 189 136 191 135 194 b 131 189 131 189 125 189 z m 129 182 l 130 183 z m 143 246 b 137 244 141 241 140 237 l 145 237 l 145 242 z m 124 228 l 123 230 z m 158 213 l 157 215 z m 143 246 l 145 246 l 145 249 z m 143 263 l 143 261 z m 186 251 b 188 252 190 253 191 256 b 187 257 185 255 186 251 z m 195 246 l 195 249 z m 195 249 l 195 251 z m 174 244 l 179 244 z m 169 232 l 169 230 l 171 230 z m 170 248 l 171 249 z m 171 246 l 174 246 z m 176 249 l 174 249 l 174 246 z m 170 267 l 174 263 z m 175 263 b 173 259 175 254 173 254 b 169 254 173 259 171 260 b 165 256 169 253 171 249 l 174 249 l 186 251 b 178 255 178 255 175 263 z m 138 172 l 140 172 z m 150 273 b 152 271 143 268 151 268 b 155 266 156 265 157 265 b 159 265 160 267 161 269 b 163 273 160 274 157 275 z m 131 147 l 131 150 l 128 150 l 128 148 l 131 148 z m 139 153 l 140 155 z m 198 364 b 199 357 200 360 198 364 z m 229 376 l 224 376 z m 239 376 l 241 376 z m 224 386 l 222 386 l 222 383 z m 164 290 l 164 292 z m 169 292 b 171 296 171 297 167 297 l 167 292 z m 153 291 l 155 292 z m 157 290 b 159 288 164 292 164 292 l 164 297 l 159 297 l 155 292 z m 166 299 l 167 297 z m 174 290 l 171 290 l 171 282 b 176 283 173 287 174 290 z m 181 333 l 179 333 z m 194 275 b 197 274 198 277 198 279 b 193 283 202 286 200 287 l 193 287 b 193 285 196 283 196 280 z m 200 293 b 196 291 196 291 200 288 b 205 290 205 290 200 293 z m 187 281 b 185 291 187 285 185 285 b 184 285 183 286 182 287 b 181 285 179 283 179 280 l 183 275 b 184 278 184 278 187 281 z m 196 272 l 198 270 z m 183 270 b 178 275 174 276 179 271 b 181 268 183 264 186 266 l 186 268 z m 200 297 l 200 294 z m 191 270 l 183 275 l 183 270 z m 191 299 b 191 297 192 295 194 295 b 195 295 196 295 197 297 l 200 299 z m 204 303 l 205 302 z m 231 338 l 231 340 l 229 340 z m 213 334 l 215 333 z m 213 323 l 215 326 z m 177 266 l 176 268 z m 210 287 b 206 278 205 274 204 273 l 212 278 l 212 285 z m 236 374 l 239 374 l 239 376 z"},"W":{"x_min":0,"x_max":924,"ha":924,"o":"m 1001 568 b 996 570 998 575 994 576 b 990 577 987 579 983 579 b 979 579 974 580 971 583 b 966 587 960 588 953 588 b 951 588 950 588 948 588 b 946 588 945 588 943 588 b 938 588 933 589 930 593 b 927 595 925 596 922 596 b 921 596 919 595 918 595 b 913 593 906 592 905 587 b 904 583 900 579 902 575 b 903 571 900 567 898 564 b 894 560 892 555 890 550 b 887 544 884 539 880 534 b 873 526 868 517 865 507 b 864 502 862 498 859 493 b 852 483 848 473 844 462 b 841 454 839 446 834 439 b 836 434 832 429 832 424 b 831 419 825 416 823 411 b 816 396 808 383 800 370 b 796 364 792 357 792 345 b 789 335 782 327 777 318 b 774 313 772 308 769 303 b 767 299 767 294 766 290 b 762 276 753 266 745 255 b 741 251 739 247 738 242 b 737 236 735 230 731 224 b 725 215 721 205 717 195 b 713 187 709 178 700 173 b 695 170 693 166 693 161 b 693 154 688 149 687 142 b 677 127 669 111 659 96 b 655 89 651 82 645 76 b 641 71 637 64 632 61 b 624 56 618 50 613 43 b 605 32 595 24 586 15 b 582 10 576 6 570 5 b 559 5 545 12 544 25 b 544 29 544 33 544 37 b 545 41 541 45 544 48 b 544 64 550 77 556 91 b 559 98 561 104 564 111 b 565 117 568 122 569 128 b 571 134 577 138 577 147 b 580 149 580 152 581 160 b 589 170 594 183 602 193 b 605 198 607 203 611 208 b 613 211 611 216 611 221 b 611 228 614 235 618 241 b 623 248 630 255 633 264 b 640 286 653 306 660 329 b 662 334 667 338 666 344 b 673 353 675 364 683 371 b 689 376 695 389 695 395 b 695 402 699 407 703 412 b 707 416 708 419 707 424 b 706 435 710 445 715 455 b 717 459 719 462 721 466 b 723 470 721 472 718 476 b 713 481 707 483 702 488 b 699 493 693 495 687 495 b 686 494 684 494 682 494 b 681 494 681 494 680 495 b 678 496 677 497 675 497 b 673 497 670 497 668 497 b 666 499 663 499 661 499 b 660 499 658 499 657 499 b 656 499 655 499 651 499 b 646 501 643 501 640 501 b 633 501 629 498 623 489 b 618 482 616 474 608 469 b 606 467 605 464 605 462 b 604 457 601 454 599 450 b 598 446 596 443 597 439 b 597 436 597 433 594 430 b 591 428 591 422 586 422 b 585 417 579 414 580 407 b 581 400 578 395 573 390 b 568 386 564 380 562 374 b 560 366 556 359 554 351 b 550 341 547 330 539 323 b 535 319 534 316 534 311 b 535 305 533 299 530 295 b 524 286 518 279 518 268 b 514 264 514 257 510 253 b 507 249 505 243 503 238 b 501 224 495 211 489 198 b 484 188 478 178 475 168 b 474 162 471 157 468 153 b 462 145 458 137 453 129 b 452 125 450 124 447 122 b 443 120 438 117 439 111 b 439 104 434 98 429 95 b 420 90 417 83 414 75 b 413 68 401 57 395 54 b 390 52 387 48 384 45 b 376 40 368 34 364 25 b 363 22 361 19 359 18 b 353 16 351 10 345 7 b 334 7 314 11 311 23 b 309 29 308 48 309 53 b 310 59 311 66 314 70 b 321 80 323 90 324 102 b 324 111 326 120 332 128 b 335 132 337 136 338 141 b 338 146 340 152 343 155 b 350 162 350 171 352 180 b 353 186 355 193 358 199 b 361 206 367 212 368 220 b 370 226 372 233 376 238 b 383 245 384 253 383 261 b 383 265 385 266 386 269 b 387 274 391 276 394 280 b 396 284 395 289 396 293 b 400 302 404 311 407 320 b 411 329 415 337 420 345 b 424 352 431 359 433 367 b 436 378 441 388 444 399 b 445 405 448 412 453 417 b 463 428 468 442 469 456 b 470 462 471 467 481 474 b 485 479 492 496 494 502 b 496 515 500 521 507 533 b 509 536 512 539 513 544 b 515 554 518 563 524 569 b 535 580 541 593 547 606 b 549 612 553 619 551 625 b 548 633 546 642 537 648 b 525 656 499 663 484 663 b 483 663 481 663 480 663 b 477 665 473 665 470 665 b 466 665 463 665 459 665 b 458 665 456 665 455 665 b 453 663 450 663 447 663 b 445 663 443 663 441 663 b 439 663 437 663 436 662 b 429 660 428 660 420 660 b 419 660 417 660 416 660 b 415 660 413 660 412 660 b 409 660 407 660 404 660 b 400 660 397 659 393 658 b 388 656 385 655 382 655 b 379 655 375 656 367 658 b 366 658 363 658 361 658 b 360 658 358 658 357 657 b 353 655 349 655 345 655 b 344 655 343 655 342 655 b 338 655 334 655 331 653 b 326 651 321 651 316 647 b 309 642 300 639 291 639 b 282 638 273 636 264 636 b 262 636 260 636 254 635 b 226 623 197 611 169 600 b 157 596 152 592 144 583 b 142 580 139 579 135 578 b 128 576 120 575 115 567 b 108 556 97 547 83 545 b 80 544 77 541 75 538 b 68 525 59 514 49 505 b 40 502 37 494 33 488 b 26 476 19 463 13 450 b 10 443 5 436 5 422 b 3 415 3 408 -1 401 b -2 399 -2 396 1 393 b 5 389 4 384 4 379 b 4 376 4 373 4 369 b 4 366 6 363 7 360 b 12 353 38 325 45 321 b 55 315 65 309 78 310 b 80 310 82 310 85 310 b 87 310 90 309 92 307 b 94 308 96 308 97 308 b 100 308 103 307 106 307 b 109 307 113 308 117 309 b 125 313 135 314 144 317 b 145 317 147 317 149 317 b 152 317 156 317 159 317 b 161 317 163 317 165 317 b 172 319 178 324 190 329 b 192 330 194 329 196 329 b 197 329 197 329 198 330 b 199 332 198 336 198 345 b 197 348 198 352 193 353 b 191 354 189 356 187 358 b 184 361 183 362 181 362 b 179 362 177 361 167 354 b 163 355 158 356 154 356 b 149 356 145 355 141 353 b 139 352 138 352 137 352 b 136 352 135 352 129 355 b 122 355 119 361 114 365 b 109 371 110 377 108 383 b 106 388 106 393 108 397 b 109 402 103 406 106 410 b 108 414 110 418 112 425 b 114 430 116 435 117 441 b 117 444 140 468 143 471 b 145 473 147 477 148 479 b 148 485 152 487 156 490 b 158 492 161 494 163 497 b 168 506 176 510 185 515 b 189 517 193 518 199 528 b 207 532 213 538 222 541 b 232 544 241 552 251 558 b 253 559 255 559 257 562 b 266 572 267 572 279 576 b 285 578 292 580 297 583 b 308 589 320 594 337 603 b 358 608 380 612 402 615 b 406 619 411 619 416 619 b 420 619 424 619 428 619 b 432 619 436 615 433 611 b 431 608 431 604 428 600 b 419 588 411 574 406 559 b 405 555 403 552 400 548 b 396 543 392 537 393 530 b 394 523 390 517 385 514 b 379 512 378 508 376 503 b 374 496 371 489 370 482 b 368 474 363 467 361 459 b 357 448 352 436 340 423 b 341 418 339 414 338 409 b 337 402 334 395 329 391 b 319 383 316 372 314 361 b 313 355 310 352 307 347 b 305 343 308 336 303 329 b 299 323 296 316 292 310 b 288 304 282 297 283 289 b 283 281 281 274 275 268 b 271 264 270 259 270 253 b 271 251 271 248 270 246 b 264 237 264 226 257 218 b 255 216 254 213 254 211 b 252 200 245 191 240 182 b 234 172 229 163 230 151 b 230 141 226 130 219 121 b 217 117 215 114 213 110 b 206 98 202 84 203 70 b 204 64 203 58 198 54 b 194 50 194 45 194 40 b 192 27 197 15 196 3 b 195 -10 197 -21 206 -31 b 215 -40 219 -55 242 -59 b 246 -61 251 -62 255 -65 b 257 -67 259 -67 262 -67 b 264 -67 266 -67 268 -67 b 270 -67 273 -67 281 -67 b 287 -66 292 -65 298 -65 b 301 -65 304 -65 308 -67 b 309 -67 310 -68 311 -68 b 313 -68 316 -66 318 -64 b 322 -60 326 -56 330 -55 b 339 -54 347 -48 356 -48 b 362 -47 367 -44 371 -40 b 375 -35 378 -33 384 -31 b 390 -29 395 -26 399 -22 b 404 -16 408 -10 412 -4 b 415 1 418 6 425 7 b 426 8 427 8 428 8 b 430 8 432 7 431 4 b 429 -5 436 -12 440 -19 b 446 -30 457 -38 468 -46 b 476 -52 487 -53 495 -60 b 501 -59 504 -64 509 -65 b 513 -65 517 -65 520 -65 b 523 -65 526 -65 529 -65 b 537 -64 543 -67 550 -67 b 561 -68 572 -64 583 -64 b 584 -64 585 -64 586 -64 b 590 -65 594 -62 597 -58 b 602 -52 606 -45 615 -45 b 628 -40 637 -35 649 -21 b 653 -16 658 -12 663 -9 b 667 -6 693 24 696 28 b 700 34 704 41 712 45 b 716 47 721 49 723 53 b 727 60 733 65 738 70 b 741 73 760 95 760 99 b 761 113 768 123 778 132 b 787 141 795 151 800 162 b 808 177 816 191 827 203 b 833 210 837 217 839 226 b 841 234 846 241 852 247 b 857 247 858 252 858 254 b 859 265 866 273 872 281 b 874 284 876 286 875 289 b 875 295 878 299 882 303 b 887 308 893 314 892 323 b 896 325 894 329 896 332 b 902 339 907 347 912 355 b 916 361 920 367 918 374 b 917 380 925 381 924 386 b 933 389 933 397 935 404 b 936 407 937 410 939 412 b 945 420 947 430 952 439 b 955 445 958 452 957 459 b 956 462 958 465 960 468 b 967 476 973 484 978 493 b 984 503 985 515 988 526 b 991 536 992 546 1000 554 b 1003 556 1004 568 1001 568 z m 635 345 b 635 348 638 349 640 349 b 641 346 637 345 637 343 z m 635 376 l 637 375 z m 657 423 b 655 422 654 419 654 425 z m 646 427 b 644 427 640 430 641 437 z m 637 410 b 639 407 645 409 637 402 b 637 404 632 405 634 408 z m 616 341 b 618 340 623 336 614 340 z m 455 535 b 457 533 458 531 458 527 z m 478 533 b 476 535 474 537 472 541 b 467 545 465 544 464 545 b 462 546 461 549 462 553 b 464 551 467 550 470 549 b 474 549 471 546 474 542 b 476 540 478 538 479 534 b 476 538 474 540 472 541 b 479 534 478 533 478 533 z m 478 561 b 480 563 478 567 481 565 b 483 564 486 566 486 563 b 484 560 483 558 478 561 z m 471 607 b 476 608 474 603 475 600 b 470 600 469 601 469 607 z m 450 563 b 450 565 451 566 451 566 b 452 566 453 564 454 564 b 459 564 457 562 450 563 z m 443 545 b 445 544 449 538 447 535 b 445 538 441 539 443 545 z m 38 400 b 45 395 45 394 43 394 z m 45 398 b 42 399 40 400 45 398 z m 67 431 l 68 432 z m 46 420 b 44 422 49 423 46 420 z m 54 449 b 57 449 58 447 52 446 z m 69 370 b 64 370 62 374 60 381 b 61 382 63 382 64 382 b 65 382 66 382 66 380 b 66 376 68 374 69 370 z m 70 396 b 67 398 71 402 68 403 b 65 404 62 403 64 410 b 66 406 70 406 75 402 b 73 400 75 397 72 396 z m 71 456 b 72 459 74 461 79 460 b 77 458 75 456 73 454 z m 93 462 b 94 466 91 467 89 469 b 87 471 87 473 83 473 b 80 472 82 477 80 478 b 78 479 82 482 82 485 b 85 482 89 480 93 472 b 97 471 99 468 98 460 z m 399 399 b 397 402 396 404 391 404 b 391 410 386 413 384 419 b 405 399 400 397 399 399 z m 387 420 b 392 413 397 407 405 401 b 391 412 386 417 383 419 z m 420 503 b 426 502 424 500 420 503 z m 418 471 b 417 472 414 473 417 478 z m 414 422 b 415 418 417 415 420 411 b 418 413 413 413 413 416 b 412 420 410 420 408 425 b 410 425 413 424 414 422 z m 400 461 b 407 457 407 456 406 457 z m 384 449 b 390 448 394 445 393 437 b 387 437 387 444 382 448 z m 383 394 b 389 394 390 392 381 394 z m 376 401 b 373 402 371 403 371 403 z m 369 403 b 376 399 374 398 373 397 z m 369 340 b 370 342 366 343 367 348 z m 307 194 b 314 191 314 189 307 194 z m 325 233 b 321 236 318 240 316 245 b 320 245 327 240 325 233 z m 333 227 b 338 223 336 223 334 223 z m 340 224 b 336 226 334 227 333 228 z m 339 254 l 340 254 l 338 253 z m 334 319 b 335 319 342 314 338 311 b 336 313 332 311 333 316 z m 335 288 b 335 287 339 283 335 283 b 334 283 333 283 328 286 b 327 289 324 292 327 295 z m 321 302 l 320 302 z m 314 278 b 316 278 318 276 317 271 b 315 273 313 274 314 278 z m 276 129 b 278 131 280 133 276 129 z m 268 109 b 268 113 270 113 277 111 z m 271 174 b 274 176 272 170 273 168 b 270 167 267 169 271 174 z m 261 118 b 263 117 266 118 263 115 b 262 116 258 114 259 119 z m 256 126 l 255 127 z m 256 92 b 255 94 253 96 255 96 b 256 96 256 96 258 96 z m 246 110 b 246 110 249 108 249 104 b 249 103 248 103 246 103 b 245 103 244 103 242 104 b 241 107 243 109 246 110 z m 236 24 b 237 24 238 25 239 25 b 242 25 244 22 241 15 b 239 18 237 20 235 23 z m 242 71 b 241 72 247 80 248 79 b 249 77 251 74 247 70 z m 261 65 b 265 64 264 60 257 58 b 253 60 254 63 254 67 z m 258 7 b 260 6 261 1 261 -2 b 257 1 255 2 254 4 z m 268 16 b 268 19 268 21 268 26 b 271 22 274 21 275 18 b 275 16 271 18 268 16 z m 280 45 b 280 41 282 41 282 34 b 282 34 275 37 275 38 z m 283 1 b 282 3 284 6 284 9 b 286 7 286 4 286 0 z m 286 91 b 284 94 281 96 280 101 b 284 101 289 97 286 91 z m 297 -12 b 293 -11 291 -7 295 -2 b 297 -5 298 -7 297 -12 z m 300 110 l 301 110 l 300 108 z m 566 206 b 563 206 563 210 563 214 b 564 211 566 210 567 207 z m 579 250 b 577 250 576 253 582 250 z m 588 243 b 587 246 591 245 592 240 z m 604 323 b 606 321 609 318 609 314 b 604 316 602 318 602 323 z m 598 302 b 601 302 598 298 596 295 b 595 296 593 295 592 295 b 591 295 590 296 590 298 b 590 300 588 303 591 304 b 592 305 595 303 598 302 z m 577 316 b 577 315 579 314 580 314 b 581 314 583 315 584 315 b 585 315 587 314 584 307 b 578 307 576 309 577 316 z m 578 226 l 574 233 z m 555 214 b 554 215 551 216 558 217 z m 556 253 b 556 249 554 248 549 249 b 549 252 551 254 554 254 z m 509 115 b 512 114 513 110 517 104 b 516 103 516 103 515 103 b 513 103 511 104 508 107 b 506 109 504 111 509 115 z m 499 120 b 497 120 494 123 497 127 z m 495 65 b 496 63 498 62 500 62 b 502 62 503 63 505 61 b 502 62 499 62 496 63 b 504 57 502 55 499 55 b 495 56 493 60 494 64 b 488 65 486 65 486 69 b 486 71 487 76 491 70 z m 489 60 b 489 57 489 55 486 55 z m 474 87 b 472 89 469 91 470 94 z m 460 97 l 464 100 z m 446 35 b 446 33 445 30 447 27 z m 459 39 b 467 33 467 32 463 32 b 461 34 459 37 454 43 b 449 46 448 47 448 48 b 447 53 442 57 436 61 b 437 64 431 66 434 68 b 436 70 438 67 443 62 b 447 60 449 55 453 55 b 454 55 455 55 456 55 b 457 56 458 48 458 48 b 455 49 453 46 459 48 b 462 47 467 37 467 34 b 464 36 462 37 459 39 z m 481 27 b 476 27 478 24 478 22 b 477 22 476 22 475 22 b 473 22 472 23 472 25 b 472 28 473 30 481 27 z m 478 43 l 477 42 z m 484 38 b 482 42 481 45 479 48 b 478 50 477 46 476 46 b 475 46 475 46 474 49 b 474 51 470 53 467 60 b 463 60 465 64 467 66 b 469 63 475 67 479 58 b 484 57 482 54 479 48 b 481 49 482 48 484 48 b 485 48 486 48 486 50 b 490 49 493 48 490 43 b 485 45 487 39 485 38 z m 494 31 b 490 30 491 35 490 37 b 488 40 493 38 499 37 b 501 36 504 36 494 31 z m 500 -29 l 500 -31 z m 503 -6 b 497 -2 496 -2 504 -2 b 505 -2 507 -2 508 -2 b 509 -2 510 -2 513 -9 z m 511 17 b 510 17 504 21 504 21 b 507 22 506 27 507 26 b 509 24 514 26 511 17 z m 510 46 b 510 49 510 50 508 50 b 507 50 506 50 502 48 b 501 52 502 53 506 54 b 507 55 509 55 510 55 b 513 55 515 53 515 49 b 515 46 514 46 513 46 b 512 46 511 46 510 46 z m 520 81 b 521 79 519 75 515 73 z m 520 44 l 519 44 l 519 45 z m 522 158 b 523 158 524 158 525 158 b 528 158 530 158 531 156 b 533 154 535 153 534 150 b 534 149 533 149 532 149 b 530 149 528 150 521 158 z m 522 3 b 523 5 525 7 530 6 b 528 4 526 2 524 0 z m 539 114 l 538 113 z m 540 195 b 537 197 536 204 539 206 b 543 207 541 202 541 195 z m 812 262 b 810 264 808 266 808 269 b 811 269 814 269 812 262 z m 848 384 b 850 382 852 380 851 374 b 846 374 844 374 844 376 b 845 379 847 381 848 384 z m 825 274 b 825 276 827 279 834 275 b 832 273 832 270 829 271 z m 834 298 b 831 302 825 301 825 310 b 829 310 831 308 836 298 z m 851 320 b 850 320 849 319 848 319 b 846 319 845 320 844 321 z m 902 507 b 902 507 903 507 904 507 b 906 507 908 506 899 503 z m 881 432 b 878 435 876 438 874 444 b 876 442 879 442 881 441 b 883 441 884 437 884 431 z m 882 467 b 882 465 884 463 884 458 z m 891 458 b 892 459 897 453 891 458 z m 895 389 b 892 389 891 391 890 393 z m 898 478 b 897 481 891 478 896 487 b 897 485 898 482 899 479 z m 907 437 b 905 438 902 439 902 443 b 903 443 908 440 907 437 z m 916 496 b 915 492 917 490 914 486 b 914 490 911 491 909 493 z m 927 514 b 928 511 931 512 931 505 z m 942 498 b 941 497 940 494 937 495 z m 491 69 l 490 68 z m 642 433 l 643 431 z"},"A":{"x_min":0,"x_max":773,"ha":773,"o":"m 813 259 b 808 264 803 269 798 274 b 797 275 795 277 792 276 b 786 275 779 273 775 268 b 770 258 762 250 756 241 b 751 233 743 226 741 210 b 738 204 733 198 727 195 b 721 191 721 183 717 178 b 714 174 711 170 707 167 b 703 162 698 158 694 153 b 690 149 686 146 681 144 b 675 142 669 139 665 134 b 660 128 654 124 647 121 b 641 117 633 118 625 113 b 623 113 620 113 617 113 b 615 113 614 113 612 113 b 607 114 603 110 599 111 b 594 111 589 111 584 111 b 579 111 573 111 567 111 b 566 111 565 111 564 111 b 559 111 557 113 560 117 b 564 123 565 130 568 137 b 569 140 567 145 571 148 b 576 151 578 157 579 163 b 581 169 584 175 586 181 b 590 195 594 210 606 221 b 610 224 612 229 612 235 b 613 245 617 255 623 264 b 630 274 634 286 638 297 b 644 312 649 328 656 343 b 657 345 659 348 660 351 b 661 356 664 361 667 367 b 672 375 678 382 680 391 b 684 402 688 414 694 424 b 699 433 702 441 703 451 b 704 458 705 466 711 472 b 715 477 716 483 717 489 b 720 500 724 511 726 523 b 726 531 730 539 730 547 b 729 552 729 558 730 563 b 730 568 729 572 726 576 b 722 581 723 586 722 591 b 722 596 722 603 719 606 b 715 612 712 620 706 625 b 700 631 692 635 682 644 b 673 647 664 650 657 657 b 655 660 653 660 650 660 b 649 660 648 660 641 658 b 637 658 632 658 627 658 b 624 658 621 658 618 658 b 613 659 608 659 604 661 b 601 662 599 662 596 662 b 594 662 592 662 590 661 b 585 659 580 660 576 657 b 566 650 555 645 544 641 b 536 637 527 634 521 626 b 515 617 508 609 499 603 b 496 601 492 600 489 597 b 482 589 472 584 468 571 b 465 567 441 536 436 531 b 428 524 422 514 418 504 b 415 499 413 494 407 492 b 403 491 400 486 399 482 b 398 473 392 468 386 462 b 382 458 379 454 378 449 b 376 441 372 436 367 431 b 363 427 361 422 360 417 b 358 412 358 406 351 402 b 345 399 340 393 338 378 b 335 372 332 367 329 361 b 320 348 311 334 303 319 b 295 302 288 284 273 272 b 271 270 268 266 269 263 b 270 255 265 250 260 245 b 256 241 253 236 252 230 b 251 226 250 221 247 218 b 240 210 234 201 223 192 b 220 192 216 192 213 192 b 211 192 209 192 208 193 b 199 197 190 197 181 197 b 178 197 176 197 173 197 b 163 197 161 196 153 190 b 149 187 152 182 151 175 b 151 167 157 161 165 161 b 174 161 184 160 192 156 b 197 154 198 154 195 149 b 192 143 189 137 185 132 b 181 125 179 123 174 121 b 163 115 153 106 146 95 b 143 90 139 86 133 85 b 118 81 105 72 89 69 b 87 68 86 67 84 67 b 80 67 76 70 72 71 b 66 73 65 81 62 94 b 62 100 64 105 69 109 b 76 114 75 120 73 128 b 72 134 68 138 64 142 b 60 145 56 147 51 147 b 48 147 45 146 42 144 b 38 141 35 137 31 136 b 20 131 19 120 12 113 b 9 99 1 86 0 67 l 4 60 b 7 55 9 49 12 43 b 15 38 17 33 21 28 b 31 16 59 3 76 3 b 78 2 80 2 83 2 b 95 2 107 5 119 5 b 135 5 143 6 156 15 b 167 23 178 30 192 32 b 195 32 198 33 199 35 b 205 42 213 45 219 52 b 226 60 235 68 242 76 b 247 81 252 85 259 88 b 264 90 268 93 270 99 b 272 104 275 107 279 110 b 283 114 287 115 292 115 b 294 115 296 115 298 114 b 306 112 313 109 321 108 b 329 106 337 104 343 98 b 350 90 355 89 365 89 b 371 89 375 88 379 83 b 385 76 391 75 399 75 b 404 75 408 73 412 71 b 416 70 420 69 422 66 b 424 62 420 58 418 54 b 411 32 402 11 391 -9 b 390 -10 388 -13 389 -16 b 390 -24 385 -30 377 -42 b 376 -53 378 -64 384 -77 b 391 -81 397 -88 407 -89 b 413 -90 420 -91 426 -95 b 429 -98 433 -98 437 -98 b 439 -98 442 -98 451 -96 b 466 -97 478 -78 477 -66 b 477 -60 479 -55 483 -51 b 487 -45 491 -39 492 -33 b 492 -27 495 -21 498 -17 b 503 -11 505 -3 511 10 b 510 20 514 30 520 38 b 523 42 525 44 530 43 b 539 43 547 41 556 39 b 559 38 561 38 564 38 b 567 38 570 38 573 39 b 574 39 575 39 575 39 b 581 39 585 36 590 36 b 604 36 612 38 624 45 b 631 49 640 51 648 53 b 654 54 659 56 664 58 b 672 61 694 74 699 80 b 710 90 723 100 731 113 b 732 115 734 117 736 118 b 745 124 752 131 756 141 b 761 151 765 161 772 170 b 775 173 777 176 779 178 b 783 181 797 206 798 210 b 800 216 803 222 808 226 b 812 230 814 235 816 241 b 820 249 817 254 813 259 z m 683 538 l 683 540 z m 676 521 b 677 518 677 516 676 511 b 674 514 672 516 674 521 z m 666 464 l 664 468 z m 662 442 b 666 443 664 438 662 436 b 665 438 658 440 662 442 z m 247 134 b 247 132 248 130 243 130 z m 278 192 l 276 192 z m 268 144 b 270 145 271 142 271 139 z m 283 211 b 283 213 286 217 283 211 z m 561 302 l 559 301 z m 578 287 b 577 285 574 284 574 282 b 571 287 571 287 576 289 z m 579 248 b 577 249 575 253 577 257 b 580 257 583 255 583 253 b 580 252 582 247 579 248 z m 594 267 b 591 265 589 269 587 276 b 587 271 593 272 594 267 z m 595 359 l 593 359 z m 603 315 b 601 316 598 316 596 321 b 598 322 601 322 602 326 b 603 323 604 319 603 315 z m 602 346 b 599 345 597 346 600 351 b 601 350 602 349 604 349 b 604 349 605 349 607 347 z m 624 359 l 626 358 z m 627 386 l 628 384 z m 633 406 b 632 408 630 410 636 407 z m 651 479 b 649 481 645 482 646 486 b 646 488 650 485 653 481 z m 460 464 b 465 463 466 460 464 454 b 462 456 458 456 458 465 z m 437 462 b 432 458 438 456 436 451 b 433 454 430 456 431 461 b 429 464 433 464 433 466 z m 439 399 b 435 398 439 391 435 392 b 433 393 430 393 427 398 b 428 402 431 404 434 403 z m 424 466 l 424 468 z m 424 439 b 427 434 427 433 421 435 b 419 437 416 438 418 441 z m 422 416 b 422 413 420 411 415 412 b 415 416 417 417 420 418 z m 412 447 l 412 449 z m 392 317 b 389 317 388 319 389 322 z m 393 379 b 401 371 401 370 394 371 b 393 373 394 376 392 380 z m 399 339 b 395 338 393 339 393 343 z m 396 411 b 396 408 393 408 395 413 z m 383 389 b 386 386 389 383 386 379 b 383 380 385 384 379 388 z m 375 370 b 377 367 378 365 376 360 b 373 361 371 366 372 369 z m 369 341 b 372 341 378 338 370 333 b 370 336 366 337 367 340 z m 358 323 b 355 325 353 327 353 329 z m 350 303 b 354 303 353 300 350 303 z m 345 337 l 344 339 z m 345 274 b 352 273 353 267 355 262 b 350 264 347 269 345 274 z m 334 285 b 337 280 335 282 332 283 z m 327 230 l 328 229 z m 317 236 b 318 238 319 240 320 243 b 322 241 325 239 317 236 z m 409 142 b 407 141 406 141 404 141 b 391 141 379 146 367 150 b 355 155 342 159 329 161 b 327 161 326 164 322 166 b 325 169 328 173 331 176 b 334 180 338 184 342 187 b 351 196 357 205 360 217 b 362 222 364 228 369 231 b 374 236 377 241 380 247 b 384 256 388 264 398 277 b 399 284 404 288 408 292 b 414 298 417 304 420 312 b 424 324 445 355 454 364 b 456 366 457 369 458 371 b 464 385 473 397 481 411 b 485 418 490 425 492 433 b 495 441 498 448 503 454 b 511 465 515 477 521 489 b 523 495 527 501 530 507 b 532 509 534 510 536 512 b 542 516 548 522 550 531 b 552 537 555 544 560 549 b 565 555 569 562 576 568 b 582 573 586 581 593 587 b 598 592 605 596 611 600 b 613 602 615 602 617 602 b 619 602 621 602 624 601 b 629 599 634 598 637 591 b 637 589 640 588 643 582 b 640 572 640 562 637 552 b 634 542 630 533 626 524 b 621 514 616 504 617 492 b 617 485 611 482 609 476 b 601 471 600 462 598 454 b 594 444 590 435 586 424 b 583 414 579 404 574 395 b 571 389 568 383 567 371 b 554 359 548 343 543 326 b 542 323 531 300 530 299 b 532 292 527 288 523 284 b 518 280 516 275 516 269 b 515 257 510 246 502 238 b 492 227 486 215 484 200 b 484 196 482 192 480 188 b 470 173 462 158 456 141 b 455 138 457 135 454 131 b 453 130 453 127 450 127 b 450 127 449 127 448 128 b 442 130 434 130 428 135 b 422 139 416 142 409 142 z m 539 170 b 535 170 533 172 532 180 b 532 180 534 181 535 181 b 536 181 537 180 539 170 z m 537 137 b 533 139 537 143 541 145 b 543 143 542 140 545 138 z m 530 206 b 530 207 536 212 540 207 b 540 205 539 204 538 204 b 537 204 536 204 530 206 z m 520 192 b 525 193 528 190 526 183 b 524 183 519 188 518 190 z m 520 96 l 520 95 z m 497 95 b 500 89 500 89 497 84 l 494 82 b 494 79 492 78 491 78 b 490 78 489 78 488 79 b 488 81 490 82 491 82 b 492 82 493 81 498 98 z m 496 108 l 495 107 z m 498 75 l 499 76 z m 475 108 b 475 110 475 113 481 113 b 482 109 484 108 486 108 b 487 108 488 108 485 106 b 483 105 481 108 478 108 z m 489 111 l 488 112 z m 493 132 l 491 127 z m 462 60 l 461 59 z m 462 65 l 462 63 z m 454 69 b 454 73 457 74 461 76 b 461 75 459 71 458 69 z m 450 104 b 445 104 444 107 447 115 b 449 115 452 116 451 112 b 450 107 457 108 459 100 b 458 99 457 98 456 98 b 455 98 454 99 454 100 z m 430 -26 b 427 -25 428 -18 423 -17 b 426 -15 434 -19 430 -26 z m 433 36 l 433 34 z m 439 53 b 441 55 443 56 445 58 b 448 55 451 52 452 46 b 450 50 445 47 439 53 z m 455 -19 b 453 -15 449 -18 446 -15 b 451 -12 445 -11 448 -5 b 452 -9 456 -12 457 -19 z m 466 28 b 465 31 468 32 471 27 z m 475 63 l 473 62 z m 473 78 b 473 80 472 83 485 84 b 483 81 487 80 487 78 b 487 74 485 73 481 70 z m 492 31 b 489 32 490 37 488 43 b 491 43 497 38 496 35 z m 502 53 b 498 53 496 57 495 59 b 494 61 492 60 491 60 b 490 60 490 60 496 66 b 499 63 503 60 506 54 z m 504 102 l 502 103 z m 506 90 l 504 91 z m 511 73 l 510 72 z m 509 115 b 510 112 507 111 506 108 b 506 106 505 106 504 106 b 503 106 502 106 512 118 z m 509 138 b 507 141 503 141 501 144 b 499 145 500 150 498 156 b 503 152 507 146 512 137 z m 516 167 b 513 165 512 170 516 167 z m 544 76 b 544 75 543 74 541 74 b 540 74 539 75 538 87 b 538 84 540 82 542 82 b 547 82 545 77 544 76 z m 545 221 b 540 220 543 227 540 230 b 549 223 547 222 545 221 z m 541 231 b 545 231 549 229 550 226 b 545 228 542 230 540 230 z m 553 161 l 552 159 z m 554 211 b 552 213 551 216 552 219 b 554 217 556 216 554 211 z m 565 82 b 564 84 561 84 566 85 z"},"f":{"x_min":0,"x_max":271,"ha":271,"o":"m 316 249 b 311 260 304 268 293 272 b 291 273 289 273 286 273 b 280 273 274 270 266 267 b 265 260 259 255 259 248 b 259 242 258 237 254 233 b 241 221 232 205 223 190 b 215 177 207 163 191 156 b 188 154 184 151 183 148 b 179 138 170 135 162 132 b 157 130 152 127 148 125 b 137 119 127 111 110 111 b 108 120 107 130 103 139 b 100 145 98 151 98 159 b 100 171 93 181 86 191 b 82 196 82 200 83 207 b 85 215 90 220 92 228 b 95 241 98 254 106 266 b 107 269 109 271 110 274 b 114 290 122 303 129 318 b 136 331 143 344 148 358 b 149 362 150 365 153 368 b 159 372 163 379 164 386 b 166 393 169 398 172 404 b 174 408 178 412 177 417 b 176 423 180 429 183 433 b 188 440 190 447 194 454 b 197 459 199 464 203 468 b 207 473 216 494 216 499 b 215 507 219 511 224 515 b 226 517 230 520 230 522 b 229 527 233 531 233 535 b 232 540 234 543 241 551 b 245 558 249 564 253 571 b 258 579 264 586 268 595 b 270 601 273 606 278 610 b 282 613 281 616 279 620 b 275 629 264 648 254 648 b 253 648 252 648 249 650 b 241 652 234 655 225 655 b 221 655 217 655 213 655 b 211 655 208 655 205 655 b 198 656 195 657 192 657 b 190 657 188 657 183 655 b 180 654 177 653 178 649 b 178 643 175 638 172 634 b 166 627 164 618 161 609 b 157 599 154 588 147 580 b 138 569 130 557 125 544 b 123 541 122 539 122 536 b 124 527 119 521 114 516 b 110 512 108 508 105 504 b 99 492 96 479 91 467 b 87 455 83 442 73 432 b 71 429 69 426 70 422 b 70 415 67 411 62 406 b 60 404 58 402 53 395 b 53 385 50 376 41 362 b 38 356 35 349 32 343 b 27 333 21 323 16 313 b 13 305 10 298 9 290 b 9 284 8 278 4 275 b -1 270 -3 264 -4 258 b -6 250 -9 242 -13 234 b -16 226 -18 218 -24 210 b -29 202 -33 193 -36 184 b -40 174 -42 163 -50 155 b -56 141 -64 129 -69 115 b -71 107 -73 99 -77 92 b -82 81 -87 69 -87 56 b -87 52 -88 46 -92 43 b -94 41 -95 39 -97 37 b -102 28 -104 18 -106 8 b -107 2 -108 -4 -113 -9 b -118 -13 -120 -20 -120 -27 b -120 -35 -122 -43 -125 -50 b -127 -54 -130 -58 -130 -63 b -129 -68 -132 -72 -135 -76 b -139 -82 -142 -89 -142 -97 b -141 -107 -140 -116 -144 -125 b -147 -129 -147 -134 -148 -139 b -150 -145 -150 -153 -148 -160 b -146 -168 -143 -176 -139 -184 b -135 -191 -130 -197 -127 -205 b -126 -208 -122 -211 -118 -212 b -112 -213 -106 -214 -102 -219 b -97 -224 -91 -226 -84 -226 b -79 -225 -76 -229 -71 -229 b -70 -229 -69 -228 -68 -228 b -64 -233 -60 -233 -54 -233 b -53 -233 -51 -233 -49 -233 b -48 -233 -48 -233 -47 -233 b -43 -232 -38 -233 -33 -231 b 4 -219 39 -202 64 -172 b 66 -170 69 -172 70 -169 b 72 -163 74 -157 79 -153 b 81 -141 87 -130 91 -119 b 95 -108 98 -97 102 -86 b 104 -81 107 -76 108 -71 b 109 -61 107 -51 113 -38 b 113 -29 111 -19 115 -10 b 113 2 119 15 118 32 b 120 34 119 37 122 38 b 127 41 132 43 138 45 b 146 48 155 51 160 58 b 163 62 167 63 171 65 b 180 69 190 74 197 83 b 199 86 203 87 207 89 b 212 91 217 94 220 99 b 226 108 233 117 241 125 b 247 130 253 134 252 143 b 256 148 257 154 263 158 b 269 163 274 170 276 178 b 277 182 279 186 283 188 b 287 191 288 195 290 198 b 296 209 299 220 308 228 b 312 232 314 238 316 249 z m 180 571 b 183 571 186 571 180 571 z m 160 468 b 156 466 156 471 155 479 b 157 476 159 472 160 468 z m 166 497 b 169 496 171 491 169 487 b 165 487 162 492 163 495 z m 151 511 b 155 510 157 507 157 502 b 154 503 152 505 146 509 z m 86 122 b 92 124 91 116 94 113 b 90 112 87 115 86 122 z m 72 105 b 76 105 80 99 78 96 b 74 95 73 100 70 102 z m 84 94 b 84 91 82 90 77 92 b 78 94 82 93 83 96 z m 116 392 b 120 390 121 386 116 392 z m 122 417 b 125 417 127 415 126 410 b 124 412 122 413 122 417 z m 114 393 b 109 394 108 394 106 398 z m 96 386 b 101 384 103 381 100 372 b 98 376 91 378 94 384 z m 101 352 b 97 351 94 351 95 355 z m 92 350 b 99 350 93 348 92 350 z m 80 303 b 78 304 76 305 77 308 z m 74 126 b 71 128 67 128 71 139 b 72 136 76 138 77 135 z m 57 304 b 61 302 65 300 66 293 b 62 292 60 296 54 303 z m 54 144 l 55 143 z m 48 192 b 52 190 55 186 48 182 b 47 184 49 188 46 190 z m 50 240 b 51 243 53 244 50 240 z m 53 277 b 52 274 50 271 46 273 z m 39 164 b 34 165 32 165 31 168 b 32 167 34 168 36 168 b 37 168 38 168 42 167 b 44 166 43 163 45 162 z m 23 165 b 25 164 27 162 22 164 z m 23 237 b 20 239 22 241 24 243 b 31 237 31 236 31 236 b 29 235 28 235 27 235 b 26 235 25 235 23 237 z m 39 190 b 38 195 33 197 36 204 b 37 201 39 200 41 199 b 44 197 44 193 41 190 z m 40 259 b 41 257 44 256 41 252 b 33 259 31 259 31 262 z m 32 240 b 28 241 26 242 29 243 z m 21 189 b 24 190 27 186 18 183 b 16 185 19 189 21 189 z m 11 225 b 12 222 15 223 13 218 b 12 220 9 221 10 224 z m -22 86 b -20 83 -19 79 -20 70 b -22 72 -26 70 -26 74 l -28 74 l -27 79 b -30 79 -31 79 -31 83 b -31 85 -32 86 -32 86 b -33 86 -35 84 -38 88 b -35 91 -42 95 -31 94 b -32 89 -30 89 -27 89 b -26 89 -25 89 -24 89 z m -28 29 b -27 28 -23 21 -27 19 z m -29 -10 b -32 -9 -34 -7 -32 -3 b -30 -4 -28 -6 -26 -7 z m -34 55 b -33 58 -31 61 -28 60 b -25 58 -22 58 -20 55 b -19 53 -20 50 -22 44 b -25 47 -26 51 -32 50 z m -37 33 l -38 30 z m -46 80 b -47 74 -44 75 -40 74 b -38 74 -33 71 -40 62 b -45 62 -46 63 -46 68 b -49 69 -47 74 -53 78 z m -51 50 b -47 50 -48 47 -44 43 b -38 40 -39 38 -50 43 z m -71 9 b -69 7 -70 5 -67 1 l -64 4 b -61 2 -58 -1 -56 -5 b -60 -3 -63 -2 -65 -1 b -58 -6 -57 -10 -63 -6 b -67 -5 -68 -3 -67 1 b -73 4 -75 6 -74 8 z m -79 -48 b -82 -49 -84 -47 -82 -39 b -82 -43 -79 -43 -77 -44 z m -79 -111 b -82 -111 -83 -109 -83 -103 b -81 -105 -79 -107 -77 -109 z m -84 -67 b -83 -68 -87 -73 -89 -72 b -91 -71 -93 -68 -93 -66 b -93 -64 -89 -66 -88 -62 z m -101 -55 l -103 -54 z m -118 -130 b -112 -130 -106 -134 -103 -140 b -111 -135 -115 -132 -118 -130 z m -109 -142 b -109 -137 -114 -138 -117 -131 b -104 -142 -109 -142 -109 -142 z m -98 -183 b -101 -183 -103 -181 -100 -175 b -96 -175 -95 -178 -94 -182 z m -93 -151 b -94 -151 -95 -152 -96 -152 b -97 -152 -98 -151 -97 -147 b -96 -147 -95 -146 -93 -146 b -93 -146 -92 -147 -93 -151 z m -88 -134 b -91 -126 -100 -125 -96 -119 b -93 -121 -90 -122 -87 -124 b -83 -125 -86 -130 -83 -135 z m -85 -163 b -84 -163 -77 -166 -79 -172 z m -76 -145 b -75 -143 -73 -141 -70 -141 b -70 -144 -72 -146 -74 -147 z m -70 -88 b -71 -85 -74 -84 -76 -79 b -69 -79 -67 -81 -68 -91 z m -71 -60 b -73 -57 -75 -55 -76 -51 b -74 -50 -68 -52 -67 -59 z m -55 -67 b -52 -68 -49 -73 -53 -76 b -54 -73 -57 -79 -57 -76 b -58 -73 -59 -70 -57 -68 z m -50 -197 b -53 -197 -54 -195 -50 -197 z m 54 33 b 51 28 49 22 50 16 b 52 3 47 -10 48 -23 b 44 -33 47 -44 41 -54 b 40 -56 41 -59 41 -61 b 42 -71 38 -81 35 -91 b 30 -112 13 -156 -10 -156 b -13 -155 -14 -159 -17 -159 b -17 -159 -18 -158 -19 -158 b -21 -155 -24 -154 -26 -152 b -32 -149 -33 -143 -38 -139 b -39 -137 -38 -135 -39 -133 b -35 -130 -37 -125 -35 -120 b -33 -115 -30 -109 -31 -103 b -32 -100 -29 -98 -29 -95 b -27 -85 -26 -75 -23 -65 b -21 -60 -21 -54 -19 -49 b -16 -44 -12 -40 -10 -31 b -9 -27 -11 -21 -9 -18 b -6 -14 -5 -10 -2 -7 b 6 5 8 18 12 33 b 16 43 16 46 19 46 b 21 46 24 44 30 42 b 35 41 39 41 43 41 b 46 40 49 40 52 39 b 55 37 56 37 54 33 z m -3 68 b -8 62 -3 61 -5 55 b -9 55 -12 59 -12 64 b -12 68 -10 70 -7 70 b -6 70 -5 70 -4 69 z m 17 78 b 13 74 13 72 15 65 b 15 69 12 69 9 70 b 4 70 5 77 2 81 b 3 82 5 81 6 81 b 8 81 9 82 12 82 b 12 80 12 79 13 79 b 14 79 15 81 17 78 z m 60 55 b 53 54 51 61 46 63 b 44 65 47 71 53 71 b 54 65 57 61 60 55 z m 66 74 b 59 76 58 82 56 92 b 54 95 50 94 47 95 b 44 96 47 90 43 89 b 44 85 37 87 31 86 b 30 84 28 82 26 82 b 24 82 23 83 9 89 b 9 90 7 86 6 86 b 5 86 5 87 5 91 b 4 96 4 96 -5 93 l -8 96 b -9 94 -11 93 -13 93 b -14 93 -15 93 -15 94 b -17 95 -23 94 -24 105 b -26 107 -28 108 -30 117 b -30 117 -29 118 -27 118 b -26 118 -25 117 -24 116 b -23 113 -18 114 -15 104 b -14 105 -14 105 -13 105 b -12 105 -11 102 -5 110 l -12 119 b -10 126 -17 126 -20 129 b -22 131 -25 133 -16 134 b -13 135 -10 133 -10 129 b -9 127 -8 127 -7 127 b -6 127 -5 127 -5 127 b -4 127 -3 127 7 132 l 7 137 b 6 141 -1 139 -2 144 b -3 148 -10 146 -9 150 b -9 151 -8 151 -7 151 b -6 151 -5 151 -3 151 b -2 151 -1 151 1 153 b 3 152 4 149 6 149 b 7 149 8 150 14 134 b 15 135 16 135 17 135 b 20 135 23 133 23 138 b 27 142 26 144 19 151 l 19 153 b 17 153 16 157 10 160 b 10 161 17 162 17 161 b 19 159 21 159 22 156 b 23 156 24 156 25 156 b 27 156 29 155 37 158 b 38 156 38 152 37 151 b 34 149 34 147 36 144 b 37 144 37 144 38 144 b 40 144 41 144 45 144 b 41 141 43 140 48 134 b 51 134 52 131 56 132 b 55 128 54 125 56 125 b 62 125 60 117 66 117 b 70 117 71 113 68 110 b 65 108 63 107 58 103 b 58 101 54 99 61 89 b 68 88 67 81 66 74 z m -20 119 l -21 118 z m 73 43 b 78 38 76 38 75 38 z m 79 62 b 79 64 81 65 83 61 z m 93 81 b 90 84 88 85 88 91 b 91 90 95 86 95 82 z m 110 64 b 117 61 117 60 116 60 z m 112 65 b 114 65 116 63 117 61 b 114 63 112 64 110 64 z m 10 116 b 12 114 11 110 15 110 b 15 110 16 110 17 110 b 16 114 18 116 10 116 z m 30 86 l 29 88 z m -5 101 b -5 103 -6 103 -7 103 b -8 103 -9 103 -10 103 z m 10 98 l 8 96 z m 38 98 b 38 101 37 106 34 108 b 33 106 32 105 31 105 b 30 105 30 106 29 105 b 31 103 32 101 26 96 b 31 93 35 88 41 88 b 42 88 42 88 43 89 b 40 91 38 93 38 98 z m 10 101 l 11 99 z m 5 108 b 5 110 5 113 -2 113 l -2 110 b 1 111 2 108 5 108 z m 10 101 b 7 102 9 107 5 108 b 2 104 3 101 7 98 z m -5 110 l -2 110 z m 36 129 b 36 127 35 127 34 127 b 33 127 32 127 31 127 l 31 132 z m 31 132 b 30 133 29 130 27 130 b 27 130 26 130 20 127 b 21 128 22 129 23 129 b 26 129 28 126 31 124 b 27 120 30 119 40 112 b 41 110 42 110 44 110 b 45 110 46 110 43 116 b 41 118 40 114 38 115 l 38 120 z m 38 120 l 36 120 z m -5 113 l -5 115 z m 60 113 b 58 112 56 117 54 115 b 52 113 52 110 53 109 b 57 106 52 105 53 103 l 60 105 z m 6 125 b 9 123 4 122 17 126 b 14 128 12 133 7 132 b 5 130 14 128 7 127 z m 10 143 l 8 142 z m 26 95 l 25 94 z m 19 102 l 19 103 z m 48 133 l 47 132 z m 17 110 l 19 109 z m 32 108 l 31 109 z m 22 110 b 25 105 23 104 14 102 b 14 98 16 98 19 98 b 22 98 24 98 27 110 b 23 110 24 113 24 115 z m 24 115 l 26 114 z m 7 137 l 10 137 z m 14 122 l 16 121 z m -22 89 l -22 86 z m -67 1 l -65 -1 z"},"Q":{"x_min":0,"x_max":630,"ha":630,"o":"m 788 -120 b 786 -117 767 -105 764 -105 b 763 -104 762 -104 762 -104 b 757 -104 754 -106 750 -109 b 741 -118 725 -124 713 -125 b 704 -127 696 -131 686 -131 b 685 -131 683 -131 682 -131 b 676 -131 672 -131 667 -135 b 663 -138 659 -138 654 -138 b 651 -138 648 -138 645 -138 b 643 -138 641 -138 638 -138 b 628 -140 624 -141 620 -141 b 615 -141 611 -139 598 -136 b 592 -134 585 -130 578 -130 b 577 -130 575 -131 572 -130 b 566 -129 560 -126 550 -125 b 544 -120 536 -119 528 -117 b 518 -114 508 -113 499 -109 b 491 -106 482 -106 477 -98 b 473 -98 472 -92 467 -93 b 456 -93 447 -88 439 -79 b 438 -77 436 -76 433 -76 b 424 -75 415 -71 409 -63 b 404 -57 397 -54 389 -52 b 377 -48 365 -43 357 -32 b 354 -29 350 -27 346 -25 b 339 -22 331 -18 325 -13 b 322 -10 318 -10 315 -2 b 320 3 324 8 328 13 b 341 26 358 38 373 48 b 379 56 383 65 394 78 b 401 82 408 86 412 94 b 416 101 422 102 430 102 b 432 102 435 102 438 102 b 439 102 441 102 442 102 b 448 102 454 102 460 105 b 468 108 476 108 489 111 b 502 111 515 113 527 118 b 528 118 529 118 529 118 b 536 118 539 125 549 133 b 555 134 561 134 565 138 b 568 141 603 164 607 165 b 610 172 618 176 622 183 b 627 191 635 197 642 204 b 644 206 649 207 650 210 b 651 215 656 215 660 221 b 663 229 669 236 671 245 b 672 250 672 253 670 257 b 668 262 666 266 662 269 b 661 270 660 270 658 270 b 657 270 656 270 655 271 b 653 274 651 275 648 275 b 646 275 644 274 642 274 b 637 271 631 274 628 268 b 626 260 610 240 602 236 b 596 233 592 228 588 222 b 585 216 582 208 568 207 b 565 203 559 202 555 198 b 549 190 539 187 530 184 b 521 181 511 179 503 174 b 496 170 488 169 480 169 b 476 169 472 169 468 178 b 467 183 471 186 474 187 b 483 191 486 198 488 207 b 489 213 492 220 498 224 b 503 226 504 229 504 232 b 504 240 509 247 513 252 b 519 261 522 271 526 281 b 532 300 533 302 546 320 b 549 324 551 327 550 332 b 549 338 551 344 554 349 b 559 357 564 365 566 373 b 569 382 571 391 571 400 b 572 406 573 411 575 416 b 579 426 583 436 581 446 b 580 450 582 453 584 456 b 589 464 591 473 591 483 b 590 494 593 505 589 516 b 587 519 589 523 588 526 b 588 530 591 533 591 536 b 591 554 586 588 571 601 b 569 603 568 607 565 608 b 562 610 562 615 559 617 b 556 619 557 624 554 627 b 551 629 547 630 543 633 b 531 641 518 649 505 655 b 499 657 494 659 488 659 b 485 659 483 658 480 658 b 475 658 471 659 464 661 l 441 659 b 421 656 400 651 383 640 b 375 634 366 629 356 626 b 354 626 351 624 348 622 b 341 614 335 605 329 596 b 328 593 325 590 323 589 b 318 588 316 584 314 580 b 311 576 307 573 304 568 b 299 555 289 544 280 534 b 276 529 272 524 270 519 b 267 510 264 501 262 491 b 260 483 257 475 250 468 b 247 464 245 459 245 454 b 245 444 242 436 240 427 b 239 424 238 422 238 419 b 239 412 236 405 233 399 b 230 393 228 387 228 380 b 229 368 228 357 228 345 b 228 342 228 339 226 335 b 224 329 221 322 221 315 b 222 303 225 291 226 276 b 230 267 232 258 233 249 b 234 239 236 230 238 221 b 239 215 242 210 245 206 b 251 199 258 193 262 180 b 268 174 274 167 279 160 b 284 155 289 151 292 145 b 297 138 318 128 325 124 b 330 121 330 121 328 116 b 324 108 319 100 312 93 b 306 87 300 80 295 73 b 290 64 285 56 275 51 b 268 47 262 40 252 31 b 239 40 226 47 212 53 b 208 54 204 56 200 57 b 194 58 188 60 183 64 b 180 67 177 70 174 70 b 168 70 164 74 159 73 b 153 72 149 76 143 75 b 139 75 135 77 133 79 b 127 84 122 85 115 85 b 114 85 113 85 112 85 b 111 85 109 85 108 86 b 104 90 104 95 102 100 b 102 102 103 107 105 109 b 112 117 111 127 113 136 b 114 141 113 146 113 151 b 113 154 114 156 116 159 b 121 166 127 172 127 184 b 129 195 135 204 141 212 b 144 217 148 223 149 228 b 151 239 157 258 167 264 b 172 266 171 270 168 279 b 164 292 156 303 143 308 b 132 311 122 318 110 318 b 109 318 109 318 108 318 b 104 320 101 321 97 321 b 89 321 77 320 72 314 b 69 309 65 306 61 301 b 58 296 55 290 51 284 b 48 279 43 277 41 271 b 35 261 31 249 25 238 b 21 232 20 225 17 219 b 14 214 13 208 13 203 b 12 191 8 180 4 169 b 2 165 1 160 -2 156 b -4 151 0 145 -3 141 b -8 135 0 131 -2 127 b 1 121 0 114 0 107 b 0 102 1 97 0 92 b -1 80 1 69 5 59 b 6 56 8 54 8 50 b 9 44 10 38 13 32 b 15 26 16 19 27 12 b 26 8 28 6 30 3 b 32 2 34 -1 34 -3 b 34 -8 37 -9 40 -12 b 53 -20 64 -34 73 -47 b 88 -52 103 -58 119 -63 b 127 -66 136 -70 145 -71 b 163 -71 179 -71 198 -68 b 202 -68 209 -66 213 -61 b 214 -59 217 -60 219 -59 b 225 -56 232 -55 237 -51 b 243 -48 249 -47 255 -44 b 256 -44 258 -43 259 -43 b 261 -43 263 -44 264 -46 b 273 -54 273 -54 281 -57 b 286 -59 291 -61 293 -66 b 295 -70 298 -75 301 -77 b 307 -82 314 -87 321 -90 b 327 -93 334 -97 337 -102 b 341 -109 347 -114 352 -119 b 355 -123 360 -125 364 -127 b 374 -130 383 -134 390 -144 b 397 -156 410 -164 422 -169 b 441 -176 459 -184 476 -193 b 484 -197 492 -201 501 -203 b 511 -206 522 -209 532 -213 b 541 -216 549 -220 558 -220 b 571 -220 583 -221 595 -225 b 601 -228 607 -229 613 -229 b 614 -230 615 -230 616 -230 b 627 -230 637 -227 648 -227 b 650 -227 652 -227 657 -227 b 665 -220 678 -222 686 -213 b 691 -212 694 -208 699 -208 b 708 -206 717 -201 725 -196 b 734 -190 743 -186 749 -178 b 751 -176 752 -174 754 -173 b 767 -169 783 -150 788 -138 b 791 -132 791 -126 788 -120 z m 304 452 b 299 456 296 458 299 462 b 301 460 303 458 305 456 z m 294 459 b 296 455 297 454 297 454 b 297 454 296 455 295 456 z m 287 406 b 288 407 289 407 290 407 b 292 407 294 405 295 403 b 296 402 292 399 289 399 b 285 399 286 403 287 406 z m 278 423 b 280 423 286 419 286 417 b 283 416 285 413 278 413 b 276 414 277 417 278 423 z m 270 366 l 271 365 z m 266 368 b 261 368 262 371 262 373 z m 249 327 b 252 328 253 325 248 325 z m 263 278 b 262 281 260 282 258 283 b 257 283 261 287 262 287 b 265 284 267 281 267 277 z m 277 294 b 272 294 275 296 282 297 b 284 294 284 292 279 290 z m 294 221 l 294 219 z m 298 281 l 297 275 z m 301 332 b 298 332 296 334 297 339 b 300 340 305 337 301 332 z m 330 155 l 330 152 z m 356 128 b 352 129 350 133 352 138 b 353 134 356 132 356 128 z m 368 147 b 363 147 361 147 360 149 b 360 151 363 155 366 155 b 368 154 371 150 365 147 z m 382 159 b 379 160 377 162 381 169 b 382 169 387 164 382 159 z m 392 152 b 388 157 387 157 394 156 b 396 154 398 153 395 150 z m 401 176 b 405 176 407 175 399 174 z m 415 132 b 415 131 414 130 413 130 b 411 130 409 131 408 132 b 405 134 405 139 405 142 b 407 140 411 140 415 132 z m 423 148 b 419 149 418 152 415 156 b 425 149 425 149 425 148 z m 425 150 b 420 154 417 156 416 157 z m 440 193 b 438 194 435 195 436 200 b 438 199 440 196 437 197 z m 456 272 l 455 270 z m 462 234 b 461 234 460 234 459 234 b 458 234 457 234 460 240 b 463 241 460 236 462 234 z m 472 311 b 470 310 466 313 472 311 z m 475 280 l 474 279 z m 496 320 b 494 322 493 324 491 324 b 490 324 489 324 493 330 b 495 328 496 325 498 323 z m 525 354 l 525 351 z m 544 486 l 545 485 z m 548 454 b 547 452 548 450 545 457 z m 537 493 l 538 492 z m 534 496 l 535 497 z m 529 465 b 527 467 525 469 528 475 b 531 476 531 470 533 468 z m 525 440 b 523 442 521 443 523 447 z m 522 419 b 524 417 527 415 528 413 b 528 411 526 409 524 408 b 524 410 523 410 523 410 b 522 410 521 410 519 417 z m 518 361 l 518 360 z m 499 378 b 502 378 503 376 504 372 b 500 373 499 375 499 378 z m 337 511 b 330 512 329 513 330 519 z m 320 500 b 323 500 326 495 316 498 z m 325 284 b 329 301 326 318 327 335 b 327 340 328 344 330 348 b 332 353 332 357 329 371 b 335 377 329 386 334 392 b 339 398 340 405 342 411 b 345 418 347 424 351 430 b 349 434 354 436 353 441 b 353 444 353 449 353 453 b 353 456 354 459 357 462 b 362 466 361 474 365 479 b 364 486 368 492 372 497 b 376 503 379 509 382 515 b 386 520 387 527 388 532 b 390 540 394 545 398 550 b 402 557 408 563 412 570 b 413 572 415 573 417 575 b 421 578 428 578 429 585 b 431 593 448 610 456 612 b 459 613 462 613 465 613 b 471 613 476 612 485 607 b 485 600 492 596 492 589 b 492 586 495 584 495 582 b 495 576 495 571 495 563 b 493 556 497 548 497 540 b 497 531 497 522 497 513 b 497 506 495 491 489 481 b 485 474 482 467 483 459 b 483 453 480 448 478 442 b 473 429 468 415 464 401 b 463 396 462 391 461 386 b 460 375 457 365 447 352 b 447 348 448 343 444 340 b 446 333 443 329 437 325 b 434 324 432 319 432 314 b 434 304 430 296 422 289 b 417 285 414 278 413 272 b 412 265 410 259 406 247 b 397 240 394 229 390 220 b 388 216 376 193 373 193 b 371 193 369 194 367 195 b 360 198 353 201 350 209 b 350 211 347 212 346 214 b 340 221 335 229 336 239 b 337 247 334 254 330 260 b 326 268 323 276 325 284 z m 105 227 b 107 228 112 225 105 227 z m 99 239 b 102 238 104 236 104 233 b 100 235 98 237 99 239 z m 96 238 b 102 232 101 230 100 229 b 98 229 93 234 96 238 z m 96 239 l 94 240 z m 87 244 b 84 247 81 249 82 251 z m 84 224 b 83 221 82 219 78 222 b 76 225 80 225 82 228 z m 70 175 b 71 176 73 177 74 177 b 75 177 76 176 80 170 b 80 169 81 169 82 169 b 83 169 84 169 84 167 b 83 166 81 163 77 164 b 72 163 70 168 70 175 z m 81 135 b 77 134 74 137 75 142 b 76 140 77 138 82 136 z m 70 146 b 67 146 64 147 66 147 z m 66 121 b 67 119 69 117 67 111 l 63 115 b 65 116 65 119 66 121 z m 63 147 b 68 144 67 142 63 145 z m 59 147 b 58 150 57 152 59 157 b 63 155 63 152 63 149 z m 53 126 b 48 127 42 137 45 142 b 46 137 51 138 56 129 z m 62 207 l 63 209 z m 60 188 b 64 188 62 185 58 186 b 63 180 63 178 56 191 z m 46 161 b 45 164 48 165 53 164 z m 34 178 b 35 178 36 179 37 179 b 39 179 41 175 43 175 b 45 175 47 172 38 171 b 36 173 32 175 34 178 z m 23 105 b 25 103 27 101 27 96 z m 35 59 b 36 58 37 61 38 61 b 38 61 39 60 38 54 z m 37 122 b 41 118 43 112 46 107 b 42 106 33 112 32 116 z m 47 71 b 42 70 44 73 47 71 z m 53 36 b 51 38 48 36 51 40 b 53 39 56 40 55 35 z m 57 102 b 58 100 58 96 63 97 b 67 97 65 93 65 92 b 65 89 65 87 64 87 b 63 87 62 88 61 88 b 55 91 53 95 53 101 z m 67 31 b 66 30 65 27 62 27 z m 74 52 b 73 51 72 48 69 49 z m 82 43 l 81 42 z m 85 241 b 84 243 84 246 80 249 b 88 242 88 241 85 241 z m 92 215 b 92 212 89 212 87 213 z m 102 196 b 103 203 98 202 103 208 b 103 204 104 200 102 196 z m 201 -4 b 195 -4 190 -5 185 -8 b 177 -11 169 -14 161 -13 b 159 -13 157 -14 155 -14 b 154 -14 153 -14 153 -13 b 149 -12 146 -12 144 -8 b 143 -5 141 -3 138 -2 b 123 10 118 27 112 44 b 113 44 114 44 114 44 b 120 44 126 42 134 39 b 135 40 136 40 138 40 b 145 40 151 35 157 32 b 164 28 171 25 176 18 b 179 16 182 15 185 13 b 191 10 197 6 204 -3 z m 552 -165 b 552 -160 548 -157 548 -153 b 549 -153 558 -163 556 -167 z m 579 -189 b 575 -188 574 -186 576 -179 b 579 -179 581 -182 579 -189 z"}}}
